<svg width="698" height="361" viewBox="0 0 698 361" fill="none" xmlns="http://www.w3.org/2000/svg">
<ellipse cx="340.138" cy="180.578" rx="339.192" ry="179.602" fill="url(#paint0_radial_1929_15313)"/>
<path fill-rule="evenodd" clip-rule="evenodd" d="M524.021 247.591L542.799 228.814L541.546 227.56L522.759 246.347L532.926 221.8L531.289 221.122L521.124 245.664V219.102H519.352V245.664L509.187 221.122L507.549 221.8L517.713 246.338L498.935 227.56L497.681 228.814L516.459 247.591L491.921 237.428L491.243 239.066L515.785 249.23H489.223V251.003H515.785L491.243 261.168L491.921 262.805L516.468 252.638L497.681 271.425L498.935 272.678L517.713 253.9L507.549 278.439L509.187 279.117L519.352 254.575V281.137H521.124V254.575L531.289 279.117L532.926 278.439L522.759 253.892L541.546 272.678L542.799 271.425L524.013 252.638L548.56 262.805L549.238 261.168L524.696 251.003H551.258V249.23H524.696L549.238 239.066L548.56 237.428L524.021 247.591Z" fill="#9A51E1"/>
<path opacity="0.6" d="M106.503 74.0156L116.567 89.5676L133.85 82.9014L132.851 101.399L150.752 106.165L139.071 120.542L150.752 134.919L132.851 139.685L133.85 158.183L116.567 151.516L106.503 167.068L96.4387 151.516L79.1554 158.183L80.1545 139.685L62.2537 134.919L73.9345 120.542L62.2537 106.165L80.1545 101.399L79.1554 82.9014L96.4387 89.5676L106.503 74.0156Z" fill="#FCB450"/>
<rect x="521.25" y="65.0117" width="75.0426" height="75.0426" rx="14.8232" fill="#EAE2ED"/>
<path d="M98.681 69V51.7102H100.446V59.5026H110.003V51.7102H111.756V69H110.003V61.1956H100.446V69H98.681ZM120.607 69.3602C119.342 69.3602 118.246 69.08 117.317 68.5197C116.397 67.9594 115.68 67.171 115.168 66.1544C114.656 65.1378 114.4 63.9451 114.4 62.5764C114.4 61.1596 114.652 59.9349 115.156 58.9023C115.66 57.8697 116.369 57.0732 117.281 56.5129C118.202 55.9526 119.286 55.6724 120.535 55.6724C121.816 55.6724 122.908 55.9686 123.813 56.5609C124.717 57.1453 125.402 57.9858 125.866 59.0824C126.33 60.179 126.542 61.4877 126.502 63.0086H124.701V62.3842C124.669 60.7033 124.305 59.4346 123.609 58.5781C122.92 57.7216 121.912 57.2934 120.583 57.2934C119.19 57.2934 118.122 57.7456 117.377 58.6501C116.641 59.5546 116.273 60.8434 116.273 62.5163C116.273 64.1492 116.641 65.418 117.377 66.3225C118.122 67.219 119.174 67.6672 120.535 67.6672C121.464 67.6672 122.272 67.4551 122.96 67.0309C123.657 66.5986 124.205 65.9783 124.605 65.1698L126.25 65.8062C125.738 66.9348 124.982 67.8113 123.981 68.4357C122.988 69.052 121.864 69.3602 120.607 69.3602ZM115.648 63.0086V61.5318H125.554V63.0086H115.648ZM129.407 69V51.35H131.172V69H129.407ZM135.012 69V51.35H136.777V69H135.012ZM145.792 69.3602C144.503 69.3602 143.402 69.068 142.49 68.4837C141.577 67.8994 140.877 67.0909 140.388 66.0583C139.9 65.0257 139.656 63.8411 139.656 62.5043C139.656 61.1435 139.904 59.9509 140.4 58.9263C140.897 57.9017 141.601 57.1053 142.514 56.5369C143.434 55.9606 144.527 55.6724 145.792 55.6724C147.088 55.6724 148.193 55.9646 149.105 56.5489C150.026 57.1253 150.726 57.9297 151.207 58.9623C151.695 59.9869 151.939 61.1676 151.939 62.5043C151.939 63.8651 151.695 65.0618 151.207 66.0944C150.718 67.1189 150.014 67.9194 149.093 68.4957C148.173 69.072 147.072 69.3602 145.792 69.3602ZM145.792 67.6672C147.232 67.6672 148.305 67.191 149.009 66.2384C149.714 65.2779 150.066 64.0332 150.066 62.5043C150.066 60.9354 149.71 59.6867 148.997 58.7582C148.293 57.8297 147.224 57.3654 145.792 57.3654C144.823 57.3654 144.023 57.5855 143.39 58.0258C142.766 58.458 142.298 59.0624 141.985 59.8388C141.681 60.6072 141.529 61.4957 141.529 62.5043C141.529 64.0652 141.889 65.3179 142.61 66.2624C143.33 67.199 144.391 67.6672 145.792 67.6672ZM166.455 69C165.727 69.1521 165.006 69.2121 164.294 69.1801C163.589 69.1481 162.957 68.996 162.397 68.7238C161.844 68.4517 161.424 68.0274 161.136 67.4511C160.904 66.9708 160.776 66.4866 160.752 65.9983C160.736 65.502 160.728 64.9377 160.728 64.3053V52.4306H162.481V64.2333C162.481 64.7776 162.485 65.2339 162.493 65.6021C162.509 65.9623 162.593 66.2825 162.745 66.5626C163.033 67.0989 163.489 67.4191 164.114 67.5232C164.746 67.6272 165.527 67.6032 166.455 67.4511V69ZM157.954 57.5455V56.0326H166.455V57.5455H157.954ZM178.375 69V62.3842C178.375 61.6638 178.307 61.0035 178.171 60.4031C178.035 59.7948 177.815 59.2665 177.511 58.8182C177.215 58.362 176.826 58.0098 176.346 57.7616C175.874 57.5135 175.297 57.3894 174.617 57.3894C173.993 57.3894 173.44 57.4975 172.96 57.7136C172.488 57.9297 172.088 58.2419 171.759 58.6501C171.439 59.0504 171.195 59.5386 171.027 60.115C170.859 60.6913 170.775 61.3477 170.775 62.0841L169.526 61.8079C169.526 60.4792 169.758 59.3625 170.223 58.458C170.687 57.5535 171.327 56.8691 172.144 56.4049C172.96 55.9406 173.897 55.7085 174.953 55.7085C175.73 55.7085 176.406 55.8285 176.982 56.0687C177.567 56.3088 178.059 56.633 178.459 57.0412C178.867 57.4494 179.196 57.9177 179.444 58.446C179.692 58.9663 179.872 59.5226 179.984 60.115C180.096 60.6993 180.152 61.2836 180.152 61.868V69H178.375ZM168.998 69V51.7102H170.595V61.4717H170.775V69H168.998ZM188.755 69.3602C187.49 69.3602 186.394 69.08 185.465 68.5197C184.545 67.9594 183.828 67.171 183.316 66.1544C182.804 65.1378 182.548 63.9451 182.548 62.5764C182.548 61.1596 182.8 59.9349 183.304 58.9023C183.808 57.8697 184.517 57.0732 185.429 56.5129C186.35 55.9526 187.434 55.6724 188.683 55.6724C189.964 55.6724 191.056 55.9686 191.961 56.5609C192.865 57.1453 193.55 57.9858 194.014 59.0824C194.478 60.179 194.69 61.4877 194.65 63.0086H192.849V62.3842C192.817 60.7033 192.453 59.4346 191.757 58.5781C191.068 57.7216 190.06 57.2934 188.731 57.2934C187.338 57.2934 186.27 57.7456 185.525 58.6501C184.789 59.5546 184.421 60.8434 184.421 62.5163C184.421 64.1492 184.789 65.418 185.525 66.3225C186.27 67.219 187.322 67.6672 188.683 67.6672C189.612 67.6672 190.42 67.4551 191.108 67.0309C191.805 66.5986 192.353 65.9783 192.753 65.1698L194.398 65.8062C193.886 66.9348 193.13 67.8113 192.129 68.4357C191.136 69.052 190.012 69.3602 188.755 69.3602ZM183.796 63.0086V61.5318H193.702V63.0086H183.796ZM197.315 69V56.0326H198.9V59.1544L198.588 58.7462C198.732 58.362 198.92 58.0098 199.152 57.6896C199.384 57.3614 199.636 57.0932 199.908 56.8851C200.245 56.589 200.637 56.3648 201.085 56.2127C201.533 56.0527 201.986 55.9606 202.442 55.9366C202.898 55.9046 203.314 55.9366 203.691 56.0326V57.6896C203.218 57.5695 202.702 57.5415 202.142 57.6055C201.581 57.6696 201.065 57.8937 200.593 58.2779C200.161 58.6141 199.836 59.0183 199.62 59.4906C199.404 59.9549 199.26 60.4512 199.188 60.9795C199.116 61.4997 199.08 62.016 199.08 62.5283V69H197.315ZM211.221 69.3602C209.956 69.3602 208.86 69.08 207.931 68.5197C207.011 67.9594 206.294 67.171 205.782 66.1544C205.27 65.1378 205.013 63.9451 205.013 62.5764C205.013 61.1596 205.266 59.9349 205.77 58.9023C206.274 57.8697 206.983 57.0732 207.895 56.5129C208.816 55.9526 209.9 55.6724 211.149 55.6724C212.43 55.6724 213.522 55.9686 214.427 56.5609C215.331 57.1453 216.016 57.9858 216.48 59.0824C216.944 60.179 217.156 61.4877 217.116 63.0086H215.315V62.3842C215.283 60.7033 214.919 59.4346 214.223 58.5781C213.534 57.7216 212.526 57.2934 211.197 57.2934C209.804 57.2934 208.736 57.7456 207.991 58.6501C207.255 59.5546 206.887 60.8434 206.887 62.5163C206.887 64.1492 207.255 65.418 207.991 66.3225C208.736 67.219 209.788 67.6672 211.149 67.6672C212.077 67.6672 212.886 67.4551 213.574 67.0309C214.271 66.5986 214.819 65.9783 215.219 65.1698L216.864 65.8062C216.352 66.9348 215.595 67.8113 214.595 68.4357C213.602 69.052 212.478 69.3602 211.221 69.3602ZM206.262 63.0086V61.5318H216.168V63.0086H206.262ZM219.072 71.5094L219.18 70.6329C219.5 70.6569 219.732 70.5929 219.876 70.4408C220.02 70.2887 220.108 70.0846 220.14 69.8285C220.172 69.5723 220.18 69.2962 220.164 69H219.072V66.4666H221.125V69.4803C221.125 70.2167 220.937 70.769 220.561 71.1372C220.192 71.5054 219.696 71.6295 219.072 71.5094ZM230.738 69V51.7102H232.503V69H230.738ZM236.103 56.7531L236.211 55.8766C236.531 55.9006 236.763 55.8365 236.907 55.6844C237.051 55.5324 237.139 55.3282 237.171 55.0721C237.203 54.816 237.211 54.5398 237.195 54.2436H236.103V51.7102H238.156V54.7239C238.156 55.4603 237.968 56.0126 237.591 56.3808C237.223 56.7491 236.727 56.8731 236.103 56.7531ZM256.891 69L256.903 60.4872C256.903 59.4866 256.623 58.7022 256.062 58.1338C255.51 57.5575 254.806 57.2693 253.949 57.2693C253.461 57.2693 252.985 57.3814 252.52 57.6055C252.056 57.8297 251.672 58.1899 251.368 58.6862C251.071 59.1824 250.923 59.8308 250.923 60.6313L249.879 60.3311C249.855 59.4026 250.035 58.5901 250.419 57.8937C250.811 57.1973 251.348 56.657 252.028 56.2728C252.716 55.8806 253.493 55.6844 254.357 55.6844C255.662 55.6844 256.707 56.0887 257.491 56.8971C258.276 57.6976 258.668 58.7822 258.668 60.151L258.656 69H256.891ZM241.414 69V56.0326H242.999V59.2265H243.191V69H241.414ZM249.17 69L249.182 60.6072C249.182 59.5747 248.906 58.7622 248.354 58.1699C247.81 57.5695 247.089 57.2693 246.193 57.2693C245.296 57.2693 244.572 57.5775 244.019 58.1939C243.467 58.8022 243.191 59.6147 243.191 60.6313L242.134 60.0549C242.134 59.2225 242.33 58.478 242.723 57.8217C243.115 57.1573 243.651 56.637 244.332 56.2608C245.012 55.8766 245.784 55.6844 246.649 55.6844C247.473 55.6844 248.206 55.8605 248.846 56.2127C249.495 56.5649 250.003 57.0772 250.371 57.7496C250.739 58.422 250.923 59.2385 250.923 60.199L250.911 69H249.17Z" fill="#353535"/>
<path d="M128.24 177.1C126.627 177.1 125.013 176.953 123.4 176.66C121.787 176.44 120.173 176.183 118.56 175.89C117.02 175.523 115.48 175.23 113.94 175.01C112.4 174.717 110.86 174.57 109.32 174.57C108.66 174.57 107.853 174.68 106.9 174.9C106.02 175.12 105.14 175.413 104.26 175.78C103.38 176.147 102.573 176.183 101.84 175.89C101.107 175.523 100.703 174.863 100.63 173.91L98.98 149.82C98.9067 148.72 99.0533 147.877 99.42 147.29C99.86 146.703 100.373 146.337 100.96 146.19C101.62 145.97 102.243 145.97 102.83 146.19C103.49 146.337 103.967 146.667 104.26 147.18C106.9 151.14 109.21 154.44 111.19 157.08C113.17 159.647 114.967 161.7 116.58 163.24C118.193 164.78 119.697 165.88 121.09 166.54C122.483 167.127 123.913 167.42 125.38 167.42C129.633 167.42 131.76 164.817 131.76 159.61V112.75C131.76 111.43 131.32 110.367 130.44 109.56C129.633 108.753 128.717 108.057 127.69 107.47C126.663 106.81 125.71 106.15 124.83 105.49C124.023 104.83 123.62 103.95 123.62 102.85C123.62 101.677 124.023 100.76 124.83 100.1C125.637 99.3667 126.663 99 127.91 99H154.75C155.997 99 157.023 99.3667 157.83 100.1C158.637 100.76 159.04 101.677 159.04 102.85C159.04 103.95 158.71 104.83 158.05 105.49C157.39 106.077 156.657 106.7 155.85 107.36C155.043 107.947 154.31 108.643 153.65 109.45C152.99 110.183 152.66 111.21 152.66 112.53V152.24C152.66 159.94 150.643 166.027 146.61 170.5C142.65 174.9 136.527 177.1 128.24 177.1ZM169.703 176C168.456 176 167.43 175.67 166.623 175.01C165.816 174.277 165.413 173.323 165.413 172.15C165.413 171.05 165.743 170.207 166.403 169.62C167.063 168.96 167.796 168.337 168.603 167.75C169.41 167.09 170.143 166.393 170.803 165.66C171.463 164.853 171.793 163.79 171.793 162.47V112.53C171.793 111.21 171.463 110.183 170.803 109.45C170.143 108.643 169.41 107.947 168.603 107.36C167.796 106.7 167.063 106.077 166.403 105.49C165.743 104.83 165.413 103.95 165.413 102.85C165.413 101.677 165.816 100.76 166.623 100.1C167.43 99.3667 168.456 99 169.703 99H216.343C216.856 99 217.59 98.8533 218.543 98.56C219.57 98.2667 220.67 97.9367 221.843 97.57C222.796 97.2033 223.676 97.24 224.483 97.68C225.29 98.0467 225.73 98.8533 225.803 100.1L226.463 115.83C226.463 116.563 226.28 117.187 225.913 117.7C225.62 118.14 225.18 118.433 224.593 118.58C224.08 118.727 223.53 118.69 222.943 118.47C222.356 118.25 221.843 117.81 221.403 117.15C219.643 114.657 217.81 112.75 215.903 111.43C214.07 110.037 212.2 109.01 210.293 108.35C208.386 107.69 206.443 107.287 204.463 107.14C202.556 106.993 200.65 106.92 198.743 106.92H192.693V131.56H202.153C203.4 131.56 204.426 131.157 205.233 130.35C206.113 129.543 206.846 128.59 207.433 127.49C208.02 126.39 208.533 125.327 208.973 124.3C209.413 123.2 209.89 122.393 210.403 121.88C211.136 121.147 211.98 120.78 212.933 120.78C213.74 120.78 214.4 121.073 214.913 121.66C215.426 122.173 215.683 122.87 215.683 123.75V147.07C215.683 147.95 215.426 148.683 214.913 149.27C214.4 149.783 213.74 150.04 212.933 150.04C211.98 150.04 211.136 149.673 210.403 148.94C209.89 148.427 209.413 147.657 208.973 146.63C208.533 145.53 208.02 144.43 207.433 143.33C206.846 142.23 206.113 141.277 205.233 140.47C204.426 139.663 203.4 139.26 202.153 139.26H192.693V168.08H200.173C202.08 168.08 203.986 167.933 205.893 167.64C207.873 167.273 209.816 166.65 211.723 165.77C213.703 164.817 215.646 163.533 217.553 161.92C219.46 160.307 221.256 158.253 222.943 155.76C223.383 155.173 223.86 154.807 224.373 154.66C224.96 154.44 225.51 154.403 226.023 154.55C226.61 154.697 227.05 154.99 227.343 155.43C227.71 155.87 227.893 156.42 227.893 157.08L227.233 174.9C227.16 176.147 226.72 176.953 225.913 177.32C225.106 177.76 224.226 177.797 223.273 177.43C222.1 177.063 221 176.733 219.973 176.44C219.02 176.147 218.286 176 217.773 176H169.703ZM267.539 177.1C265.412 177.1 263.285 176.953 261.159 176.66C259.032 176.44 257.052 176.183 255.219 175.89C253.385 175.523 251.772 175.23 250.379 175.01C248.985 174.717 247.959 174.57 247.299 174.57C246.712 174.57 245.905 174.68 244.879 174.9C243.852 175.047 242.825 175.34 241.799 175.78C240.919 176.147 240.112 176.183 239.379 175.89C238.645 175.523 238.242 174.863 238.169 173.91L236.849 154.66C236.775 153.56 236.922 152.68 237.289 152.02C237.655 151.36 238.132 150.92 238.719 150.7C239.305 150.48 239.892 150.48 240.479 150.7C241.139 150.92 241.689 151.36 242.129 152.02C243.889 154.733 245.905 157.153 248.179 159.28C250.452 161.333 252.799 163.093 255.219 164.56C257.639 166.027 260.022 167.163 262.369 167.97C264.715 168.703 266.805 169.07 268.639 169.07C271.425 169.07 273.662 168.263 275.349 166.65C277.035 165.037 277.879 162.947 277.879 160.38C277.879 157.887 276.962 155.43 275.129 153.01C273.369 150.59 270.325 148.573 265.999 146.96L253.349 142.23C242.422 138.123 236.959 131.083 236.959 121.11C236.959 117.003 237.729 113.52 239.269 110.66C240.882 107.727 243.009 105.343 245.649 103.51C248.289 101.603 251.295 100.21 254.669 99.33C258.115 98.45 261.635 98.01 265.229 98.01C268.749 98.01 272.122 98.4133 275.349 99.22C278.649 99.9533 281.545 101.017 284.039 102.41C286.532 103.803 288.512 105.49 289.979 107.47C291.519 109.377 292.289 111.54 292.289 113.96C292.289 116.38 291.519 118.287 289.979 119.68C288.439 121.073 286.495 121.77 284.149 121.77C282.315 121.77 280.739 121.367 279.419 120.56C278.099 119.753 276.925 118.763 275.899 117.59C274.945 116.343 274.065 115.023 273.259 113.63C272.452 112.237 271.572 110.953 270.619 109.78C269.739 108.533 268.712 107.507 267.539 106.7C266.365 105.893 264.972 105.49 263.359 105.49C261.085 105.49 259.179 106.26 257.639 107.8C256.172 109.267 255.439 111.1 255.439 113.3C255.439 115.573 256.319 117.7 258.079 119.68C259.839 121.587 262.332 123.163 265.559 124.41L276.779 128.59C283.452 131.083 288.329 134.2 291.409 137.94C294.562 141.68 296.139 146.263 296.139 151.69C296.139 155.43 295.442 158.877 294.049 162.03C292.655 165.11 290.675 167.787 288.109 170.06C285.615 172.26 282.609 173.983 279.089 175.23C275.569 176.477 271.719 177.1 267.539 177.1ZM332.529 177.1C330.402 177.1 328.276 176.953 326.149 176.66C324.022 176.44 322.042 176.183 320.209 175.89C318.376 175.523 316.762 175.23 315.369 175.01C313.976 174.717 312.949 174.57 312.289 174.57C311.702 174.57 310.896 174.68 309.869 174.9C308.842 175.047 307.816 175.34 306.789 175.78C305.909 176.147 305.102 176.183 304.369 175.89C303.636 175.523 303.232 174.863 303.159 173.91L301.839 154.66C301.766 153.56 301.912 152.68 302.279 152.02C302.646 151.36 303.122 150.92 303.709 150.7C304.296 150.48 304.882 150.48 305.469 150.7C306.129 150.92 306.679 151.36 307.119 152.02C308.879 154.733 310.896 157.153 313.169 159.28C315.442 161.333 317.789 163.093 320.209 164.56C322.629 166.027 325.012 167.163 327.359 167.97C329.706 168.703 331.796 169.07 333.629 169.07C336.416 169.07 338.652 168.263 340.339 166.65C342.026 165.037 342.869 162.947 342.869 160.38C342.869 157.887 341.952 155.43 340.119 153.01C338.359 150.59 335.316 148.573 330.989 146.96L318.339 142.23C307.412 138.123 301.949 131.083 301.949 121.11C301.949 117.003 302.719 113.52 304.259 110.66C305.872 107.727 307.999 105.343 310.639 103.51C313.279 101.603 316.286 100.21 319.659 99.33C323.106 98.45 326.626 98.01 330.219 98.01C333.739 98.01 337.112 98.4133 340.339 99.22C343.639 99.9533 346.536 101.017 349.029 102.41C351.522 103.803 353.502 105.49 354.969 107.47C356.509 109.377 357.279 111.54 357.279 113.96C357.279 116.38 356.509 118.287 354.969 119.68C353.429 121.073 351.486 121.77 349.139 121.77C347.306 121.77 345.729 121.367 344.409 120.56C343.089 119.753 341.916 118.763 340.889 117.59C339.936 116.343 339.056 115.023 338.249 113.63C337.442 112.237 336.562 110.953 335.609 109.78C334.729 108.533 333.702 107.507 332.529 106.7C331.356 105.893 329.962 105.49 328.349 105.49C326.076 105.49 324.169 106.26 322.629 107.8C321.162 109.267 320.429 111.1 320.429 113.3C320.429 115.573 321.309 117.7 323.069 119.68C324.829 121.587 327.322 123.163 330.549 124.41L341.769 128.59C348.442 131.083 353.319 134.2 356.399 137.94C359.552 141.68 361.129 146.263 361.129 151.69C361.129 155.43 360.432 158.877 359.039 162.03C357.646 165.11 355.666 167.787 353.099 170.06C350.606 172.26 347.599 173.983 344.079 175.23C340.559 176.477 336.709 177.1 332.529 177.1ZM371.119 176C369.872 176 368.846 175.67 368.039 175.01C367.232 174.277 366.829 173.323 366.829 172.15C366.829 171.05 367.159 170.207 367.819 169.62C368.479 168.96 369.212 168.337 370.019 167.75C370.826 167.09 371.559 166.393 372.219 165.66C372.879 164.853 373.209 163.79 373.209 162.47V112.53C373.209 111.21 372.879 110.183 372.219 109.45C371.559 108.643 370.826 107.947 370.019 107.36C369.212 106.7 368.479 106.077 367.819 105.49C367.159 104.83 366.829 103.95 366.829 102.85C366.829 101.677 367.232 100.76 368.039 100.1C368.846 99.3667 369.872 99 371.119 99H396.199C397.446 99 398.472 99.3667 399.279 100.1C400.086 100.76 400.489 101.677 400.489 102.85C400.489 103.95 400.159 104.83 399.499 105.49C398.839 106.077 398.106 106.7 397.299 107.36C396.492 107.947 395.759 108.643 395.099 109.45C394.439 110.183 394.109 111.21 394.109 112.53V162.47C394.109 163.79 394.439 164.853 395.099 165.66C395.759 166.393 396.492 167.09 397.299 167.75C398.106 168.337 398.839 168.96 399.499 169.62C400.159 170.207 400.489 171.05 400.489 172.15C400.489 173.323 400.086 174.277 399.279 175.01C398.472 175.67 397.446 176 396.199 176H371.119ZM445.911 177.1C440.191 177.1 434.948 176.183 430.181 174.35C425.415 172.443 421.345 169.803 417.971 166.43C414.598 162.983 411.958 158.877 410.051 154.11C408.218 149.27 407.301 143.917 407.301 138.05C407.301 131.963 408.255 126.463 410.161 121.55C412.141 116.637 414.855 112.42 418.301 108.9C421.748 105.38 425.818 102.667 430.511 100.76C435.278 98.8533 440.448 97.9 446.021 97.9C450.128 97.9 454.015 98.4133 457.681 99.44C461.421 100.467 464.685 101.86 467.471 103.62C470.258 105.38 472.495 107.433 474.181 109.78C475.868 112.053 476.711 114.473 476.711 117.04C476.711 119.533 475.905 121.513 474.291 122.98C472.751 124.447 470.661 125.18 468.021 125.18C465.821 125.18 463.988 124.703 462.521 123.75C461.055 122.723 459.771 121.477 458.671 120.01C457.645 118.543 456.691 116.967 455.811 115.28C455.005 113.593 454.125 112.017 453.171 110.55C452.218 109.083 451.081 107.873 449.761 106.92C448.515 105.893 446.901 105.38 444.921 105.38C442.795 105.38 440.815 106.003 438.981 107.25C437.148 108.497 435.571 110.33 434.251 112.75C432.931 115.097 431.868 117.957 431.061 121.33C430.328 124.703 429.961 128.553 429.961 132.88C429.961 138.16 430.511 142.89 431.611 147.07C432.785 151.177 434.361 154.697 436.341 157.63C438.395 160.49 440.815 162.69 443.601 164.23C446.388 165.77 449.468 166.54 452.841 166.54C455.555 166.54 458.488 165.917 461.641 164.67C464.868 163.35 467.875 160.857 470.661 157.19C471.321 156.31 472.091 155.833 472.971 155.76C473.925 155.613 474.731 155.797 475.391 156.31C476.051 156.823 476.455 157.557 476.601 158.51C476.821 159.463 476.565 160.49 475.831 161.59C469.085 171.93 459.111 177.1 445.911 177.1ZM486.03 176C485.003 176 484.16 175.78 483.5 175.34C482.84 174.9 482.4 174.35 482.18 173.69C481.96 172.957 481.96 172.187 482.18 171.38C482.473 170.5 483.06 169.693 483.94 168.96C484.966 168.08 485.846 167.237 486.58 166.43C487.313 165.623 487.973 164.743 488.56 163.79C489.22 162.837 489.77 161.81 490.21 160.71C490.723 159.61 491.2 158.327 491.64 156.86L505.5 112.53C505.866 111.503 506.086 110.66 506.16 110C506.233 109.34 506.196 108.79 506.05 108.35C505.976 107.837 505.793 107.397 505.5 107.03C505.206 106.663 504.84 106.26 504.4 105.82C503.74 105.16 503.3 104.427 503.08 103.62C502.933 102.813 502.97 102.08 503.19 101.42C503.483 100.687 503.96 100.1 504.62 99.66C505.28 99.22 506.086 99 507.04 99H528.05C529.076 99 529.993 99.2933 530.8 99.88C531.606 100.467 532.156 101.237 532.45 102.19L552.14 164.23C552.58 165.55 553.386 166.797 554.56 167.97C555.733 169.07 556.723 169.95 557.53 170.61C558.116 171.123 558.483 171.71 558.63 172.37C558.85 172.957 558.813 173.543 558.52 174.13C558.3 174.643 557.86 175.083 557.2 175.45C556.54 175.817 555.696 176 554.67 176H530.69C529.223 176 528.233 175.45 527.72 174.35C527.28 173.25 527.573 172.077 528.6 170.83C529.186 170.097 529.7 169.437 530.14 168.85C530.653 168.263 531.02 167.677 531.24 167.09C531.46 166.503 531.57 165.843 531.57 165.11C531.57 164.377 531.423 163.533 531.13 162.58L528.27 153.56H500.88L499.34 158.29C498.606 160.637 498.606 162.727 499.34 164.56C500.073 166.393 501.723 168.52 504.29 170.94C504.803 171.453 505.133 172.003 505.28 172.59C505.426 173.177 505.39 173.727 505.17 174.24C505.023 174.753 504.693 175.193 504.18 175.56C503.666 175.853 503.043 176 502.31 176H486.03ZM503.3 145.64H525.85L516.17 114.73C515.876 113.85 515.363 113.373 514.63 113.3C513.97 113.227 513.456 113.703 513.09 114.73L503.3 145.64ZM138.47 287.1C132.75 287.1 127.507 286.183 122.74 284.35C117.973 282.443 113.903 279.803 110.53 276.43C107.157 272.983 104.517 268.877 102.61 264.11C100.777 259.27 99.86 253.917 99.86 248.05C99.86 241.963 100.813 236.463 102.72 231.55C104.7 226.637 107.413 222.42 110.86 218.9C114.307 215.38 118.377 212.667 123.07 210.76C127.837 208.853 133.007 207.9 138.58 207.9C142.687 207.9 146.573 208.413 150.24 209.44C153.98 210.467 157.243 211.86 160.03 213.62C162.817 215.38 165.053 217.433 166.74 219.78C168.427 222.053 169.27 224.473 169.27 227.04C169.27 229.533 168.463 231.513 166.85 232.98C165.31 234.447 163.22 235.18 160.58 235.18C158.38 235.18 156.547 234.703 155.08 233.75C153.613 232.723 152.33 231.477 151.23 230.01C150.203 228.543 149.25 226.967 148.37 225.28C147.563 223.593 146.683 222.017 145.73 220.55C144.777 219.083 143.64 217.873 142.32 216.92C141.073 215.893 139.46 215.38 137.48 215.38C135.353 215.38 133.373 216.003 131.54 217.25C129.707 218.497 128.13 220.33 126.81 222.75C125.49 225.097 124.427 227.957 123.62 231.33C122.887 234.703 122.52 238.553 122.52 242.88C122.52 248.16 123.07 252.89 124.17 257.07C125.343 261.177 126.92 264.697 128.9 267.63C130.953 270.49 133.373 272.69 136.16 274.23C138.947 275.77 142.027 276.54 145.4 276.54C148.113 276.54 151.047 275.917 154.2 274.67C157.427 273.35 160.433 270.857 163.22 267.19C163.88 266.31 164.65 265.833 165.53 265.76C166.483 265.613 167.29 265.797 167.95 266.31C168.61 266.823 169.013 267.557 169.16 268.51C169.38 269.463 169.123 270.49 168.39 271.59C161.643 281.93 151.67 287.1 138.47 287.1ZM179.908 286C178.662 286 177.635 285.67 176.828 285.01C176.022 284.277 175.618 283.323 175.618 282.15C175.618 281.05 175.948 280.207 176.608 279.62C177.268 278.96 178.002 278.337 178.808 277.75C179.615 277.09 180.348 276.393 181.008 275.66C181.668 274.853 181.998 273.79 181.998 272.47V222.53C181.998 221.21 181.668 220.183 181.008 219.45C180.348 218.643 179.615 217.947 178.808 217.36C178.002 216.7 177.268 216.077 176.608 215.49C175.948 214.83 175.618 213.95 175.618 212.85C175.618 211.677 176.022 210.76 176.828 210.1C177.635 209.367 178.662 209 179.908 209H204.988C206.235 209 207.262 209.367 208.068 210.1C208.875 210.76 209.278 211.677 209.278 212.85C209.278 213.95 208.948 214.83 208.288 215.49C207.628 216.077 206.895 216.7 206.088 217.36C205.282 217.947 204.548 218.643 203.888 219.45C203.228 220.183 202.898 221.21 202.898 222.53V241.56H227.318V222.53C227.318 221.21 226.988 220.183 226.328 219.45C225.668 218.643 224.935 217.947 224.128 217.36C223.322 216.7 222.588 216.077 221.928 215.49C221.268 214.83 220.938 213.95 220.938 212.85C220.938 211.677 221.342 210.76 222.148 210.1C222.955 209.367 223.982 209 225.228 209H250.308C251.555 209 252.582 209.367 253.388 210.1C254.195 210.76 254.598 211.677 254.598 212.85C254.598 213.95 254.268 214.83 253.608 215.49C252.948 216.077 252.215 216.7 251.408 217.36C250.602 217.947 249.868 218.643 249.208 219.45C248.548 220.183 248.218 221.21 248.218 222.53V272.47C248.218 273.79 248.548 274.853 249.208 275.66C249.868 276.393 250.602 277.09 251.408 277.75C252.215 278.337 252.948 278.96 253.608 279.62C254.268 280.207 254.598 281.05 254.598 282.15C254.598 283.323 254.195 284.277 253.388 285.01C252.582 285.67 251.555 286 250.308 286H225.228C223.982 286 222.955 285.67 222.148 285.01C221.342 284.277 220.938 283.323 220.938 282.15C220.938 281.05 221.268 280.207 221.928 279.62C222.588 278.96 223.322 278.337 224.128 277.75C224.935 277.09 225.668 276.393 226.328 275.66C226.988 274.853 227.318 273.79 227.318 272.47V249.48H202.898V272.47C202.898 273.79 203.228 274.853 203.888 275.66C204.548 276.393 205.282 277.09 206.088 277.75C206.895 278.337 207.628 278.96 208.288 279.62C208.948 280.207 209.278 281.05 209.278 282.15C209.278 283.323 208.875 284.277 208.068 285.01C207.262 285.67 206.235 286 204.988 286H179.908ZM300.143 287.1C294.789 287.1 289.766 286.183 285.073 284.35C280.379 282.443 276.273 279.803 272.753 276.43C269.233 272.983 266.446 268.877 264.393 264.11C262.413 259.343 261.423 254.063 261.423 248.27C261.423 242.403 262.449 237.013 264.503 232.1C266.556 227.187 269.379 222.933 272.973 219.34C276.566 215.747 280.783 212.96 285.623 210.98C290.536 208.927 295.779 207.9 301.353 207.9C306.706 207.9 311.729 208.853 316.423 210.76C321.116 212.593 325.223 215.233 328.743 218.68C332.263 222.053 335.013 226.123 336.993 230.89C339.046 235.657 340.073 240.937 340.073 246.73C340.073 252.523 339.046 257.913 336.993 262.9C334.939 267.813 332.116 272.067 328.523 275.66C324.929 279.253 320.676 282.077 315.763 284.13C310.923 286.11 305.716 287.1 300.143 287.1ZM301.793 279.29C306.926 279.29 310.813 276.87 313.453 272.03C316.093 267.117 317.413 259.857 317.413 250.25C317.413 239.177 315.909 230.67 312.903 224.73C309.896 218.717 305.643 215.71 300.143 215.71C295.156 215.71 291.233 218.167 288.373 223.08C285.513 227.92 284.083 235.143 284.083 244.75C284.083 255.897 285.586 264.44 288.593 270.38C291.673 276.32 296.073 279.29 301.793 279.29ZM349.379 286.11C348.132 286.11 347.105 285.78 346.299 285.12C345.492 284.387 345.089 283.507 345.089 282.48C345.089 281.307 345.492 280.39 346.299 279.73C347.179 279.07 348.132 278.447 349.159 277.86C350.185 277.2 351.102 276.503 351.909 275.77C352.789 274.963 353.229 273.9 353.229 272.58V218.46L348.719 212.96C347.912 212.007 347.692 211.127 348.059 210.32C348.499 209.44 349.342 209 350.589 209H369.839C371.452 209 372.809 209.66 373.909 210.98L404.049 248.05V222.53C404.049 221.21 403.609 220.183 402.729 219.45C401.922 218.643 401.005 217.947 399.979 217.36C398.952 216.7 397.999 216.04 397.119 215.38C396.312 214.72 395.909 213.803 395.909 212.63C395.909 211.603 396.312 210.76 397.119 210.1C397.925 209.367 398.952 209 400.199 209H415.819C417.065 209 418.092 209.367 418.899 210.1C419.705 210.76 420.109 211.603 420.109 212.63C420.109 213.803 419.669 214.72 418.789 215.38C417.982 216.04 417.065 216.7 416.039 217.36C415.012 217.947 414.059 218.643 413.179 219.45C412.372 220.183 411.969 221.21 411.969 222.53V283.91C411.969 285.23 411.419 286.037 410.319 286.33C409.219 286.623 408.229 286.22 407.349 285.12L361.149 228.25V272.58C361.149 273.9 361.552 274.963 362.359 275.77C363.239 276.503 364.192 277.2 365.219 277.86C366.245 278.447 367.162 279.07 367.969 279.73C368.849 280.39 369.289 281.307 369.289 282.48C369.289 283.507 368.885 284.387 368.079 285.12C367.272 285.78 366.245 286.11 364.999 286.11H349.379ZM462.989 287.1C457.342 287.1 452.136 286.22 447.369 284.46C442.676 282.7 438.606 280.17 435.159 276.87C431.786 273.57 429.146 269.573 427.239 264.88C425.406 260.113 424.489 254.797 424.489 248.93C424.489 243.063 425.442 237.637 427.349 232.65C429.329 227.59 432.079 223.227 435.599 219.56C439.119 215.893 443.299 213.033 448.139 210.98C453.052 208.927 458.442 207.9 464.309 207.9C468.416 207.9 472.302 208.377 475.969 209.33C479.709 210.283 482.972 211.567 485.759 213.18C488.546 214.72 490.782 216.553 492.469 218.68C494.156 220.733 494.999 222.933 494.999 225.28C494.999 227.627 494.192 229.497 492.579 230.89C490.966 232.283 488.839 232.98 486.199 232.98C484.146 232.98 482.422 232.54 481.029 231.66C479.709 230.78 478.499 229.717 477.399 228.47C476.372 227.15 475.419 225.72 474.539 224.18C473.659 222.64 472.706 221.247 471.679 220C470.726 218.68 469.589 217.58 468.269 216.7C466.949 215.82 465.336 215.38 463.429 215.38C461.009 215.38 458.809 216.113 456.829 217.58C454.849 218.973 453.126 220.953 451.659 223.52C450.266 226.087 449.166 229.167 448.359 232.76C447.552 236.28 447.149 240.203 447.149 244.53C447.149 255.823 448.836 264.44 452.209 270.38C455.656 276.32 460.386 279.29 466.399 279.29C472.852 279.29 476.079 276.027 476.079 269.5V257.29C476.079 255.97 475.749 254.943 475.089 254.21C474.429 253.403 473.696 252.707 472.889 252.12C472.082 251.46 471.349 250.837 470.689 250.25C470.029 249.59 469.699 248.71 469.699 247.61C469.699 246.437 470.102 245.52 470.909 244.86C471.716 244.127 472.742 243.76 473.989 243.76H498.409C499.656 243.76 500.682 244.127 501.489 244.86C502.296 245.52 502.699 246.437 502.699 247.61C502.699 248.71 502.369 249.59 501.709 250.25C501.049 250.837 500.316 251.46 499.509 252.12C498.702 252.707 497.969 253.403 497.309 254.21C496.649 254.943 496.319 255.97 496.319 257.29V283.91C496.319 284.863 496.026 285.523 495.439 285.89C494.852 286.183 494.119 286.11 493.239 285.67L489.169 283.58C488.142 282.993 487.006 282.7 485.759 282.7C484.512 282.7 483.339 282.92 482.239 283.36C478.792 284.753 475.529 285.707 472.449 286.22C469.369 286.807 466.216 287.1 462.989 287.1Z" fill="#3B3F64"/>
<defs>
<radialGradient id="paint0_radial_1929_15313" cx="0" cy="0" r="1" gradientUnits="userSpaceOnUse" gradientTransform="translate(340.138 170.628) rotate(90) scale(231.576 437.35)">
<stop stop-color="#FFC676" stop-opacity="0.2"/>
<stop offset="1" stop-color="white" stop-opacity="0"/>
</radialGradient>
</defs>
</svg>
