 <svg
              width="560"
              height="181"
              viewBox="0 0 560 181"
              fill="none"
              xmlns="http://www.w3.org/2000/svg"
            >
              <rect y="0.5" width="560" height="180" rx="20" fill="#F9F9F9" />
              <path
                d="M45.625 56.4375L53.125 63.9375L64.375 47.0625"
                stroke="#3E34F1"
                stroke-width="3"
                stroke-linecap="round"
                stroke-linejoin="round"
              />
              <path
                d="M87.89 63.5C87.61 63.5 87.38 63.44 87.2 63.32C87.02 63.2 86.9 63.05 86.84 62.87C86.78 62.67 86.78 62.46 86.84 62.24C86.92 62 87.08 61.78 87.32 61.58C87.6 61.34 87.84 61.11 88.04 60.89C88.24 60.67 88.42 60.43 88.58 60.17C88.76 59.91 88.91 59.63 89.03 59.33C89.17 59.03 89.3 58.68 89.42 58.28L93.2 46.19C93.3 45.91 93.36 45.68 93.38 45.5C93.4 45.32 93.39 45.17 93.35 45.05C93.33 44.91 93.28 44.79 93.2 44.69C93.12 44.59 93.02 44.48 92.9 44.36C92.72 44.18 92.6 43.98 92.54 43.76C92.5 43.54 92.51 43.34 92.57 43.16C92.65 42.96 92.78 42.8 92.96 42.68C93.14 42.56 93.36 42.5 93.62 42.5H99.35C99.63 42.5 99.88 42.58 100.1 42.74C100.32 42.9 100.47 43.11 100.55 43.37L105.92 60.29C106.04 60.65 106.26 60.99 106.58 61.31C106.9 61.61 107.17 61.85 107.39 62.03C107.55 62.17 107.65 62.33 107.69 62.51C107.75 62.67 107.74 62.83 107.66 62.99C107.6 63.13 107.48 63.25 107.3 63.35C107.12 63.45 106.89 63.5 106.61 63.5H100.07C99.67 63.5 99.4 63.35 99.26 63.05C99.14 62.75 99.22 62.43 99.5 62.09C99.66 61.89 99.8 61.71 99.92 61.55C100.06 61.39 100.16 61.23 100.22 61.07C100.28 60.91 100.31 60.73 100.31 60.53C100.31 60.33 100.27 60.1 100.19 59.84L99.41 57.38H91.94L91.52 58.67C91.32 59.31 91.32 59.88 91.52 60.38C91.72 60.88 92.17 61.46 92.87 62.12C93.01 62.26 93.1 62.41 93.14 62.57C93.18 62.73 93.17 62.88 93.11 63.02C93.07 63.16 92.98 63.28 92.84 63.38C92.7 63.46 92.53 63.5 92.33 63.5H87.89ZM92.6 55.22H98.75L96.11 46.79C96.03 46.55 95.89 46.42 95.69 46.4C95.51 46.38 95.37 46.51 95.27 46.79L92.6 55.22ZM114.296 63.8C113.556 63.8 112.866 63.65 112.226 63.35C111.586 63.05 111.026 62.61 110.546 62.03C110.066 61.45 109.686 60.74 109.406 59.9C109.126 59.04 108.986 58.06 108.986 56.96C108.986 55.64 109.186 54.44 109.586 53.36C109.986 52.28 110.536 51.36 111.236 50.6C111.956 49.84 112.786 49.25 113.726 48.83C114.666 48.41 115.676 48.2 116.756 48.2C117.196 48.2 117.606 48.25 117.986 48.35C118.366 48.43 118.716 48.55 119.036 48.71V45.56C119.036 45.22 118.946 44.96 118.766 44.78C118.606 44.58 118.426 44.41 118.226 44.27C118.026 44.11 117.836 43.95 117.656 43.79C117.496 43.63 117.416 43.41 117.416 43.13C117.416 42.83 117.516 42.6 117.716 42.44C117.916 42.28 118.176 42.18 118.496 42.14L123.146 41.54C123.486 41.5 123.756 41.57 123.956 41.75C124.156 41.91 124.256 42.16 124.256 42.5V59.66C124.256 60 124.336 60.27 124.496 60.47C124.676 60.65 124.866 60.82 125.066 60.98C125.266 61.12 125.446 61.27 125.606 61.43C125.786 61.59 125.876 61.81 125.876 62.09C125.876 62.39 125.776 62.62 125.576 62.78C125.376 62.94 125.116 63.04 124.796 63.08L119.906 63.77C119.646 63.81 119.436 63.76 119.276 63.62C119.116 63.5 119.036 63.3 119.036 63.02V61.19C118.536 62.01 117.866 62.65 117.026 63.11C116.206 63.57 115.296 63.8 114.296 63.8ZM117.446 60.11C118.106 60.11 118.636 59.91 119.036 59.51V53.06C119.036 52.18 118.866 51.44 118.526 50.84C118.206 50.24 117.696 49.94 116.996 49.94C116.156 49.94 115.516 50.4 115.076 51.32C114.636 52.22 114.416 53.47 114.416 55.07C114.416 56.67 114.676 57.91 115.196 58.79C115.736 59.67 116.486 60.11 117.446 60.11ZM132.343 63.8C131.603 63.8 130.913 63.65 130.273 63.35C129.633 63.05 129.073 62.61 128.593 62.03C128.113 61.45 127.733 60.74 127.453 59.9C127.173 59.04 127.033 58.06 127.033 56.96C127.033 55.64 127.233 54.44 127.633 53.36C128.033 52.28 128.583 51.36 129.283 50.6C130.003 49.84 130.833 49.25 131.773 48.83C132.713 48.41 133.723 48.2 134.803 48.2C135.243 48.2 135.653 48.25 136.033 48.35C136.413 48.43 136.763 48.55 137.083 48.71V45.56C137.083 45.22 136.993 44.96 136.813 44.78C136.653 44.58 136.473 44.41 136.273 44.27C136.073 44.11 135.883 43.95 135.703 43.79C135.543 43.63 135.463 43.41 135.463 43.13C135.463 42.83 135.563 42.6 135.763 42.44C135.963 42.28 136.223 42.18 136.543 42.14L141.193 41.54C141.533 41.5 141.803 41.57 142.003 41.75C142.203 41.91 142.303 42.16 142.303 42.5V59.66C142.303 60 142.383 60.27 142.543 60.47C142.723 60.65 142.913 60.82 143.113 60.98C143.313 61.12 143.493 61.27 143.653 61.43C143.833 61.59 143.923 61.81 143.923 62.09C143.923 62.39 143.823 62.62 143.623 62.78C143.423 62.94 143.163 63.04 142.843 63.08L137.953 63.77C137.693 63.81 137.483 63.76 137.323 63.62C137.163 63.5 137.083 63.3 137.083 63.02V61.19C136.583 62.01 135.913 62.65 135.073 63.11C134.253 63.57 133.343 63.8 132.343 63.8ZM135.493 60.11C136.153 60.11 136.683 59.91 137.083 59.51V53.06C137.083 52.18 136.913 51.44 136.573 50.84C136.253 50.24 135.743 49.94 135.043 49.94C134.203 49.94 133.563 50.4 133.123 51.32C132.683 52.22 132.463 53.47 132.463 55.07C132.463 56.67 132.723 57.91 133.243 58.79C133.783 59.67 134.533 60.11 135.493 60.11ZM150.396 49.46C150.396 49.34 150.446 49.23 150.546 49.13L155.856 44.57C156.196 44.29 156.526 44.23 156.846 44.39C157.166 44.53 157.326 44.76 157.326 45.08V48.5H160.266C160.546 48.5 160.686 48.64 160.686 48.92V49.94C160.686 50.22 160.546 50.36 160.266 50.36H157.326V58.61C157.326 59.33 157.506 59.89 157.866 60.29C158.226 60.69 158.686 60.89 159.246 60.89C159.586 60.89 159.926 60.82 160.266 60.68C160.466 60.6 160.626 60.64 160.746 60.8C160.886 60.96 160.906 61.15 160.806 61.37C160.466 62.21 159.916 62.83 159.156 63.23C158.416 63.61 157.556 63.8 156.576 63.8C155.256 63.8 154.176 63.42 153.336 62.66C152.516 61.9 152.106 60.8 152.106 59.36V50.36H150.816C150.536 50.36 150.396 50.22 150.396 49.94V49.46ZM169.695 63.8C168.555 63.8 167.505 63.62 166.545 63.26C165.585 62.88 164.755 62.36 164.055 61.7C163.375 61.02 162.845 60.21 162.465 59.27C162.085 58.33 161.895 57.29 161.895 56.15C161.895 55.01 162.085 53.95 162.465 52.97C162.865 51.99 163.415 51.15 164.115 50.45C164.835 49.75 165.685 49.2 166.665 48.8C167.645 48.4 168.735 48.2 169.935 48.2C171.075 48.2 172.125 48.39 173.085 48.77C174.045 49.13 174.865 49.65 175.545 50.33C176.245 50.99 176.785 51.79 177.165 52.73C177.545 53.67 177.735 54.71 177.735 55.85C177.735 56.99 177.535 58.05 177.135 59.03C176.755 60.01 176.205 60.85 175.485 61.55C174.785 62.25 173.945 62.8 172.965 63.2C171.985 63.6 170.895 63.8 169.695 63.8ZM169.905 62.12C170.665 62.12 171.225 61.67 171.585 60.77C171.965 59.87 172.155 58.46 172.155 56.54C172.155 54.34 171.945 52.68 171.525 51.56C171.125 50.44 170.525 49.88 169.725 49.88C168.965 49.88 168.395 50.33 168.015 51.23C167.655 52.13 167.475 53.54 167.475 55.46C167.475 57.66 167.675 59.32 168.075 60.44C168.495 61.56 169.105 62.12 169.905 62.12ZM193.468 63.8C193.228 63.8 193.058 63.68 192.958 63.44L186.568 45.71C186.468 45.47 186.288 45.2 186.028 44.9C185.788 44.58 185.478 44.27 185.098 43.97C184.938 43.83 184.828 43.68 184.768 43.52C184.728 43.34 184.738 43.18 184.798 43.04C184.878 42.88 185.008 42.75 185.188 42.65C185.368 42.55 185.598 42.5 185.878 42.5H192.898C193.098 42.5 193.268 42.55 193.408 42.65C193.548 42.73 193.648 42.84 193.708 42.98C193.768 43.12 193.778 43.28 193.738 43.46C193.718 43.62 193.628 43.77 193.468 43.91C193.008 44.33 192.748 44.73 192.688 45.11C192.628 45.47 192.668 45.84 192.808 46.22L195.538 54.08L198.478 46.55L198.118 45.71C197.998 45.43 197.808 45.14 197.548 44.84C197.288 44.54 196.988 44.25 196.648 43.97C196.488 43.83 196.378 43.68 196.318 43.52C196.278 43.34 196.288 43.18 196.348 43.04C196.428 42.88 196.558 42.75 196.738 42.65C196.918 42.55 197.148 42.5 197.428 42.5H204.268C204.468 42.5 204.638 42.55 204.778 42.65C204.918 42.73 205.018 42.84 205.078 42.98C205.138 43.12 205.148 43.28 205.108 43.46C205.088 43.62 204.998 43.77 204.838 43.91C204.378 44.33 204.108 44.73 204.028 45.11C203.968 45.47 204.018 45.84 204.178 46.22L207.478 54.29L209.788 47.33C210.008 46.71 210.008 46.15 209.788 45.65C209.588 45.15 209.138 44.56 208.438 43.88C208.298 43.74 208.208 43.59 208.168 43.43C208.128 43.27 208.128 43.12 208.168 42.98C208.228 42.84 208.328 42.73 208.468 42.65C208.608 42.55 208.778 42.5 208.978 42.5H213.508C213.808 42.5 214.048 42.56 214.228 42.68C214.408 42.8 214.528 42.96 214.587 43.16C214.648 43.34 214.638 43.55 214.558 43.79C214.478 44.01 214.318 44.22 214.078 44.42C213.598 44.82 213.168 45.24 212.788 45.68C212.428 46.1 212.118 46.69 211.858 47.45L206.518 63.44C206.458 63.68 206.288 63.8 206.008 63.8C205.768 63.8 205.598 63.69 205.498 63.47L199.587 49.19L194.008 63.44C193.908 63.68 193.728 63.8 193.468 63.8ZM220.062 63.8C219.462 63.8 218.902 63.7 218.382 63.5C217.862 63.32 217.412 63.06 217.032 62.72C216.652 62.38 216.352 61.98 216.132 61.52C215.912 61.04 215.802 60.51 215.802 59.93C215.802 59.21 215.982 58.51 216.342 57.83C216.702 57.15 217.242 56.52 217.962 55.94C218.682 55.36 219.582 54.85 220.662 54.41C221.762 53.97 223.042 53.64 224.502 53.42V52.19C224.502 51.45 224.372 50.92 224.112 50.6C223.852 50.26 223.492 50.09 223.032 50.09C222.492 50.09 222.062 50.28 221.742 50.66C221.422 51.02 221.112 51.42 220.812 51.86C220.512 52.3 220.182 52.71 219.822 53.09C219.462 53.45 218.962 53.63 218.322 53.63C217.742 53.63 217.272 53.47 216.912 53.15C216.552 52.81 216.372 52.37 216.372 51.83C216.372 51.33 216.572 50.86 216.972 50.42C217.392 49.98 217.942 49.6 218.622 49.28C219.302 48.94 220.062 48.68 220.902 48.5C221.762 48.3 222.622 48.2 223.482 48.2C225.482 48.2 227.012 48.61 228.072 49.43C229.132 50.23 229.662 51.38 229.662 52.88V59.9C229.662 60.2 229.732 60.44 229.872 60.62C230.012 60.8 230.202 60.89 230.442 60.89C230.662 60.89 230.912 60.82 231.192 60.68C231.352 60.6 231.482 60.64 231.582 60.8C231.702 60.94 231.722 61.13 231.642 61.37C231.522 61.79 231.332 62.16 231.072 62.48C230.832 62.78 230.552 63.03 230.232 63.23C229.912 63.43 229.562 63.57 229.182 63.65C228.802 63.75 228.422 63.8 228.042 63.8C227.202 63.8 226.442 63.58 225.762 63.14C225.082 62.7 224.672 62.03 224.532 61.13C224.072 61.99 223.452 62.65 222.672 63.11C221.892 63.57 221.022 63.8 220.062 63.8ZM222.702 60.41C223.042 60.41 223.372 60.31 223.692 60.11C224.012 59.89 224.282 59.54 224.502 59.06V54.89C223.382 55.19 222.522 55.66 221.922 56.3C221.342 56.92 221.052 57.63 221.052 58.43C221.052 59.07 221.212 59.56 221.532 59.9C221.872 60.24 222.262 60.41 222.702 60.41ZM231.665 49.46C231.665 49.34 231.715 49.23 231.815 49.13L237.125 44.57C237.465 44.29 237.795 44.23 238.115 44.39C238.435 44.53 238.595 44.76 238.595 45.08V48.5H241.535C241.815 48.5 241.955 48.64 241.955 48.92V49.94C241.955 50.22 241.815 50.36 241.535 50.36H238.595V58.61C238.595 59.33 238.775 59.89 239.135 60.29C239.495 60.69 239.955 60.89 240.515 60.89C240.855 60.89 241.195 60.82 241.535 60.68C241.735 60.6 241.895 60.64 242.015 60.8C242.155 60.96 242.175 61.15 242.075 61.37C241.735 62.21 241.185 62.83 240.425 63.23C239.685 63.61 238.825 63.8 237.845 63.8C236.525 63.8 235.445 63.42 234.605 62.66C233.785 61.9 233.375 60.8 233.375 59.36V50.36H232.085C231.805 50.36 231.665 50.22 231.665 49.94V49.46ZM250.485 63.8C249.445 63.8 248.475 63.61 247.575 63.23C246.675 62.85 245.895 62.33 245.235 61.67C244.595 60.99 244.085 60.19 243.705 59.27C243.345 58.33 243.165 57.32 243.165 56.24C243.165 55.04 243.355 53.95 243.735 52.97C244.135 51.97 244.665 51.12 245.325 50.42C245.985 49.72 246.745 49.18 247.605 48.8C248.485 48.4 249.405 48.2 250.365 48.2C251.165 48.2 251.915 48.31 252.615 48.53C253.335 48.75 253.965 49.06 254.505 49.46C255.045 49.84 255.475 50.29 255.795 50.81C256.115 51.33 256.275 51.88 256.275 52.46C256.275 53.1 256.105 53.63 255.765 54.05C255.445 54.45 254.965 54.65 254.325 54.65C253.865 54.65 253.475 54.54 253.155 54.32C252.855 54.08 252.595 53.79 252.375 53.45C252.175 53.11 251.995 52.75 251.835 52.37C251.675 51.97 251.495 51.6 251.295 51.26C251.115 50.92 250.905 50.64 250.665 50.42C250.425 50.18 250.115 50.06 249.735 50.06C249.115 50.06 248.615 50.38 248.235 51.02C247.855 51.64 247.665 52.46 247.665 53.48C247.665 54.36 247.805 55.18 248.085 55.94C248.385 56.68 248.775 57.33 249.255 57.89C249.735 58.43 250.295 58.86 250.935 59.18C251.575 59.48 252.245 59.63 252.945 59.63C253.685 59.63 254.455 59.45 255.255 59.09C255.535 58.95 255.765 58.95 255.945 59.09C256.125 59.21 256.195 59.41 256.155 59.69C256.055 60.31 255.845 60.87 255.525 61.37C255.205 61.87 254.795 62.3 254.295 62.66C253.795 63.02 253.225 63.3 252.585 63.5C251.945 63.7 251.245 63.8 250.485 63.8ZM258.447 63.5C258.127 63.5 257.867 63.41 257.667 63.23C257.467 63.05 257.367 62.82 257.367 62.54C257.367 62.26 257.447 62.04 257.607 61.88C257.787 61.72 257.977 61.57 258.177 61.43C258.377 61.27 258.557 61.1 258.717 60.92C258.897 60.72 258.987 60.45 258.987 60.11V45.56C258.987 45.22 258.897 44.96 258.717 44.78C258.557 44.58 258.377 44.41 258.177 44.27C257.977 44.11 257.787 43.95 257.607 43.79C257.447 43.63 257.367 43.41 257.367 43.13C257.367 42.83 257.467 42.6 257.667 42.44C257.867 42.28 258.127 42.18 258.447 42.14L263.097 41.54C263.437 41.5 263.707 41.57 263.907 41.75C264.107 41.91 264.207 42.16 264.207 42.5V51.32C264.847 50.36 265.627 49.6 266.547 49.04C267.487 48.48 268.467 48.2 269.487 48.2C270.687 48.2 271.637 48.58 272.337 49.34C273.037 50.08 273.387 51.2 273.387 52.7V60.11C273.387 60.45 273.467 60.72 273.627 60.92C273.807 61.1 273.987 61.27 274.167 61.43C274.367 61.57 274.547 61.72 274.707 61.88C274.887 62.04 274.977 62.26 274.977 62.54C274.977 62.82 274.877 63.05 274.677 63.23C274.497 63.41 274.237 63.5 273.897 63.5H267.627C267.307 63.5 267.047 63.41 266.847 63.23C266.647 63.05 266.547 62.82 266.547 62.54C266.547 62.26 266.627 62.04 266.787 61.88C266.967 61.72 267.157 61.57 267.357 61.43C267.557 61.27 267.737 61.1 267.897 60.92C268.077 60.72 268.167 60.45 268.167 60.11V54.59C268.167 53.67 268.007 53.03 267.687 52.67C267.367 52.29 266.917 52.1 266.337 52.1C265.937 52.1 265.547 52.17 265.167 52.31C264.807 52.43 264.487 52.6 264.207 52.82V60.11C264.207 60.45 264.287 60.72 264.447 60.92C264.627 61.1 264.807 61.27 264.987 61.43C265.187 61.57 265.367 61.72 265.527 61.88C265.707 62.04 265.797 62.26 265.797 62.54C265.797 62.82 265.697 63.05 265.497 63.23C265.317 63.41 265.057 63.5 264.717 63.5H258.447ZM276.875 63.5C276.555 63.5 276.295 63.41 276.095 63.23C275.895 63.05 275.795 62.82 275.795 62.54C275.795 62.26 275.875 62.04 276.035 61.88C276.215 61.72 276.405 61.57 276.605 61.43C276.805 61.27 276.985 61.1 277.145 60.92C277.325 60.72 277.415 60.45 277.415 60.11V45.56C277.415 45.22 277.325 44.96 277.145 44.78C276.985 44.58 276.805 44.41 276.605 44.27C276.405 44.11 276.215 43.95 276.035 43.79C275.875 43.63 275.795 43.41 275.795 43.13C275.795 42.83 275.895 42.6 276.095 42.44C276.295 42.28 276.555 42.18 276.875 42.14L281.525 41.54C281.865 41.5 282.135 41.57 282.335 41.75C282.535 41.91 282.635 42.16 282.635 42.5V60.11C282.635 60.45 282.715 60.72 282.875 60.92C283.055 61.1 283.235 61.27 283.415 61.43C283.615 61.57 283.795 61.72 283.955 61.88C284.135 62.04 284.225 62.26 284.225 62.54C284.225 62.82 284.125 63.05 283.925 63.23C283.745 63.41 283.485 63.5 283.145 63.5H276.875ZM286.282 63.5C285.962 63.5 285.702 63.41 285.502 63.23C285.302 63.05 285.202 62.82 285.202 62.54C285.202 62.26 285.282 62.04 285.442 61.88C285.622 61.72 285.812 61.57 286.012 61.43C286.212 61.27 286.392 61.1 286.552 60.92C286.732 60.72 286.822 60.45 286.822 60.11V52.37C286.822 52.03 286.732 51.77 286.552 51.59C286.392 51.39 286.212 51.22 286.012 51.08C285.812 50.92 285.622 50.76 285.442 50.6C285.282 50.44 285.202 50.22 285.202 49.94C285.202 49.64 285.302 49.41 285.502 49.25C285.702 49.09 285.962 48.99 286.282 48.95L290.932 48.35C291.272 48.31 291.542 48.38 291.742 48.56C291.942 48.72 292.042 48.97 292.042 49.31V60.11C292.042 60.45 292.122 60.72 292.282 60.92C292.462 61.1 292.642 61.27 292.822 61.43C293.022 61.57 293.202 61.72 293.362 61.88C293.542 62.04 293.632 62.26 293.632 62.54C293.632 62.82 293.532 63.05 293.332 63.23C293.152 63.41 292.892 63.5 292.552 63.5H286.282ZM289.252 47.09C288.412 47.09 287.712 46.82 287.152 46.28C286.592 45.74 286.312 45.05 286.312 44.21C286.312 43.37 286.592 42.68 287.152 42.14C287.712 41.6 288.412 41.33 289.252 41.33C290.092 41.33 290.792 41.6 291.352 42.14C291.912 42.68 292.192 43.37 292.192 44.21C292.192 45.05 291.912 45.74 291.352 46.28C290.792 46.82 290.092 47.09 289.252 47.09ZM301.146 63.8C300.186 63.8 299.306 63.71 298.506 63.53C297.726 63.37 297.046 63.14 296.466 62.84C295.906 62.52 295.466 62.14 295.146 61.7C294.826 61.24 294.666 60.74 294.666 60.2C294.666 59.62 294.836 59.17 295.176 58.85C295.516 58.51 295.966 58.34 296.526 58.34C296.946 58.34 297.306 58.43 297.606 58.61C297.926 58.79 298.206 59.01 298.446 59.27C298.686 59.53 298.916 59.82 299.136 60.14C299.356 60.46 299.596 60.75 299.856 61.01C300.116 61.27 300.406 61.49 300.726 61.67C301.066 61.85 301.466 61.94 301.926 61.94C302.426 61.94 302.816 61.84 303.096 61.64C303.376 61.42 303.516 61.11 303.516 60.71C303.516 60.31 303.316 59.97 302.916 59.69C302.536 59.39 301.796 59.04 300.696 58.64L298.536 57.83C296.136 56.95 294.936 55.42 294.936 53.24C294.936 52.52 295.086 51.85 295.386 51.23C295.686 50.61 296.106 50.08 296.646 49.64C297.186 49.18 297.826 48.83 298.566 48.59C299.326 48.33 300.166 48.2 301.086 48.2C301.846 48.2 302.576 48.29 303.276 48.47C303.976 48.63 304.596 48.87 305.136 49.19C305.676 49.49 306.106 49.85 306.426 50.27C306.746 50.69 306.906 51.14 306.906 51.62C306.906 52.1 306.746 52.48 306.426 52.76C306.106 53.04 305.676 53.18 305.136 53.18C304.536 53.18 304.056 53.02 303.696 52.7C303.356 52.38 303.046 52.03 302.766 51.65C302.486 51.27 302.166 50.92 301.806 50.6C301.466 50.28 300.996 50.12 300.396 50.12C299.916 50.12 299.546 50.23 299.286 50.45C299.026 50.67 298.896 50.98 298.896 51.38C298.896 51.74 299.026 52.05 299.286 52.31C299.566 52.55 300.036 52.8 300.696 53.06L303.366 54.08C304.746 54.6 305.756 55.18 306.396 55.82C307.036 56.44 307.356 57.31 307.356 58.43C307.356 59.23 307.206 59.96 306.906 60.62C306.606 61.28 306.186 61.85 305.646 62.33C305.106 62.79 304.456 63.15 303.696 63.41C302.936 63.67 302.086 63.8 301.146 63.8ZM307.955 49.46C307.955 49.34 308.005 49.23 308.105 49.13L313.415 44.57C313.755 44.29 314.085 44.23 314.405 44.39C314.725 44.53 314.885 44.76 314.885 45.08V48.5H317.825C318.105 48.5 318.245 48.64 318.245 48.92V49.94C318.245 50.22 318.105 50.36 317.825 50.36H314.885V58.61C314.885 59.33 315.065 59.89 315.425 60.29C315.785 60.69 316.245 60.89 316.805 60.89C317.145 60.89 317.485 60.82 317.825 60.68C318.025 60.6 318.185 60.64 318.305 60.8C318.445 60.96 318.465 61.15 318.365 61.37C318.025 62.21 317.475 62.83 316.715 63.23C315.975 63.61 315.115 63.8 314.135 63.8C312.815 63.8 311.735 63.42 310.895 62.66C310.075 61.9 309.665 60.8 309.665 59.36V50.36H308.375C308.095 50.36 307.955 50.22 307.955 49.94V49.46ZM327.02 63.5C326.68 63.5 326.4 63.41 326.18 63.23C325.96 63.03 325.85 62.77 325.85 62.45C325.85 62.15 325.94 61.92 326.12 61.76C326.3 61.58 326.5 61.41 326.72 61.25C326.94 61.07 327.14 60.88 327.32 60.68C327.5 60.46 327.59 60.17 327.59 59.81V46.19C327.59 45.83 327.5 45.55 327.32 45.35C327.14 45.13 326.94 44.94 326.72 44.78C326.5 44.6 326.3 44.43 326.12 44.27C325.94 44.09 325.85 43.85 325.85 43.55C325.85 43.23 325.96 42.98 326.18 42.8C326.4 42.6 326.68 42.5 327.02 42.5H339.74C339.88 42.5 340.08 42.46 340.34 42.38C340.62 42.3 340.92 42.21 341.24 42.11C341.5 42.01 341.74 42.02 341.96 42.14C342.18 42.24 342.3 42.46 342.32 42.8L342.5 47.09C342.5 47.29 342.45 47.46 342.35 47.6C342.27 47.72 342.15 47.8 341.99 47.84C341.85 47.88 341.7 47.87 341.54 47.81C341.38 47.75 341.24 47.63 341.12 47.45C340.64 46.77 340.14 46.25 339.62 45.89C339.12 45.51 338.61 45.23 338.09 45.05C337.57 44.87 337.04 44.76 336.5 44.72C335.98 44.68 335.46 44.66 334.94 44.66H333.29V51.38H335.87C336.21 51.38 336.49 51.27 336.71 51.05C336.95 50.83 337.15 50.57 337.31 50.27C337.47 49.97 337.61 49.68 337.73 49.4C337.85 49.1 337.98 48.88 338.12 48.74C338.32 48.54 338.55 48.44 338.81 48.44C339.03 48.44 339.21 48.52 339.35 48.68C339.49 48.82 339.56 49.01 339.56 49.25V55.61C339.56 55.85 339.49 56.05 339.35 56.21C339.21 56.35 339.03 56.42 338.81 56.42C338.55 56.42 338.32 56.32 338.12 56.12C337.98 55.98 337.85 55.77 337.73 55.49C337.61 55.19 337.47 54.89 337.31 54.59C337.15 54.29 336.95 54.03 336.71 53.81C336.49 53.59 336.21 53.48 335.87 53.48H333.29V61.34H335.33C335.85 61.34 336.37 61.3 336.89 61.22C337.43 61.12 337.96 60.95 338.48 60.71C339.02 60.45 339.55 60.1 340.07 59.66C340.59 59.22 341.08 58.66 341.54 57.98C341.66 57.82 341.79 57.72 341.93 57.68C342.09 57.62 342.24 57.61 342.38 57.65C342.54 57.69 342.66 57.77 342.74 57.89C342.84 58.01 342.89 58.16 342.89 58.34L342.71 63.2C342.69 63.54 342.57 63.76 342.35 63.86C342.13 63.98 341.89 63.99 341.63 63.89C341.31 63.79 341.01 63.7 340.73 63.62C340.47 63.54 340.27 63.5 340.13 63.5H327.02ZM349.232 63.8C348.632 63.8 348.072 63.7 347.552 63.5C347.032 63.32 346.582 63.06 346.202 62.72C345.822 62.38 345.522 61.98 345.302 61.52C345.082 61.04 344.972 60.51 344.972 59.93C344.972 59.21 345.152 58.51 345.512 57.83C345.872 57.15 346.412 56.52 347.132 55.94C347.852 55.36 348.752 54.85 349.832 54.41C350.932 53.97 352.212 53.64 353.672 53.42V52.19C353.672 51.45 353.542 50.92 353.282 50.6C353.022 50.26 352.662 50.09 352.202 50.09C351.662 50.09 351.232 50.28 350.912 50.66C350.592 51.02 350.282 51.42 349.982 51.86C349.682 52.3 349.352 52.71 348.992 53.09C348.632 53.45 348.132 53.63 347.492 53.63C346.912 53.63 346.442 53.47 346.082 53.15C345.722 52.81 345.542 52.37 345.542 51.83C345.542 51.33 345.742 50.86 346.142 50.42C346.562 49.98 347.112 49.6 347.792 49.28C348.472 48.94 349.232 48.68 350.072 48.5C350.932 48.3 351.792 48.2 352.652 48.2C354.652 48.2 356.182 48.61 357.242 49.43C358.302 50.23 358.832 51.38 358.832 52.88V59.9C358.832 60.2 358.902 60.44 359.042 60.62C359.182 60.8 359.372 60.89 359.612 60.89C359.832 60.89 360.082 60.82 360.362 60.68C360.522 60.6 360.652 60.64 360.752 60.8C360.872 60.94 360.892 61.13 360.812 61.37C360.692 61.79 360.502 62.16 360.242 62.48C360.002 62.78 359.722 63.03 359.402 63.23C359.082 63.43 358.732 63.57 358.352 63.65C357.972 63.75 357.592 63.8 357.212 63.8C356.372 63.8 355.612 63.58 354.932 63.14C354.252 62.7 353.842 62.03 353.702 61.13C353.242 61.99 352.622 62.65 351.842 63.11C351.062 63.57 350.192 63.8 349.232 63.8ZM351.872 60.41C352.212 60.41 352.542 60.31 352.862 60.11C353.182 59.89 353.452 59.54 353.672 59.06V54.89C352.552 55.19 351.692 55.66 351.092 56.3C350.512 56.92 350.222 57.63 350.222 58.43C350.222 59.07 350.382 59.56 350.702 59.9C351.042 60.24 351.432 60.41 351.872 60.41ZM367.825 63.8C366.865 63.8 365.985 63.71 365.185 63.53C364.405 63.37 363.725 63.14 363.145 62.84C362.585 62.52 362.145 62.14 361.825 61.7C361.505 61.24 361.345 60.74 361.345 60.2C361.345 59.62 361.515 59.17 361.855 58.85C362.195 58.51 362.645 58.34 363.205 58.34C363.625 58.34 363.985 58.43 364.285 58.61C364.605 58.79 364.885 59.01 365.125 59.27C365.365 59.53 365.595 59.82 365.815 60.14C366.035 60.46 366.275 60.75 366.535 61.01C366.795 61.27 367.085 61.49 367.405 61.67C367.745 61.85 368.145 61.94 368.605 61.94C369.105 61.94 369.495 61.84 369.775 61.64C370.055 61.42 370.195 61.11 370.195 60.71C370.195 60.31 369.995 59.97 369.595 59.69C369.215 59.39 368.475 59.04 367.375 58.64L365.215 57.83C362.815 56.95 361.615 55.42 361.615 53.24C361.615 52.52 361.765 51.85 362.065 51.23C362.365 50.61 362.785 50.08 363.325 49.64C363.865 49.18 364.505 48.83 365.245 48.59C366.005 48.33 366.845 48.2 367.765 48.2C368.525 48.2 369.255 48.29 369.955 48.47C370.655 48.63 371.275 48.87 371.815 49.19C372.355 49.49 372.785 49.85 373.105 50.27C373.425 50.69 373.585 51.14 373.585 51.62C373.585 52.1 373.425 52.48 373.105 52.76C372.785 53.04 372.355 53.18 371.815 53.18C371.215 53.18 370.735 53.02 370.375 52.7C370.035 52.38 369.725 52.03 369.445 51.65C369.165 51.27 368.845 50.92 368.485 50.6C368.145 50.28 367.675 50.12 367.075 50.12C366.595 50.12 366.225 50.23 365.965 50.45C365.705 50.67 365.575 50.98 365.575 51.38C365.575 51.74 365.705 52.05 365.965 52.31C366.245 52.55 366.715 52.8 367.375 53.06L370.045 54.08C371.425 54.6 372.435 55.18 373.075 55.82C373.715 56.44 374.035 57.31 374.035 58.43C374.035 59.23 373.885 59.96 373.585 60.62C373.285 61.28 372.865 61.85 372.325 62.33C371.785 62.79 371.135 63.15 370.375 63.41C369.615 63.67 368.765 63.8 367.825 63.8ZM376.194 63.5C375.874 63.5 375.614 63.41 375.414 63.23C375.214 63.05 375.114 62.82 375.114 62.54C375.114 62.26 375.194 62.04 375.354 61.88C375.534 61.72 375.724 61.57 375.924 61.43C376.124 61.27 376.304 61.1 376.464 60.92C376.644 60.72 376.734 60.45 376.734 60.11V52.37C376.734 52.03 376.644 51.77 376.464 51.59C376.304 51.39 376.124 51.22 375.924 51.08C375.724 50.92 375.534 50.76 375.354 50.6C375.194 50.44 375.114 50.22 375.114 49.94C375.114 49.64 375.214 49.41 375.414 49.25C375.614 49.09 375.874 48.99 376.194 48.95L380.844 48.35C381.184 48.31 381.454 48.38 381.654 48.56C381.854 48.72 381.954 48.97 381.954 49.31V60.11C381.954 60.45 382.034 60.72 382.194 60.92C382.374 61.1 382.554 61.27 382.734 61.43C382.934 61.57 383.114 61.72 383.274 61.88C383.454 62.04 383.544 62.26 383.544 62.54C383.544 62.82 383.444 63.05 383.244 63.23C383.064 63.41 382.804 63.5 382.464 63.5H376.194ZM379.164 47.09C378.324 47.09 377.624 46.82 377.064 46.28C376.504 45.74 376.224 45.05 376.224 44.21C376.224 43.37 376.504 42.68 377.064 42.14C377.624 41.6 378.324 41.33 379.164 41.33C380.004 41.33 380.704 41.6 381.264 42.14C381.824 42.68 382.104 43.37 382.104 44.21C382.104 45.05 381.824 45.74 381.264 46.28C380.704 46.82 380.004 47.09 379.164 47.09ZM385.508 63.5C385.188 63.5 384.928 63.41 384.728 63.23C384.528 63.05 384.428 62.82 384.428 62.54C384.428 62.26 384.508 62.04 384.668 61.88C384.848 61.72 385.038 61.57 385.238 61.43C385.438 61.27 385.618 61.1 385.778 60.92C385.958 60.72 386.048 60.45 386.048 60.11V45.56C386.048 45.22 385.958 44.96 385.778 44.78C385.618 44.58 385.438 44.41 385.238 44.27C385.038 44.11 384.848 43.95 384.668 43.79C384.508 43.63 384.428 43.41 384.428 43.13C384.428 42.83 384.528 42.6 384.728 42.44C384.928 42.28 385.188 42.18 385.508 42.14L390.158 41.54C390.498 41.5 390.768 41.57 390.968 41.75C391.168 41.91 391.268 42.16 391.268 42.5V60.11C391.268 60.45 391.348 60.72 391.508 60.92C391.688 61.1 391.868 61.27 392.048 61.43C392.248 61.57 392.428 61.72 392.588 61.88C392.768 62.04 392.858 62.26 392.858 62.54C392.858 62.82 392.758 63.05 392.558 63.23C392.378 63.41 392.118 63.5 391.778 63.5H385.508ZM396.145 69.8C395.345 69.8 394.745 69.58 394.345 69.14C393.945 68.72 393.745 68.24 393.745 67.7C393.745 67.1 393.995 66.54 394.495 66.02C395.015 65.5 395.795 65.24 396.835 65.24C397.135 65.24 397.425 65.25 397.705 65.27C398.005 65.31 398.285 65.31 398.545 65.27C398.825 65.25 399.075 65.16 399.295 65C399.515 64.86 399.695 64.62 399.835 64.28L400.315 63.17L395.095 52.01C394.995 51.79 394.825 51.53 394.585 51.23C394.345 50.93 394.045 50.64 393.685 50.36C393.485 50.2 393.355 50.02 393.295 49.82C393.255 49.6 393.265 49.4 393.325 49.22C393.385 49.02 393.495 48.85 393.655 48.71C393.815 48.57 394.015 48.5 394.255 48.5H401.065C401.285 48.5 401.465 48.57 401.605 48.71C401.745 48.83 401.845 48.99 401.905 49.19C401.985 49.37 402.005 49.56 401.965 49.76C401.945 49.96 401.855 50.13 401.695 50.27C401.255 50.67 400.995 51.05 400.915 51.41C400.855 51.77 400.905 52.13 401.065 52.49L402.955 56.81L404.755 52.61C404.975 52.09 404.995 51.64 404.815 51.26C404.635 50.88 404.255 50.52 403.675 50.18C403.515 50.08 403.405 49.94 403.345 49.76C403.285 49.56 403.275 49.37 403.315 49.19C403.355 49.01 403.435 48.85 403.555 48.71C403.695 48.57 403.885 48.5 404.125 48.5H407.845C408.125 48.5 408.345 48.57 408.505 48.71C408.685 48.85 408.795 49.02 408.835 49.22C408.875 49.42 408.845 49.64 408.745 49.88C408.665 50.1 408.505 50.29 408.265 50.45C407.845 50.73 407.495 51.07 407.215 51.47C406.955 51.87 406.685 52.39 406.405 53.03L400.735 66.26C400.275 67.34 399.625 68.2 398.785 68.84C397.965 69.48 397.085 69.8 396.145 69.8Z"
                fill="#282828"
              />
              <path
                d="M41.26 106.5V93.54H49.36V94.809H42.583V99.291H48.28V100.56H42.583V105.231H49.36V106.5H41.26ZM54.3066 106.77C53.5746 106.77 52.9596 106.638 52.4616 106.374C51.9696 106.11 51.6006 105.759 51.3546 105.321C51.1086 104.883 50.9856 104.406 50.9856 103.89C50.9856 103.362 51.0906 102.912 51.3006 102.54C51.5166 102.162 51.8076 101.853 52.1736 101.613C52.5456 101.373 52.9746 101.19 53.4606 101.064C53.9526 100.944 54.4956 100.839 55.0896 100.749C55.6896 100.653 56.2746 100.572 56.8446 100.506C57.4206 100.434 57.9246 100.365 58.3566 100.299L57.8886 100.587C57.9066 99.627 57.7206 98.916 57.3306 98.454C56.9406 97.992 56.2626 97.761 55.2966 97.761C54.6306 97.761 54.0666 97.911 53.6046 98.211C53.1486 98.511 52.8276 98.985 52.6416 99.633L51.3546 99.255C51.5766 98.385 52.0236 97.71 52.6956 97.23C53.3676 96.75 54.2406 96.51 55.3146 96.51C56.2026 96.51 56.9556 96.678 57.5736 97.014C58.1976 97.344 58.6386 97.824 58.8966 98.454C59.0166 98.736 59.0946 99.051 59.1306 99.399C59.1666 99.747 59.1846 100.101 59.1846 100.461V106.5H58.0056V104.061L58.3476 104.205C58.0176 105.039 57.5046 105.675 56.8086 106.113C56.1126 106.551 55.2786 106.77 54.3066 106.77ZM54.4596 105.627C55.0776 105.627 55.6176 105.516 56.0796 105.294C56.5416 105.072 56.9136 104.769 57.1956 104.385C57.4776 103.995 57.6606 103.557 57.7446 103.071C57.8166 102.759 57.8556 102.417 57.8616 102.045C57.8676 101.667 57.8706 101.385 57.8706 101.199L58.3746 101.46C57.9246 101.52 57.4356 101.58 56.9076 101.64C56.3856 101.7 55.8696 101.769 55.3596 101.847C54.8556 101.925 54.3996 102.018 53.9916 102.126C53.7156 102.204 53.4486 102.315 53.1906 102.459C52.9326 102.597 52.7196 102.783 52.5516 103.017C52.3896 103.251 52.3086 103.542 52.3086 103.89C52.3086 104.172 52.3776 104.445 52.5156 104.709C52.6596 104.973 52.8876 105.192 53.1996 105.366C53.5176 105.54 53.9376 105.627 54.4596 105.627ZM65.1546 106.761C64.0146 106.761 63.0756 106.515 62.3376 106.023C61.6056 105.531 61.1556 104.847 60.9876 103.971L62.3376 103.746C62.4816 104.298 62.8086 104.739 63.3186 105.069C63.8346 105.393 64.4706 105.555 65.2266 105.555C65.9646 105.555 66.5466 105.402 66.9726 105.096C67.3986 104.784 67.6116 104.361 67.6116 103.827C67.6116 103.527 67.5426 103.284 67.4046 103.098C67.2726 102.906 66.9996 102.729 66.5856 102.567C66.1716 102.405 65.5536 102.213 64.7316 101.991C63.8496 101.751 63.1596 101.511 62.6616 101.271C62.1636 101.031 61.8096 100.755 61.5996 100.443C61.3896 100.125 61.2846 99.738 61.2846 99.282C61.2846 98.73 61.4406 98.247 61.7526 97.833C62.0646 97.413 62.4966 97.089 63.0486 96.861C63.6006 96.627 64.2426 96.51 64.9746 96.51C65.7066 96.51 66.3606 96.63 66.9366 96.87C67.5186 97.104 67.9866 97.434 68.3406 97.86C68.6946 98.286 68.9046 98.781 68.9706 99.345L67.6206 99.588C67.5306 99.018 67.2456 98.568 66.7656 98.238C66.2916 97.902 65.6886 97.728 64.9566 97.716C64.2666 97.698 63.7056 97.83 63.2736 98.112C62.8416 98.388 62.6256 98.757 62.6256 99.219C62.6256 99.477 62.7036 99.699 62.8596 99.885C63.0156 100.065 63.2976 100.236 63.7056 100.398C64.1196 100.56 64.7076 100.737 65.4696 100.929C66.3636 101.157 67.0656 101.397 67.5756 101.649C68.0856 101.901 68.4486 102.198 68.6646 102.54C68.8806 102.882 68.9886 103.305 68.9886 103.809C68.9886 104.727 68.6466 105.45 67.9626 105.978C67.2846 106.5 66.3486 106.761 65.1546 106.761ZM71.1646 94.935V93.45H72.4876V94.935H71.1646ZM71.1646 106.5V96.78H72.4876V106.5H71.1646ZM75.3658 106.5V93.27H76.6888V106.5H75.3658ZM80.773 110.82L82.654 105.717L82.681 107.229L78.424 96.78H79.828L83.32 105.519H82.744L85.966 96.78H87.316L82.096 110.82H80.773ZM95.2637 106.77C94.5317 106.77 93.9167 106.638 93.4187 106.374C92.9267 106.11 92.5577 105.759 92.3117 105.321C92.0657 104.883 91.9427 104.406 91.9427 103.89C91.9427 103.362 92.0477 102.912 92.2577 102.54C92.4737 102.162 92.7647 101.853 93.1307 101.613C93.5027 101.373 93.9317 101.19 94.4177 101.064C94.9097 100.944 95.4527 100.839 96.0467 100.749C96.6467 100.653 97.2317 100.572 97.8017 100.506C98.3777 100.434 98.8817 100.365 99.3137 100.299L98.8457 100.587C98.8637 99.627 98.6777 98.916 98.2877 98.454C97.8977 97.992 97.2197 97.761 96.2537 97.761C95.5877 97.761 95.0237 97.911 94.5617 98.211C94.1057 98.511 93.7847 98.985 93.5987 99.633L92.3117 99.255C92.5337 98.385 92.9807 97.71 93.6527 97.23C94.3247 96.75 95.1977 96.51 96.2717 96.51C97.1597 96.51 97.9127 96.678 98.5307 97.014C99.1547 97.344 99.5957 97.824 99.8537 98.454C99.9737 98.736 100.052 99.051 100.088 99.399C100.124 99.747 100.142 100.101 100.142 100.461V106.5H98.9627V104.061L99.3047 104.205C98.9747 105.039 98.4617 105.675 97.7657 106.113C97.0697 106.551 96.2357 106.77 95.2637 106.77ZM95.4167 105.627C96.0347 105.627 96.5747 105.516 97.0367 105.294C97.4987 105.072 97.8707 104.769 98.1527 104.385C98.4347 103.995 98.6177 103.557 98.7017 103.071C98.7737 102.759 98.8127 102.417 98.8187 102.045C98.8247 101.667 98.8277 101.385 98.8277 101.199L99.3317 101.46C98.8817 101.52 98.3927 101.58 97.8647 101.64C97.3427 101.7 96.8267 101.769 96.3167 101.847C95.8127 101.925 95.3567 102.018 94.9487 102.126C94.6727 102.204 94.4057 102.315 94.1477 102.459C93.8897 102.597 93.6767 102.783 93.5087 103.017C93.3467 103.251 93.2657 103.542 93.2657 103.89C93.2657 104.172 93.3347 104.445 93.4727 104.709C93.6167 104.973 93.8447 105.192 94.1567 105.366C94.4747 105.54 94.8947 105.627 95.4167 105.627ZM106.256 106.77C105.35 106.77 104.576 106.545 103.934 106.095C103.292 105.639 102.8 105.024 102.458 104.25C102.116 103.476 101.945 102.603 101.945 101.631C101.945 100.665 102.113 99.795 102.449 99.021C102.791 98.247 103.28 97.635 103.916 97.185C104.552 96.735 105.314 96.51 106.202 96.51C107.114 96.51 107.882 96.732 108.506 97.176C109.13 97.62 109.601 98.229 109.919 99.003C110.243 99.771 110.405 100.647 110.405 101.631C110.405 102.597 110.246 103.47 109.928 104.25C109.61 105.024 109.142 105.639 108.524 106.095C107.906 106.545 107.15 106.77 106.256 106.77ZM106.391 105.537C107.081 105.537 107.651 105.369 108.101 105.033C108.551 104.697 108.887 104.235 109.109 103.647C109.331 103.053 109.442 102.381 109.442 101.631C109.442 100.869 109.331 100.197 109.109 99.615C108.887 99.027 108.551 98.568 108.101 98.238C107.657 97.908 107.096 97.743 106.418 97.743C105.722 97.743 105.146 97.914 104.69 98.256C104.234 98.598 103.895 99.063 103.673 99.651C103.457 100.239 103.349 100.899 103.349 101.631C103.349 102.369 103.46 103.035 103.682 103.629C103.91 104.217 104.249 104.682 104.699 105.024C105.149 105.366 105.713 105.537 106.391 105.537ZM109.442 106.5V99.183H109.298V93.54H110.63V106.5H109.442ZM116.926 106.77C116.02 106.77 115.246 106.545 114.604 106.095C113.962 105.639 113.47 105.024 113.128 104.25C112.786 103.476 112.615 102.603 112.615 101.631C112.615 100.665 112.783 99.795 113.119 99.021C113.461 98.247 113.95 97.635 114.586 97.185C115.222 96.735 115.984 96.51 116.872 96.51C117.784 96.51 118.552 96.732 119.176 97.176C119.8 97.62 120.271 98.229 120.589 99.003C120.913 99.771 121.075 100.647 121.075 101.631C121.075 102.597 120.916 103.47 120.598 104.25C120.28 105.024 119.812 105.639 119.194 106.095C118.576 106.545 117.82 106.77 116.926 106.77ZM117.061 105.537C117.751 105.537 118.321 105.369 118.771 105.033C119.221 104.697 119.557 104.235 119.779 103.647C120.001 103.053 120.112 102.381 120.112 101.631C120.112 100.869 120.001 100.197 119.779 99.615C119.557 99.027 119.221 98.568 118.771 98.238C118.327 97.908 117.766 97.743 117.088 97.743C116.392 97.743 115.816 97.914 115.36 98.256C114.904 98.598 114.565 99.063 114.343 99.651C114.127 100.239 114.019 100.899 114.019 101.631C114.019 102.369 114.13 103.035 114.352 103.629C114.58 104.217 114.919 104.682 115.369 105.024C115.819 105.366 116.383 105.537 117.061 105.537ZM120.112 106.5V99.183H119.968V93.54H121.3V106.5H120.112ZM131.46 106.77C130.482 106.77 129.654 106.551 128.976 106.113C128.298 105.675 127.782 105.072 127.428 104.304C127.08 103.53 126.9 102.642 126.888 101.64C126.9 100.62 127.086 99.726 127.446 98.958C127.806 98.184 128.325 97.584 129.003 97.158C129.681 96.726 130.503 96.51 131.469 96.51C132.453 96.51 133.308 96.75 134.034 97.23C134.766 97.71 135.267 98.367 135.537 99.201L134.241 99.615C134.013 99.033 133.65 98.583 133.152 98.265C132.66 97.941 132.096 97.779 131.46 97.779C130.746 97.779 130.155 97.944 129.687 98.274C129.219 98.598 128.871 99.051 128.643 99.633C128.415 100.215 128.298 100.884 128.292 101.64C128.304 102.804 128.574 103.74 129.102 104.448C129.63 105.15 130.416 105.501 131.46 105.501C132.12 105.501 132.681 105.351 133.143 105.051C133.611 104.745 133.965 104.301 134.205 103.719L135.537 104.115C135.177 104.979 134.649 105.639 133.953 106.095C133.257 106.545 132.426 106.77 131.46 106.77ZM141.19 106.77C140.224 106.77 139.399 106.551 138.715 106.113C138.031 105.675 137.506 105.069 137.14 104.295C136.774 103.521 136.591 102.633 136.591 101.631C136.591 100.611 136.777 99.717 137.149 98.949C137.521 98.181 138.049 97.584 138.733 97.158C139.423 96.726 140.242 96.51 141.19 96.51C142.162 96.51 142.99 96.729 143.674 97.167C144.364 97.599 144.889 98.202 145.249 98.976C145.615 99.744 145.798 100.629 145.798 101.631C145.798 102.651 145.615 103.548 145.249 104.322C144.883 105.09 144.355 105.69 143.665 106.122C142.975 106.554 142.15 106.77 141.19 106.77ZM141.19 105.501C142.27 105.501 143.074 105.144 143.602 104.43C144.13 103.71 144.394 102.777 144.394 101.631C144.394 100.455 144.127 99.519 143.593 98.823C143.065 98.127 142.264 97.779 141.19 97.779C140.464 97.779 139.864 97.944 139.39 98.274C138.922 98.598 138.571 99.051 138.337 99.633C138.109 100.209 137.995 100.875 137.995 101.631C137.995 102.801 138.265 103.74 138.805 104.448C139.345 105.15 140.14 105.501 141.19 105.501ZM159.375 106.5L159.384 100.119C159.384 99.369 159.174 98.781 158.754 98.355C158.34 97.923 157.812 97.707 157.17 97.707C156.804 97.707 156.447 97.791 156.099 97.959C155.751 98.127 155.463 98.397 155.235 98.769C155.013 99.141 154.902 99.627 154.902 100.227L154.119 100.002C154.101 99.306 154.236 98.697 154.524 98.175C154.818 97.653 155.22 97.248 155.73 96.96C156.246 96.666 156.828 96.519 157.476 96.519C158.454 96.519 159.237 96.822 159.825 97.428C160.413 98.028 160.707 98.841 160.707 99.867L160.698 106.5H159.375ZM147.774 106.5V96.78H148.962V99.174H149.106V106.5H147.774ZM153.588 106.5L153.597 100.209C153.597 99.435 153.39 98.826 152.976 98.382C152.568 97.932 152.028 97.707 151.356 97.707C150.684 97.707 150.141 97.938 149.727 98.4C149.313 98.856 149.106 99.465 149.106 100.227L148.314 99.795C148.314 99.171 148.461 98.613 148.755 98.121C149.049 97.623 149.451 97.233 149.961 96.951C150.471 96.663 151.05 96.519 151.698 96.519C152.316 96.519 152.865 96.651 153.345 96.915C153.831 97.179 154.212 97.563 154.488 98.067C154.764 98.571 154.902 99.183 154.902 99.903L154.893 106.5H153.588ZM167.406 106.77C166.512 106.77 165.756 106.545 165.138 106.095C164.52 105.639 164.052 105.024 163.734 104.25C163.416 103.47 163.257 102.597 163.257 101.631C163.257 100.647 163.416 99.771 163.734 99.003C164.058 98.229 164.532 97.62 165.156 97.176C165.78 96.732 166.548 96.51 167.46 96.51C168.348 96.51 169.11 96.735 169.746 97.185C170.382 97.635 170.868 98.247 171.204 99.021C171.546 99.795 171.717 100.665 171.717 101.631C171.717 102.603 171.546 103.476 171.204 104.25C170.862 105.024 170.37 105.639 169.728 106.095C169.086 106.545 168.312 106.77 167.406 106.77ZM163.032 110.82V96.78H164.22V104.097H164.364V110.82H163.032ZM167.271 105.537C167.949 105.537 168.513 105.366 168.963 105.024C169.413 104.682 169.749 104.217 169.971 103.629C170.199 103.035 170.313 102.369 170.313 101.631C170.313 100.899 170.202 100.239 169.98 99.651C169.758 99.063 169.419 98.598 168.963 98.256C168.513 97.914 167.94 97.743 167.244 97.743C166.566 97.743 166.002 97.908 165.552 98.238C165.108 98.568 164.775 99.027 164.553 99.615C164.331 100.197 164.22 100.869 164.22 101.631C164.22 102.381 164.331 103.053 164.553 103.647C164.775 104.235 165.111 104.697 165.561 105.033C166.011 105.369 166.581 105.537 167.271 105.537ZM176.475 106.77C175.743 106.77 175.128 106.638 174.63 106.374C174.138 106.11 173.769 105.759 173.523 105.321C173.277 104.883 173.154 104.406 173.154 103.89C173.154 103.362 173.259 102.912 173.469 102.54C173.685 102.162 173.976 101.853 174.342 101.613C174.714 101.373 175.143 101.19 175.629 101.064C176.121 100.944 176.664 100.839 177.258 100.749C177.858 100.653 178.443 100.572 179.013 100.506C179.589 100.434 180.093 100.365 180.525 100.299L180.057 100.587C180.075 99.627 179.889 98.916 179.499 98.454C179.109 97.992 178.431 97.761 177.465 97.761C176.799 97.761 176.235 97.911 175.773 98.211C175.317 98.511 174.996 98.985 174.81 99.633L173.523 99.255C173.745 98.385 174.192 97.71 174.864 97.23C175.536 96.75 176.409 96.51 177.483 96.51C178.371 96.51 179.124 96.678 179.742 97.014C180.366 97.344 180.807 97.824 181.065 98.454C181.185 98.736 181.263 99.051 181.299 99.399C181.335 99.747 181.353 100.101 181.353 100.461V106.5H180.174V104.061L180.516 104.205C180.186 105.039 179.673 105.675 178.977 106.113C178.281 106.551 177.447 106.77 176.475 106.77ZM176.628 105.627C177.246 105.627 177.786 105.516 178.248 105.294C178.71 105.072 179.082 104.769 179.364 104.385C179.646 103.995 179.829 103.557 179.913 103.071C179.985 102.759 180.024 102.417 180.03 102.045C180.036 101.667 180.039 101.385 180.039 101.199L180.543 101.46C180.093 101.52 179.604 101.58 179.076 101.64C178.554 101.7 178.038 101.769 177.528 101.847C177.024 101.925 176.568 102.018 176.16 102.126C175.884 102.204 175.617 102.315 175.359 102.459C175.101 102.597 174.888 102.783 174.72 103.017C174.558 103.251 174.477 103.542 174.477 103.89C174.477 104.172 174.546 104.445 174.684 104.709C174.828 104.973 175.056 105.192 175.368 105.366C175.686 105.54 176.106 105.627 176.628 105.627ZM190.716 106.5V101.541C190.716 101.001 190.665 100.506 190.563 100.056C190.461 99.6 190.296 99.204 190.068 98.868C189.846 98.526 189.555 98.262 189.195 98.076C188.841 97.89 188.409 97.797 187.899 97.797C187.431 97.797 187.017 97.878 186.657 98.04C186.303 98.202 186.003 98.436 185.757 98.742C185.517 99.042 185.334 99.408 185.208 99.84C185.082 100.272 185.019 100.764 185.019 101.316L184.083 101.109C184.083 100.113 184.257 99.276 184.605 98.598C184.953 97.92 185.433 97.407 186.045 97.059C186.657 96.711 187.359 96.537 188.151 96.537C188.733 96.537 189.24 96.627 189.672 96.807C190.11 96.987 190.479 97.23 190.779 97.536C191.085 97.842 191.331 98.193 191.517 98.589C191.703 98.979 191.838 99.396 191.922 99.84C192.006 100.278 192.048 100.716 192.048 101.154V106.5H190.716ZM183.687 106.5V96.78H184.884V99.174H185.019V106.5H183.687ZM194.563 94.935V93.45H195.886V94.935H194.563ZM194.563 106.5V96.78H195.886V106.5H194.563ZM202.697 106.77C201.749 106.77 200.927 106.56 200.231 106.14C199.541 105.72 199.004 105.129 198.62 104.367C198.236 103.605 198.044 102.711 198.044 101.685C198.044 100.623 198.233 99.705 198.611 98.931C198.989 98.157 199.52 97.56 200.204 97.14C200.894 96.72 201.707 96.51 202.643 96.51C203.603 96.51 204.422 96.732 205.1 97.176C205.778 97.614 206.291 98.244 206.639 99.066C206.987 99.888 207.146 100.869 207.116 102.009H205.766V101.541C205.742 100.281 205.469 99.33 204.947 98.688C204.431 98.046 203.675 97.725 202.679 97.725C201.635 97.725 200.834 98.064 200.276 98.742C199.724 99.42 199.448 100.386 199.448 101.64C199.448 102.864 199.724 103.815 200.276 104.493C200.834 105.165 201.623 105.501 202.643 105.501C203.339 105.501 203.945 105.342 204.461 105.024C204.983 104.7 205.394 104.235 205.694 103.629L206.927 104.106C206.543 104.952 205.976 105.609 205.226 106.077C204.482 106.539 203.639 106.77 202.697 106.77ZM198.98 102.009V100.902H206.405V102.009H198.98ZM212.741 106.761C211.601 106.761 210.662 106.515 209.924 106.023C209.192 105.531 208.742 104.847 208.574 103.971L209.924 103.746C210.068 104.298 210.395 104.739 210.905 105.069C211.421 105.393 212.057 105.555 212.813 105.555C213.551 105.555 214.133 105.402 214.559 105.096C214.985 104.784 215.198 104.361 215.198 103.827C215.198 103.527 215.129 103.284 214.991 103.098C214.859 102.906 214.586 102.729 214.172 102.567C213.758 102.405 213.14 102.213 212.318 101.991C211.436 101.751 210.746 101.511 210.248 101.271C209.75 101.031 209.396 100.755 209.186 100.443C208.976 100.125 208.871 99.738 208.871 99.282C208.871 98.73 209.027 98.247 209.339 97.833C209.651 97.413 210.083 97.089 210.635 96.861C211.187 96.627 211.829 96.51 212.561 96.51C213.293 96.51 213.947 96.63 214.523 96.87C215.105 97.104 215.573 97.434 215.927 97.86C216.281 98.286 216.491 98.781 216.557 99.345L215.207 99.588C215.117 99.018 214.832 98.568 214.352 98.238C213.878 97.902 213.275 97.728 212.543 97.716C211.853 97.698 211.292 97.83 210.86 98.112C210.428 98.388 210.212 98.757 210.212 99.219C210.212 99.477 210.29 99.699 210.446 99.885C210.602 100.065 210.884 100.236 211.292 100.398C211.706 100.56 212.294 100.737 213.056 100.929C213.95 101.157 214.652 101.397 215.162 101.649C215.672 101.901 216.035 102.198 216.251 102.54C216.467 102.882 216.575 103.305 216.575 103.809C216.575 104.727 216.233 105.45 215.549 105.978C214.871 106.5 213.935 106.761 212.741 106.761ZM227.466 106.5C226.92 106.614 226.38 106.659 225.846 106.635C225.318 106.611 224.844 106.497 224.424 106.293C224.01 106.089 223.695 105.771 223.479 105.339C223.305 104.979 223.209 104.616 223.191 104.25C223.179 103.878 223.173 103.455 223.173 102.981V94.08H224.487V102.927C224.487 103.335 224.49 103.677 224.496 103.953C224.508 104.223 224.571 104.463 224.685 104.673C224.901 105.075 225.243 105.315 225.711 105.393C226.185 105.471 226.77 105.453 227.466 105.339V106.5ZM221.094 97.914V96.78H227.466V97.914H221.094ZM233.089 106.77C232.123 106.77 231.298 106.551 230.614 106.113C229.93 105.675 229.405 105.069 229.039 104.295C228.673 103.521 228.49 102.633 228.49 101.631C228.49 100.611 228.676 99.717 229.048 98.949C229.42 98.181 229.948 97.584 230.632 97.158C231.322 96.726 232.141 96.51 233.089 96.51C234.061 96.51 234.889 96.729 235.573 97.167C236.263 97.599 236.788 98.202 237.148 98.976C237.514 99.744 237.697 100.629 237.697 101.631C237.697 102.651 237.514 103.548 237.148 104.322C236.782 105.09 236.254 105.69 235.564 106.122C234.874 106.554 234.049 106.77 233.089 106.77ZM233.089 105.501C234.169 105.501 234.973 105.144 235.501 104.43C236.029 103.71 236.293 102.777 236.293 101.631C236.293 100.455 236.026 99.519 235.492 98.823C234.964 98.127 234.163 97.779 233.089 97.779C232.363 97.779 231.763 97.944 231.289 98.274C230.821 98.598 230.47 99.051 230.236 99.633C230.008 100.209 229.894 100.875 229.894 101.631C229.894 102.801 230.164 103.74 230.704 104.448C231.244 105.15 232.039 105.501 233.089 105.501ZM254.877 106.5L254.886 100.119C254.886 99.369 254.676 98.781 254.256 98.355C253.842 97.923 253.314 97.707 252.672 97.707C252.306 97.707 251.949 97.791 251.601 97.959C251.253 98.127 250.965 98.397 250.737 98.769C250.515 99.141 250.404 99.627 250.404 100.227L249.621 100.002C249.603 99.306 249.738 98.697 250.026 98.175C250.32 97.653 250.722 97.248 251.232 96.96C251.748 96.666 252.33 96.519 252.978 96.519C253.956 96.519 254.739 96.822 255.327 97.428C255.915 98.028 256.209 98.841 256.209 99.867L256.2 106.5H254.877ZM243.276 106.5V96.78H244.464V99.174H244.608V106.5H243.276ZM249.09 106.5L249.099 100.209C249.099 99.435 248.892 98.826 248.478 98.382C248.07 97.932 247.53 97.707 246.858 97.707C246.186 97.707 245.643 97.938 245.229 98.4C244.815 98.856 244.608 99.465 244.608 100.227L243.816 99.795C243.816 99.171 243.963 98.613 244.257 98.121C244.551 97.623 244.953 97.233 245.463 96.951C245.973 96.663 246.552 96.519 247.2 96.519C247.818 96.519 248.367 96.651 248.847 96.915C249.333 97.179 249.714 97.563 249.99 98.067C250.266 98.571 250.404 99.183 250.404 99.903L250.395 106.5H249.09ZM262.26 106.743C261.678 106.743 261.168 106.653 260.73 106.473C260.298 106.293 259.929 106.05 259.623 105.744C259.323 105.438 259.08 105.09 258.894 104.7C258.708 104.304 258.573 103.887 258.489 103.449C258.405 103.005 258.363 102.564 258.363 102.126V96.78H259.695V101.739C259.695 102.273 259.746 102.768 259.848 103.224C259.95 103.68 260.112 104.079 260.334 104.421C260.562 104.757 260.853 105.018 261.207 105.204C261.567 105.39 262.002 105.483 262.512 105.483C262.98 105.483 263.391 105.402 263.745 105.24C264.105 105.078 264.405 104.847 264.645 104.547C264.891 104.241 265.077 103.872 265.203 103.44C265.329 103.002 265.392 102.51 265.392 101.964L266.328 102.171C266.328 103.167 266.154 104.004 265.806 104.682C265.458 105.36 264.978 105.873 264.366 106.221C263.754 106.569 263.052 106.743 262.26 106.743ZM265.527 106.5V104.106H265.392V96.78H266.715V106.5H265.527ZM269.411 106.5V93.27H270.734V106.5H269.411ZM278.724 106.5C278.178 106.614 277.638 106.659 277.104 106.635C276.576 106.611 276.102 106.497 275.682 106.293C275.268 106.089 274.953 105.771 274.737 105.339C274.563 104.979 274.467 104.616 274.449 104.25C274.437 103.878 274.431 103.455 274.431 102.981V94.08H275.745V102.927C275.745 103.335 275.748 103.677 275.754 103.953C275.766 104.223 275.829 104.463 275.943 104.673C276.159 105.075 276.501 105.315 276.969 105.393C277.443 105.471 278.028 105.453 278.724 105.339V106.5ZM272.352 97.914V96.78H278.724V97.914H272.352ZM280.819 94.935V93.45H282.142V94.935H280.819ZM280.819 106.5V96.78H282.142V106.5H280.819ZM289.205 106.77C288.311 106.77 287.555 106.545 286.937 106.095C286.319 105.639 285.851 105.024 285.533 104.25C285.215 103.47 285.056 102.597 285.056 101.631C285.056 100.647 285.215 99.771 285.533 99.003C285.857 98.229 286.331 97.62 286.955 97.176C287.579 96.732 288.347 96.51 289.259 96.51C290.147 96.51 290.909 96.735 291.545 97.185C292.181 97.635 292.667 98.247 293.003 99.021C293.345 99.795 293.516 100.665 293.516 101.631C293.516 102.603 293.345 103.476 293.003 104.25C292.661 105.024 292.169 105.639 291.527 106.095C290.885 106.545 290.111 106.77 289.205 106.77ZM284.831 110.82V96.78H286.019V104.097H286.163V110.82H284.831ZM289.07 105.537C289.748 105.537 290.312 105.366 290.762 105.024C291.212 104.682 291.548 104.217 291.77 103.629C291.998 103.035 292.112 102.369 292.112 101.631C292.112 100.899 292.001 100.239 291.779 99.651C291.557 99.063 291.218 98.598 290.762 98.256C290.312 97.914 289.739 97.743 289.043 97.743C288.365 97.743 287.801 97.908 287.351 98.238C286.907 98.568 286.574 99.027 286.352 99.615C286.13 100.197 286.019 100.869 286.019 101.631C286.019 102.381 286.13 103.053 286.352 103.647C286.574 104.235 286.91 104.697 287.36 105.033C287.81 105.369 288.38 105.537 289.07 105.537ZM295.672 106.5V93.27H296.995V106.5H295.672ZM303.807 106.77C302.859 106.77 302.037 106.56 301.341 106.14C300.651 105.72 300.114 105.129 299.73 104.367C299.346 103.605 299.154 102.711 299.154 101.685C299.154 100.623 299.343 99.705 299.721 98.931C300.099 98.157 300.63 97.56 301.314 97.14C302.004 96.72 302.817 96.51 303.753 96.51C304.713 96.51 305.532 96.732 306.21 97.176C306.888 97.614 307.401 98.244 307.749 99.066C308.097 99.888 308.256 100.869 308.226 102.009H306.876V101.541C306.852 100.281 306.579 99.33 306.057 98.688C305.541 98.046 304.785 97.725 303.789 97.725C302.745 97.725 301.944 98.064 301.386 98.742C300.834 99.42 300.558 100.386 300.558 101.64C300.558 102.864 300.834 103.815 301.386 104.493C301.944 105.165 302.733 105.501 303.753 105.501C304.449 105.501 305.055 105.342 305.571 105.024C306.093 104.7 306.504 104.235 306.804 103.629L308.037 104.106C307.653 104.952 307.086 105.609 306.336 106.077C305.592 106.539 304.749 106.77 303.807 106.77ZM300.09 102.009V100.902H307.515V102.009H300.09ZM315.896 106.5L312.926 96.771L314.249 96.78L316.553 104.331L318.866 96.78H320.072L322.385 104.331L324.707 96.78H326.021L323.051 106.5H321.899L319.469 98.76L317.048 106.5H315.896ZM329.879 106.77C329.147 106.77 328.532 106.638 328.034 106.374C327.542 106.11 327.173 105.759 326.927 105.321C326.681 104.883 326.558 104.406 326.558 103.89C326.558 103.362 326.663 102.912 326.873 102.54C327.089 102.162 327.38 101.853 327.746 101.613C328.118 101.373 328.547 101.19 329.033 101.064C329.525 100.944 330.068 100.839 330.662 100.749C331.262 100.653 331.847 100.572 332.417 100.506C332.993 100.434 333.497 100.365 333.929 100.299L333.461 100.587C333.479 99.627 333.293 98.916 332.903 98.454C332.513 97.992 331.835 97.761 330.869 97.761C330.203 97.761 329.639 97.911 329.177 98.211C328.721 98.511 328.4 98.985 328.214 99.633L326.927 99.255C327.149 98.385 327.596 97.71 328.268 97.23C328.94 96.75 329.813 96.51 330.887 96.51C331.775 96.51 332.528 96.678 333.146 97.014C333.77 97.344 334.211 97.824 334.469 98.454C334.589 98.736 334.667 99.051 334.703 99.399C334.739 99.747 334.757 100.101 334.757 100.461V106.5H333.578V104.061L333.92 104.205C333.59 105.039 333.077 105.675 332.381 106.113C331.685 106.551 330.851 106.77 329.879 106.77ZM330.032 105.627C330.65 105.627 331.19 105.516 331.652 105.294C332.114 105.072 332.486 104.769 332.768 104.385C333.05 103.995 333.233 103.557 333.317 103.071C333.389 102.759 333.428 102.417 333.434 102.045C333.44 101.667 333.443 101.385 333.443 101.199L333.947 101.46C333.497 101.52 333.008 101.58 332.48 101.64C331.958 101.7 331.442 101.769 330.932 101.847C330.428 101.925 329.972 102.018 329.564 102.126C329.288 102.204 329.021 102.315 328.763 102.459C328.505 102.597 328.292 102.783 328.124 103.017C327.962 103.251 327.881 103.542 327.881 103.89C327.881 104.172 327.95 104.445 328.088 104.709C328.232 104.973 328.46 105.192 328.772 105.366C329.09 105.54 329.51 105.627 330.032 105.627ZM342.392 106.5C341.846 106.614 341.306 106.659 340.772 106.635C340.244 106.611 339.77 106.497 339.35 106.293C338.936 106.089 338.621 105.771 338.405 105.339C338.231 104.979 338.135 104.616 338.117 104.25C338.105 103.878 338.099 103.455 338.099 102.981V94.08H339.413V102.927C339.413 103.335 339.416 103.677 339.422 103.953C339.434 104.223 339.497 104.463 339.611 104.673C339.827 105.075 340.169 105.315 340.637 105.393C341.111 105.471 341.696 105.453 342.392 105.339V106.5ZM336.02 97.914V96.78H342.392V97.914H336.02ZM347.987 106.77C347.009 106.77 346.181 106.551 345.503 106.113C344.825 105.675 344.309 105.072 343.955 104.304C343.607 103.53 343.427 102.642 343.415 101.64C343.427 100.62 343.613 99.726 343.973 98.958C344.333 98.184 344.852 97.584 345.53 97.158C346.208 96.726 347.03 96.51 347.996 96.51C348.98 96.51 349.835 96.75 350.561 97.23C351.293 97.71 351.794 98.367 352.064 99.201L350.768 99.615C350.54 99.033 350.177 98.583 349.679 98.265C349.187 97.941 348.623 97.779 347.987 97.779C347.273 97.779 346.682 97.944 346.214 98.274C345.746 98.598 345.398 99.051 345.17 99.633C344.942 100.215 344.825 100.884 344.819 101.64C344.831 102.804 345.101 103.74 345.629 104.448C346.157 105.15 346.943 105.501 347.987 105.501C348.647 105.501 349.208 105.351 349.67 105.051C350.138 104.745 350.492 104.301 350.732 103.719L352.064 104.115C351.704 104.979 351.176 105.639 350.48 106.095C349.784 106.545 348.953 106.77 347.987 106.77ZM360.942 106.5V101.541C360.942 101.001 360.891 100.506 360.789 100.056C360.687 99.6 360.522 99.204 360.294 98.868C360.072 98.526 359.781 98.262 359.421 98.076C359.067 97.89 358.635 97.797 358.125 97.797C357.657 97.797 357.243 97.878 356.883 98.04C356.529 98.202 356.229 98.436 355.983 98.742C355.743 99.042 355.56 99.408 355.434 99.84C355.308 100.272 355.245 100.764 355.245 101.316L354.309 101.109C354.309 100.113 354.483 99.276 354.831 98.598C355.179 97.92 355.659 97.407 356.271 97.059C356.883 96.711 357.585 96.537 358.377 96.537C358.959 96.537 359.466 96.627 359.898 96.807C360.336 96.987 360.705 97.23 361.005 97.536C361.311 97.842 361.557 98.193 361.743 98.589C361.929 98.979 362.064 99.396 362.148 99.84C362.232 100.278 362.274 100.716 362.274 101.154V106.5H360.942ZM353.913 106.5V93.54H355.11V100.857H355.245V106.5H353.913ZM364.79 106.5V93.27H366.113V106.5H364.79ZM368.991 94.935V93.45H370.314V94.935H368.991ZM368.991 106.5V96.78H370.314V106.5H368.991ZM376.639 106.761C375.499 106.761 374.56 106.515 373.822 106.023C373.09 105.531 372.64 104.847 372.472 103.971L373.822 103.746C373.966 104.298 374.293 104.739 374.803 105.069C375.319 105.393 375.955 105.555 376.711 105.555C377.449 105.555 378.031 105.402 378.457 105.096C378.883 104.784 379.096 104.361 379.096 103.827C379.096 103.527 379.027 103.284 378.889 103.098C378.757 102.906 378.484 102.729 378.07 102.567C377.656 102.405 377.038 102.213 376.216 101.991C375.334 101.751 374.644 101.511 374.146 101.271C373.648 101.031 373.294 100.755 373.084 100.443C372.874 100.125 372.769 99.738 372.769 99.282C372.769 98.73 372.925 98.247 373.237 97.833C373.549 97.413 373.981 97.089 374.533 96.861C375.085 96.627 375.727 96.51 376.459 96.51C377.191 96.51 377.845 96.63 378.421 96.87C379.003 97.104 379.471 97.434 379.825 97.86C380.179 98.286 380.389 98.781 380.455 99.345L379.105 99.588C379.015 99.018 378.73 98.568 378.25 98.238C377.776 97.902 377.173 97.728 376.441 97.716C375.751 97.698 375.19 97.83 374.758 98.112C374.326 98.388 374.11 98.757 374.11 99.219C374.11 99.477 374.188 99.699 374.344 99.885C374.5 100.065 374.782 100.236 375.19 100.398C375.604 100.56 376.192 100.737 376.954 100.929C377.848 101.157 378.55 101.397 379.06 101.649C379.57 101.901 379.933 102.198 380.149 102.54C380.365 102.882 380.473 103.305 380.473 103.809C380.473 104.727 380.131 105.45 379.447 105.978C378.769 106.5 377.833 106.761 376.639 106.761ZM387.761 106.5C387.215 106.614 386.675 106.659 386.141 106.635C385.613 106.611 385.139 106.497 384.719 106.293C384.305 106.089 383.99 105.771 383.774 105.339C383.6 104.979 383.504 104.616 383.486 104.25C383.474 103.878 383.468 103.455 383.468 102.981V94.08H384.782V102.927C384.782 103.335 384.785 103.677 384.791 103.953C384.803 104.223 384.866 104.463 384.98 104.673C385.196 105.075 385.538 105.315 386.006 105.393C386.48 105.471 387.065 105.453 387.761 105.339V106.5ZM381.389 97.914V96.78H387.761V97.914H381.389ZM393.303 106.761C392.163 106.761 391.224 106.515 390.486 106.023C389.754 105.531 389.304 104.847 389.136 103.971L390.486 103.746C390.63 104.298 390.957 104.739 391.467 105.069C391.983 105.393 392.619 105.555 393.375 105.555C394.113 105.555 394.695 105.402 395.121 105.096C395.547 104.784 395.76 104.361 395.76 103.827C395.76 103.527 395.691 103.284 395.553 103.098C395.421 102.906 395.148 102.729 394.734 102.567C394.32 102.405 393.702 102.213 392.88 101.991C391.998 101.751 391.308 101.511 390.81 101.271C390.312 101.031 389.958 100.755 389.748 100.443C389.538 100.125 389.433 99.738 389.433 99.282C389.433 98.73 389.589 98.247 389.901 97.833C390.213 97.413 390.645 97.089 391.197 96.861C391.749 96.627 392.391 96.51 393.123 96.51C393.855 96.51 394.509 96.63 395.085 96.87C395.667 97.104 396.135 97.434 396.489 97.86C396.843 98.286 397.053 98.781 397.119 99.345L395.769 99.588C395.679 99.018 395.394 98.568 394.914 98.238C394.44 97.902 393.837 97.728 393.105 97.716C392.415 97.698 391.854 97.83 391.422 98.112C390.99 98.388 390.774 98.757 390.774 99.219C390.774 99.477 390.852 99.699 391.008 99.885C391.164 100.065 391.446 100.236 391.854 100.398C392.268 100.56 392.856 100.737 393.618 100.929C394.512 101.157 395.214 101.397 395.724 101.649C396.234 101.901 396.597 102.198 396.813 102.54C397.029 102.882 397.137 103.305 397.137 103.809C397.137 104.727 396.795 105.45 396.111 105.978C395.433 106.5 394.497 106.761 393.303 106.761ZM398.953 108.381L399.034 107.724C399.274 107.742 399.448 107.694 399.556 107.58C399.664 107.466 399.73 107.313 399.754 107.121C399.778 106.929 399.784 106.722 399.772 106.5H398.953V104.601H400.492V106.86C400.492 107.412 400.351 107.826 400.069 108.102C399.793 108.378 399.421 108.471 398.953 108.381ZM411.289 106.77C410.383 106.77 409.609 106.545 408.967 106.095C408.325 105.639 407.833 105.024 407.491 104.25C407.149 103.476 406.978 102.603 406.978 101.631C406.978 100.665 407.146 99.795 407.482 99.021C407.824 98.247 408.313 97.635 408.949 97.185C409.585 96.735 410.347 96.51 411.235 96.51C412.147 96.51 412.915 96.732 413.539 97.176C414.163 97.62 414.634 98.229 414.952 99.003C415.276 99.771 415.438 100.647 415.438 101.631C415.438 102.597 415.279 103.47 414.961 104.25C414.643 105.024 414.175 105.639 413.557 106.095C412.939 106.545 412.183 106.77 411.289 106.77ZM411.424 105.537C412.114 105.537 412.684 105.369 413.134 105.033C413.584 104.697 413.92 104.235 414.142 103.647C414.364 103.053 414.475 102.381 414.475 101.631C414.475 100.869 414.364 100.197 414.142 99.615C413.92 99.027 413.584 98.568 413.134 98.238C412.69 97.908 412.129 97.743 411.451 97.743C410.755 97.743 410.179 97.914 409.723 98.256C409.267 98.598 408.928 99.063 408.706 99.651C408.49 100.239 408.382 100.899 408.382 101.631C408.382 102.369 408.493 103.035 408.715 103.629C408.943 104.217 409.282 104.682 409.732 105.024C410.182 105.366 410.746 105.537 411.424 105.537ZM414.475 106.5V99.183H414.331V93.54H415.663V106.5H414.475ZM418.188 106.5V96.78H419.376V99.12L419.142 98.814C419.25 98.526 419.391 98.262 419.565 98.022C419.739 97.776 419.928 97.575 420.132 97.419C420.384 97.197 420.678 97.029 421.014 96.915C421.35 96.795 421.689 96.726 422.031 96.708C422.373 96.684 422.685 96.708 422.967 96.78V98.022C422.613 97.932 422.226 97.911 421.806 97.959C421.386 98.007 420.999 98.175 420.645 98.463C420.321 98.715 420.078 99.018 419.916 99.372C419.754 99.72 419.646 100.092 419.592 100.488C419.538 100.878 419.511 101.265 419.511 101.649V106.5H418.188ZM427.086 106.77C426.354 106.77 425.739 106.638 425.241 106.374C424.749 106.11 424.38 105.759 424.134 105.321C423.888 104.883 423.765 104.406 423.765 103.89C423.765 103.362 423.87 102.912 424.08 102.54C424.296 102.162 424.587 101.853 424.953 101.613C425.325 101.373 425.754 101.19 426.24 101.064C426.732 100.944 427.275 100.839 427.869 100.749C428.469 100.653 429.054 100.572 429.624 100.506C430.2 100.434 430.704 100.365 431.136 100.299L430.668 100.587C430.686 99.627 430.5 98.916 430.11 98.454C429.72 97.992 429.042 97.761 428.076 97.761C427.41 97.761 426.846 97.911 426.384 98.211C425.928 98.511 425.607 98.985 425.421 99.633L424.134 99.255C424.356 98.385 424.803 97.71 425.475 97.23C426.147 96.75 427.02 96.51 428.094 96.51C428.982 96.51 429.735 96.678 430.353 97.014C430.977 97.344 431.418 97.824 431.676 98.454C431.796 98.736 431.874 99.051 431.91 99.399C431.946 99.747 431.964 100.101 431.964 100.461V106.5H430.785V104.061L431.127 104.205C430.797 105.039 430.284 105.675 429.588 106.113C428.892 106.551 428.058 106.77 427.086 106.77ZM427.239 105.627C427.857 105.627 428.397 105.516 428.859 105.294C429.321 105.072 429.693 104.769 429.975 104.385C430.257 103.995 430.44 103.557 430.524 103.071C430.596 102.759 430.635 102.417 430.641 102.045C430.647 101.667 430.65 101.385 430.65 101.199L431.154 101.46C430.704 101.52 430.215 101.58 429.687 101.64C429.165 101.7 428.649 101.769 428.139 101.847C427.635 101.925 427.179 102.018 426.771 102.126C426.495 102.204 426.228 102.315 425.97 102.459C425.712 102.597 425.499 102.783 425.331 103.017C425.169 103.251 425.088 103.542 425.088 103.89C425.088 104.172 425.157 104.445 425.295 104.709C425.439 104.973 425.667 105.192 425.979 105.366C426.297 105.54 426.717 105.627 427.239 105.627ZM436.025 106.5L433.055 96.771L434.378 96.78L436.682 104.331L438.995 96.78H440.201L442.514 104.331L444.836 96.78H446.15L443.18 106.5H442.028L439.598 98.76L437.177 106.5H436.025ZM447.952 94.935V93.45H449.275V94.935H447.952ZM447.952 106.5V96.78H449.275V106.5H447.952ZM458.993 106.5V101.541C458.993 101.001 458.942 100.506 458.84 100.056C458.738 99.6 458.573 99.204 458.345 98.868C458.123 98.526 457.832 98.262 457.472 98.076C457.118 97.89 456.686 97.797 456.176 97.797C455.708 97.797 455.294 97.878 454.934 98.04C454.58 98.202 454.28 98.436 454.034 98.742C453.794 99.042 453.611 99.408 453.485 99.84C453.359 100.272 453.296 100.764 453.296 101.316L452.36 101.109C452.36 100.113 452.534 99.276 452.882 98.598C453.23 97.92 453.71 97.407 454.322 97.059C454.934 96.711 455.636 96.537 456.428 96.537C457.01 96.537 457.517 96.627 457.949 96.807C458.387 96.987 458.756 97.23 459.056 97.536C459.362 97.842 459.608 98.193 459.794 98.589C459.98 98.979 460.115 99.396 460.199 99.84C460.283 100.278 460.325 100.716 460.325 101.154V106.5H458.993ZM451.964 106.5V96.78H453.161V99.174H453.296V106.5H451.964ZM466.521 111.09C466.023 111.09 465.531 111.015 465.045 110.865C464.565 110.721 464.121 110.49 463.713 110.172C463.305 109.86 462.963 109.452 462.687 108.948L463.884 108.282C464.154 108.822 464.532 109.209 465.018 109.443C465.51 109.683 466.011 109.803 466.521 109.803C467.223 109.803 467.79 109.671 468.222 109.407C468.66 109.149 468.978 108.765 469.176 108.255C469.374 107.745 469.47 107.109 469.464 106.347V103.755H469.617V96.78H470.796V106.365C470.796 106.641 470.787 106.905 470.769 107.157C470.757 107.415 470.73 107.667 470.688 107.913C470.574 108.639 470.337 109.236 469.977 109.704C469.623 110.172 469.155 110.52 468.573 110.748C467.997 110.976 467.313 111.09 466.521 111.09ZM466.431 106.77C465.525 106.77 464.751 106.545 464.109 106.095C463.467 105.639 462.975 105.024 462.633 104.25C462.291 103.476 462.12 102.603 462.12 101.631C462.12 100.665 462.288 99.795 462.624 99.021C462.966 98.247 463.455 97.635 464.091 97.185C464.727 96.735 465.489 96.51 466.377 96.51C467.289 96.51 468.057 96.732 468.681 97.176C469.305 97.62 469.776 98.229 470.094 99.003C470.418 99.771 470.58 100.647 470.58 101.631C470.58 102.597 470.421 103.47 470.103 104.25C469.785 105.024 469.317 105.639 468.699 106.095C468.081 106.545 467.325 106.77 466.431 106.77ZM466.566 105.537C467.256 105.537 467.826 105.369 468.276 105.033C468.726 104.697 469.062 104.235 469.284 103.647C469.506 103.053 469.617 102.381 469.617 101.631C469.617 100.869 469.506 100.197 469.284 99.615C469.062 99.027 468.726 98.568 468.276 98.238C467.832 97.908 467.271 97.743 466.593 97.743C465.897 97.743 465.321 97.914 464.865 98.256C464.409 98.598 464.07 99.063 463.848 99.651C463.632 100.239 463.524 100.899 463.524 101.631C463.524 102.369 463.635 103.035 463.857 103.629C464.085 104.217 464.424 104.682 464.874 105.024C465.324 105.366 465.888 105.537 466.566 105.537ZM477.879 106.5V96.06C477.879 95.808 477.891 95.559 477.915 95.313C477.945 95.067 478.002 94.833 478.086 94.611C478.17 94.383 478.302 94.173 478.482 93.981C478.68 93.765 478.896 93.609 479.13 93.513C479.364 93.411 479.607 93.345 479.859 93.315C480.117 93.285 480.369 93.27 480.615 93.27H481.857V94.386H480.705C480.201 94.386 479.823 94.509 479.571 94.755C479.325 95.001 479.202 95.388 479.202 95.916V106.5H477.879ZM476.196 97.914V96.78H481.857V97.914H476.196ZM483.297 106.5V96.78H484.485V99.12L484.251 98.814C484.359 98.526 484.5 98.262 484.674 98.022C484.848 97.776 485.037 97.575 485.241 97.419C485.493 97.197 485.787 97.029 486.123 96.915C486.459 96.795 486.798 96.726 487.14 96.708C487.482 96.684 487.794 96.708 488.076 96.78V98.022C487.722 97.932 487.335 97.911 486.915 97.959C486.495 98.007 486.108 98.175 485.754 98.463C485.43 98.715 485.187 99.018 485.025 99.372C484.863 99.72 484.755 100.092 484.701 100.488C484.647 100.878 484.62 101.265 484.62 101.649V106.5H483.297ZM493.667 106.77C492.701 106.77 491.876 106.551 491.192 106.113C490.508 105.675 489.983 105.069 489.617 104.295C489.251 103.521 489.068 102.633 489.068 101.631C489.068 100.611 489.254 99.717 489.626 98.949C489.998 98.181 490.526 97.584 491.21 97.158C491.9 96.726 492.719 96.51 493.667 96.51C494.639 96.51 495.467 96.729 496.151 97.167C496.841 97.599 497.366 98.202 497.726 98.976C498.092 99.744 498.275 100.629 498.275 101.631C498.275 102.651 498.092 103.548 497.726 104.322C497.36 105.09 496.832 105.69 496.142 106.122C495.452 106.554 494.627 106.77 493.667 106.77ZM493.667 105.501C494.747 105.501 495.551 105.144 496.079 104.43C496.607 103.71 496.871 102.777 496.871 101.631C496.871 100.455 496.604 99.519 496.07 98.823C495.542 98.127 494.741 97.779 493.667 97.779C492.941 97.779 492.341 97.944 491.867 98.274C491.399 98.598 491.048 99.051 490.814 99.633C490.586 100.209 490.472 100.875 490.472 101.631C490.472 102.801 490.742 103.74 491.282 104.448C491.822 105.15 492.617 105.501 493.667 105.501ZM511.852 106.5L511.861 100.119C511.861 99.369 511.651 98.781 511.231 98.355C510.817 97.923 510.289 97.707 509.647 97.707C509.281 97.707 508.924 97.791 508.576 97.959C508.228 98.127 507.94 98.397 507.712 98.769C507.49 99.141 507.379 99.627 507.379 100.227L506.596 100.002C506.578 99.306 506.713 98.697 507.001 98.175C507.295 97.653 507.697 97.248 508.207 96.96C508.723 96.666 509.305 96.519 509.953 96.519C510.931 96.519 511.714 96.822 512.302 97.428C512.89 98.028 513.184 98.841 513.184 99.867L513.175 106.5H511.852ZM500.251 106.5V96.78H501.439V99.174H501.583V106.5H500.251ZM506.065 106.5L506.074 100.209C506.074 99.435 505.867 98.826 505.453 98.382C505.045 97.932 504.505 97.707 503.833 97.707C503.161 97.707 502.618 97.938 502.204 98.4C501.79 98.856 501.583 99.465 501.583 100.227L500.791 99.795C500.791 99.171 500.938 98.613 501.232 98.121C501.526 97.623 501.928 97.233 502.438 96.951C502.948 96.663 503.527 96.519 504.175 96.519C504.793 96.519 505.342 96.651 505.822 96.915C506.308 97.179 506.689 97.563 506.965 98.067C507.241 98.571 507.379 99.183 507.379 99.903L507.37 106.5H506.065ZM40.36 133.5L44.824 120.54H46.579L51.043 133.5H49.666L45.427 121.278H45.949L41.737 133.5H40.36ZM42.349 130.359V129.117H49.045V130.359H42.349ZM57.5636 133.77C56.2736 133.77 55.1846 133.485 54.2966 132.915C53.4086 132.339 52.7366 131.544 52.2806 130.53C51.8246 129.516 51.5966 128.346 51.5966 127.02C51.5966 125.694 51.8246 124.524 52.2806 123.51C52.7366 122.496 53.4086 121.704 54.2966 121.134C55.1846 120.558 56.2736 120.27 57.5636 120.27C59.0696 120.27 60.2996 120.657 61.2536 121.431C62.2076 122.199 62.8616 123.231 63.2156 124.527L61.8656 124.878C61.5896 123.852 61.0946 123.039 60.3806 122.439C59.6666 121.839 58.7276 121.539 57.5636 121.539C56.5496 121.539 55.7066 121.77 55.0346 122.232C54.3626 122.694 53.8556 123.339 53.5136 124.167C53.1776 124.989 53.0036 125.94 52.9916 127.02C52.9856 128.1 53.1506 129.051 53.4866 129.873C53.8286 130.695 54.3386 131.34 55.0166 131.808C55.7006 132.27 56.5496 132.501 57.5636 132.501C58.7276 132.501 59.6666 132.201 60.3806 131.601C61.0946 130.995 61.5896 130.182 61.8656 129.162L63.2156 129.513C62.8616 130.809 62.2076 131.844 61.2536 132.618C60.2996 133.386 59.0696 133.77 57.5636 133.77ZM65.2014 133.5V120.54H70.2054C70.3314 120.54 70.4724 120.546 70.6284 120.558C70.7904 120.564 70.9524 120.582 71.1144 120.612C71.7924 120.714 72.3654 120.951 72.8334 121.323C73.3074 121.689 73.6644 122.151 73.9044 122.709C74.1504 123.267 74.2734 123.885 74.2734 124.563C74.2734 125.541 74.0154 126.39 73.4994 127.11C72.9834 127.83 72.2454 128.283 71.2854 128.469L70.8264 128.577H66.5244V133.5H65.2014ZM73.0494 133.5L70.4934 128.226L71.7624 127.74L74.5704 133.5H73.0494ZM66.5244 127.317H70.1694C70.2774 127.317 70.4034 127.311 70.5474 127.299C70.6914 127.287 70.8324 127.266 70.9704 127.236C71.4144 127.14 71.7774 126.957 72.0594 126.687C72.3474 126.417 72.5604 126.096 72.6984 125.724C72.8424 125.352 72.9144 124.965 72.9144 124.563C72.9144 124.161 72.8424 123.774 72.6984 123.402C72.5604 123.024 72.3474 122.7 72.0594 122.43C71.7774 122.16 71.4144 121.977 70.9704 121.881C70.8324 121.851 70.6914 121.833 70.5474 121.827C70.4034 121.815 70.2774 121.809 70.1694 121.809H66.5244V127.317ZM75.6569 133.5L80.1209 120.54H81.8759L86.3399 133.5H84.9629L80.7239 121.278H81.2459L77.0339 133.5H75.6569ZM77.6459 130.359V129.117H84.3419V130.359H77.6459ZM95.3396 133.77C94.4336 133.77 93.6596 133.545 93.0176 133.095C92.3756 132.639 91.8836 132.024 91.5416 131.25C91.1996 130.476 91.0286 129.603 91.0286 128.631C91.0286 127.665 91.1966 126.795 91.5326 126.021C91.8746 125.247 92.3636 124.635 92.9996 124.185C93.6356 123.735 94.3976 123.51 95.2856 123.51C96.1976 123.51 96.9656 123.732 97.5896 124.176C98.2136 124.62 98.6846 125.229 99.0026 126.003C99.3266 126.771 99.4886 127.647 99.4886 128.631C99.4886 129.597 99.3296 130.47 99.0116 131.25C98.6936 132.024 98.2256 132.639 97.6076 133.095C96.9896 133.545 96.2336 133.77 95.3396 133.77ZM95.4746 132.537C96.1646 132.537 96.7346 132.369 97.1846 132.033C97.6346 131.697 97.9706 131.235 98.1926 130.647C98.4146 130.053 98.5256 129.381 98.5256 128.631C98.5256 127.869 98.4146 127.197 98.1926 126.615C97.9706 126.027 97.6346 125.568 97.1846 125.238C96.7406 124.908 96.1796 124.743 95.5016 124.743C94.8056 124.743 94.2296 124.914 93.7736 125.256C93.3176 125.598 92.9786 126.063 92.7566 126.651C92.5406 127.239 92.4326 127.899 92.4326 128.631C92.4326 129.369 92.5436 130.035 92.7656 130.629C92.9936 131.217 93.3326 131.682 93.7826 132.024C94.2326 132.366 94.7966 132.537 95.4746 132.537ZM98.5256 133.5V126.183H98.3816V120.54H99.7136V133.5H98.5256ZM105.02 133.77C104.288 133.77 103.673 133.638 103.175 133.374C102.683 133.11 102.314 132.759 102.068 132.321C101.822 131.883 101.699 131.406 101.699 130.89C101.699 130.362 101.804 129.912 102.014 129.54C102.23 129.162 102.521 128.853 102.887 128.613C103.259 128.373 103.688 128.19 104.174 128.064C104.666 127.944 105.209 127.839 105.803 127.749C106.403 127.653 106.988 127.572 107.558 127.506C108.134 127.434 108.638 127.365 109.07 127.299L108.602 127.587C108.62 126.627 108.434 125.916 108.044 125.454C107.654 124.992 106.976 124.761 106.01 124.761C105.344 124.761 104.78 124.911 104.318 125.211C103.862 125.511 103.541 125.985 103.355 126.633L102.068 126.255C102.29 125.385 102.737 124.71 103.409 124.23C104.081 123.75 104.954 123.51 106.028 123.51C106.916 123.51 107.669 123.678 108.287 124.014C108.911 124.344 109.352 124.824 109.61 125.454C109.73 125.736 109.808 126.051 109.844 126.399C109.88 126.747 109.898 127.101 109.898 127.461V133.5H108.719V131.061L109.061 131.205C108.731 132.039 108.218 132.675 107.522 133.113C106.826 133.551 105.992 133.77 105.02 133.77ZM105.173 132.627C105.791 132.627 106.331 132.516 106.793 132.294C107.255 132.072 107.627 131.769 107.909 131.385C108.191 130.995 108.374 130.557 108.458 130.071C108.53 129.759 108.569 129.417 108.575 129.045C108.581 128.667 108.584 128.385 108.584 128.199L109.088 128.46C108.638 128.52 108.149 128.58 107.621 128.64C107.099 128.7 106.583 128.769 106.073 128.847C105.569 128.925 105.113 129.018 104.705 129.126C104.429 129.204 104.162 129.315 103.904 129.459C103.646 129.597 103.433 129.783 103.265 130.017C103.103 130.251 103.022 130.542 103.022 130.89C103.022 131.172 103.091 131.445 103.229 131.709C103.373 131.973 103.601 132.192 103.913 132.366C104.231 132.54 104.651 132.627 105.173 132.627ZM117.532 133.5C116.986 133.614 116.446 133.659 115.912 133.635C115.384 133.611 114.91 133.497 114.49 133.293C114.076 133.089 113.761 132.771 113.545 132.339C113.371 131.979 113.275 131.616 113.257 131.25C113.245 130.878 113.239 130.455 113.239 129.981V121.08H114.553V129.927C114.553 130.335 114.556 130.677 114.562 130.953C114.574 131.223 114.637 131.463 114.751 131.673C114.967 132.075 115.309 132.315 115.777 132.393C116.251 132.471 116.836 132.453 117.532 132.339V133.5ZM111.16 124.914V123.78H117.532V124.914H111.16ZM122.229 133.77C121.497 133.77 120.882 133.638 120.384 133.374C119.892 133.11 119.523 132.759 119.277 132.321C119.031 131.883 118.908 131.406 118.908 130.89C118.908 130.362 119.013 129.912 119.223 129.54C119.439 129.162 119.73 128.853 120.096 128.613C120.468 128.373 120.897 128.19 121.383 128.064C121.875 127.944 122.418 127.839 123.012 127.749C123.612 127.653 124.197 127.572 124.767 127.506C125.343 127.434 125.847 127.365 126.279 127.299L125.811 127.587C125.829 126.627 125.643 125.916 125.253 125.454C124.863 124.992 124.185 124.761 123.219 124.761C122.553 124.761 121.989 124.911 121.527 125.211C121.071 125.511 120.75 125.985 120.563 126.633L119.277 126.255C119.499 125.385 119.946 124.71 120.618 124.23C121.29 123.75 122.163 123.51 123.237 123.51C124.125 123.51 124.878 123.678 125.496 124.014C126.12 124.344 126.561 124.824 126.819 125.454C126.939 125.736 127.017 126.051 127.053 126.399C127.089 126.747 127.107 127.101 127.107 127.461V133.5H125.928V131.061L126.27 131.205C125.94 132.039 125.427 132.675 124.731 133.113C124.035 133.551 123.201 133.77 122.229 133.77ZM122.382 132.627C123 132.627 123.54 132.516 124.002 132.294C124.464 132.072 124.836 131.769 125.118 131.385C125.4 130.995 125.583 130.557 125.667 130.071C125.739 129.759 125.778 129.417 125.784 129.045C125.79 128.667 125.793 128.385 125.793 128.199L126.297 128.46C125.847 128.52 125.358 128.58 124.83 128.64C124.308 128.7 123.792 128.769 123.282 128.847C122.778 128.925 122.322 129.018 121.914 129.126C121.638 129.204 121.371 129.315 121.113 129.459C120.855 129.597 120.642 129.783 120.474 130.017C120.312 130.251 120.231 130.542 120.231 130.89C120.231 131.172 120.3 131.445 120.438 131.709C120.582 131.973 120.81 132.192 121.122 132.366C121.44 132.54 121.86 132.627 122.382 132.627ZM133.814 133.77C132.92 133.77 132.164 133.545 131.546 133.095C130.928 132.639 130.46 132.024 130.142 131.25C129.824 130.47 129.665 129.597 129.665 128.631C129.665 127.647 129.824 126.771 130.142 126.003C130.466 125.229 130.94 124.62 131.564 124.176C132.188 123.732 132.956 123.51 133.868 123.51C134.756 123.51 135.518 123.735 136.154 124.185C136.79 124.635 137.276 125.247 137.612 126.021C137.954 126.795 138.125 127.665 138.125 128.631C138.125 129.603 137.954 130.476 137.612 131.25C137.27 132.024 136.778 132.639 136.136 133.095C135.494 133.545 134.72 133.77 133.814 133.77ZM129.44 133.5V120.54H130.772V126.183H130.628V133.5H129.44ZM133.679 132.537C134.357 132.537 134.921 132.366 135.371 132.024C135.821 131.682 136.157 131.217 136.379 130.629C136.607 130.035 136.721 129.369 136.721 128.631C136.721 127.899 136.61 127.239 136.388 126.651C136.166 126.063 135.827 125.598 135.371 125.256C134.921 124.914 134.348 124.743 133.652 124.743C132.974 124.743 132.41 124.908 131.96 125.238C131.516 125.568 131.183 126.027 130.961 126.615C130.739 127.197 130.628 127.869 130.628 128.631C130.628 129.381 130.739 130.053 130.961 130.647C131.183 131.235 131.519 131.697 131.969 132.033C132.419 132.369 132.989 132.537 133.679 132.537ZM142.883 133.77C142.151 133.77 141.536 133.638 141.038 133.374C140.546 133.11 140.177 132.759 139.931 132.321C139.685 131.883 139.562 131.406 139.562 130.89C139.562 130.362 139.667 129.912 139.877 129.54C140.093 129.162 140.384 128.853 140.75 128.613C141.122 128.373 141.551 128.19 142.037 128.064C142.529 127.944 143.072 127.839 143.666 127.749C144.266 127.653 144.851 127.572 145.421 127.506C145.997 127.434 146.501 127.365 146.933 127.299L146.465 127.587C146.483 126.627 146.297 125.916 145.907 125.454C145.517 124.992 144.839 124.761 143.873 124.761C143.207 124.761 142.643 124.911 142.181 125.211C141.725 125.511 141.404 125.985 141.218 126.633L139.931 126.255C140.153 125.385 140.6 124.71 141.272 124.23C141.944 123.75 142.817 123.51 143.891 123.51C144.779 123.51 145.532 123.678 146.15 124.014C146.774 124.344 147.215 124.824 147.473 125.454C147.593 125.736 147.671 126.051 147.707 126.399C147.743 126.747 147.761 127.101 147.761 127.461V133.5H146.582V131.061L146.924 131.205C146.594 132.039 146.081 132.675 145.385 133.113C144.689 133.551 143.855 133.77 142.883 133.77ZM143.036 132.627C143.654 132.627 144.194 132.516 144.656 132.294C145.118 132.072 145.49 131.769 145.772 131.385C146.054 130.995 146.237 130.557 146.321 130.071C146.393 129.759 146.432 129.417 146.438 129.045C146.444 128.667 146.447 128.385 146.447 128.199L146.951 128.46C146.501 128.52 146.012 128.58 145.484 128.64C144.962 128.7 144.446 128.769 143.936 128.847C143.432 128.925 142.976 129.018 142.568 129.126C142.292 129.204 142.025 129.315 141.767 129.459C141.509 129.597 141.296 129.783 141.128 130.017C140.966 130.251 140.885 130.542 140.885 130.89C140.885 131.172 140.954 131.445 141.092 131.709C141.236 131.973 141.464 132.192 141.776 132.366C142.094 132.54 142.514 132.627 143.036 132.627ZM153.731 133.761C152.591 133.761 151.652 133.515 150.914 133.023C150.182 132.531 149.732 131.847 149.564 130.971L150.914 130.746C151.058 131.298 151.385 131.739 151.895 132.069C152.411 132.393 153.047 132.555 153.803 132.555C154.541 132.555 155.123 132.402 155.549 132.096C155.975 131.784 156.188 131.361 156.188 130.827C156.188 130.527 156.119 130.284 155.981 130.098C155.849 129.906 155.576 129.729 155.162 129.567C154.748 129.405 154.13 129.213 153.308 128.991C152.426 128.751 151.736 128.511 151.238 128.271C150.74 128.031 150.386 127.755 150.176 127.443C149.966 127.125 149.861 126.738 149.861 126.282C149.861 125.73 150.017 125.247 150.329 124.833C150.641 124.413 151.073 124.089 151.625 123.861C152.177 123.627 152.819 123.51 153.551 123.51C154.283 123.51 154.937 123.63 155.513 123.87C156.095 124.104 156.563 124.434 156.917 124.86C157.271 125.286 157.481 125.781 157.547 126.345L156.197 126.588C156.107 126.018 155.822 125.568 155.342 125.238C154.868 124.902 154.265 124.728 153.533 124.716C152.843 124.698 152.282 124.83 151.85 125.112C151.418 125.388 151.202 125.757 151.202 126.219C151.202 126.477 151.28 126.699 151.436 126.885C151.592 127.065 151.874 127.236 152.282 127.398C152.696 127.56 153.284 127.737 154.046 127.929C154.94 128.157 155.642 128.397 156.152 128.649C156.662 128.901 157.025 129.198 157.241 129.54C157.457 129.882 157.565 130.305 157.565 130.809C157.565 131.727 157.223 132.45 156.539 132.978C155.861 133.5 154.925 133.761 153.731 133.761ZM163.674 133.77C162.726 133.77 161.904 133.56 161.208 133.14C160.518 132.72 159.981 132.129 159.597 131.367C159.213 130.605 159.021 129.711 159.021 128.685C159.021 127.623 159.21 126.705 159.588 125.931C159.966 125.157 160.497 124.56 161.181 124.14C161.871 123.72 162.684 123.51 163.62 123.51C164.58 123.51 165.399 123.732 166.077 124.176C166.755 124.614 167.268 125.244 167.616 126.066C167.964 126.888 168.123 127.869 168.093 129.009H166.743V128.541C166.719 127.281 166.446 126.33 165.924 125.688C165.408 125.046 164.652 124.725 163.656 124.725C162.612 124.725 161.811 125.064 161.253 125.742C160.701 126.42 160.425 127.386 160.425 128.64C160.425 129.864 160.701 130.815 161.253 131.493C161.811 132.165 162.6 132.501 163.62 132.501C164.316 132.501 164.922 132.342 165.438 132.024C165.96 131.7 166.371 131.235 166.671 130.629L167.904 131.106C167.52 131.952 166.953 132.609 166.203 133.077C165.459 133.539 164.616 133.77 163.674 133.77ZM159.957 129.009V127.902H167.382V129.009H159.957Z"
                fill="#282828"
              />
            </svg>