<svg width="32" height="32" viewBox="0 0 32 32" fill="none" xmlns="http://www.w3.org/2000/svg">
<path fill-rule="evenodd" clip-rule="evenodd" d="M17.9504 14.6961L27.6366 5.00984L26.9902 4.36334L17.2995 14.0539L22.544 1.39186L21.6994 1.042L16.4558 13.7017V0H15.5416V13.7017L10.2981 1.042L9.45344 1.39186L14.6961 14.0496L5.00984 4.36334L4.36334 5.00984L14.0496 14.6961L1.39186 9.45344L1.042 10.2981L13.7017 15.5416H0V16.4558H13.7017L1.042 21.6994L1.39186 22.544L14.0539 17.2995L4.36334 26.9902L5.00984 27.6366L14.6961 17.9504L9.45344 30.6082L10.2981 30.9579L15.5416 18.2984V32H16.4558V18.2984L21.6994 30.9579L22.544 30.6082L17.2995 17.9461L26.9902 27.6366L27.6366 26.9902L17.9461 17.2995L30.6082 22.544L30.9579 21.6994L18.2984 16.4558H32V15.5416H18.2984L30.9579 10.2981L30.6082 9.45344L17.9504 14.6961Z" fill="#9A51E1"/>
</svg>
