<svg width="62" height="62" viewBox="0 0 62 62" fill="none" xmlns="http://www.w3.org/2000/svg">
<path fill-rule="evenodd" clip-rule="evenodd" d="M34.7789 28.4738L53.546 9.70657L52.2936 8.45398L33.5178 27.2295L43.679 2.69673L42.0425 2.01888L31.8832 26.547V0H30.1118V26.547L19.9527 2.01888L18.316 2.69673L28.4738 27.221L9.70657 8.45398L8.45398 9.70657L27.221 28.4736L2.69673 18.316L2.01888 19.9527L26.547 30.1118H0V31.8832H26.547L2.01888 42.0425L2.69673 43.679L27.2295 33.5178L8.45398 52.2936L9.70657 53.546L28.4738 34.7789L18.316 59.3033L19.9527 59.981L30.1118 35.4532V62H31.8832V35.4532L42.0425 59.981L43.679 59.3033L33.5178 34.7705L52.2936 53.546L53.546 52.2936L34.7705 33.5178L59.3033 43.679L59.981 42.0425L35.4532 31.8832H62V30.1118H35.4532L59.981 19.9527L59.3033 18.316L34.7789 28.4738Z" fill="#9A51E1"/>
</svg>
