<svg width="809" height="539" viewBox="0 0 809 539" fill="none" xmlns="http://www.w3.org/2000/svg">
<g filter="url(#filter0_dd_1929_16711)">
<g clip-path="url(#clip0_1929_16711)">
<rect x="4" y="3.60156" width="800.454" height="530.301" rx="16" fill="#EDF1F6"/>
<g clip-path="url(#clip1_1929_16711)" filter="url(#filter1_d_1929_16711)">
<rect width="1440.82" height="4984.83" transform="translate(131.07 -319.582)" fill="white"/>
<path d="M247.431 -0.325244L244.093 -0.349258V-17.6631H250.241C252.45 -17.6631 256.124 -16.3183 256.124 -12.188C256.124 -8.05763 252.45 -6.66484 250.505 -6.66484H247.431V-0.325244ZM247.503 -14.5653L247.455 -9.78661C248.44 -9.81062 249.689 -9.85865 250.385 -9.85865C251.081 -9.85865 252.81 -10.0508 252.81 -12.308C252.81 -14.5653 250.793 -14.5653 250.433 -14.5653H247.503ZM257.554 -0.373272V-12.1159H260.676V-10.3629C261.06 -11.2995 261.636 -11.8758 262.813 -12.308C263.678 -12.6202 265.142 -12.5482 265.959 -12.0679L265.094 -9.21028C264.134 -9.66654 262.549 -9.73858 261.636 -8.706C260.82 -7.76947 260.676 -7.07307 260.676 -3.9513V-0.349258L257.554 -0.373272ZM268.974 -14.2291C267.87 -14.2291 266.981 -15.0696 266.981 -16.1742C266.981 -17.2789 267.87 -18.1193 268.974 -18.1193C270.055 -18.1193 270.944 -17.2789 270.944 -16.1742C270.944 -15.0696 270.055 -14.2291 268.974 -14.2291ZM267.342 -12.284H270.679V-0.277217H267.342V-12.284ZM273.407 -0.325244V-12.164H276.481V-10.483C276.697 -10.7952 277.897 -12.308 279.722 -12.5242C282.268 -12.8363 283.493 -11.3955 283.925 -10.387C284.453 -11.3955 285.654 -12.284 287.503 -12.5242C290.985 -12.9564 292.282 -10.1708 292.282 -8.15368V-0.349258H289.04V-7.19314C289.04 -8.68198 288.511 -9.66654 287.071 -9.66654C285.63 -9.66654 284.525 -8.68198 284.525 -6.56879V-0.325244H281.283V-6.49674C281.283 -8.41783 280.995 -9.64253 279.122 -9.64253C277.609 -9.64253 276.649 -8.68198 276.649 -6.01647V-0.325244H273.407ZM298.786 0.0349599C296.241 0.0349599 294.824 -1.18973 294.56 -3.13484C294.296 -5.75232 296.121 -6.92899 298.714 -7.26518C299.891 -7.43328 301.284 -7.55334 301.62 -7.81749C301.956 -8.08164 302.22 -9.45042 300.563 -9.88266C299.051 -10.2669 297.85 -9.61852 297.562 -8.08164L294.752 -8.68198C294.92 -9.66654 295.569 -10.9633 297.274 -11.9238C298.498 -12.6202 300.515 -12.8604 302.172 -12.236C304.358 -11.4195 305.294 -9.88266 305.294 -8.20171L305.366 -0.325244H302.22L302.124 -1.69402C301.596 -0.949599 300.515 0.0349599 298.786 0.0349599ZM300.155 -2.48647C301.692 -2.79865 302.34 -4.02334 302.172 -5.22402C299.603 -4.81579 297.706 -5.39212 297.706 -3.78321C297.706 -2.63055 298.738 -2.19831 300.155 -2.48647ZM307.926 -0.373272V-12.1159H311.048V-10.3629C311.432 -11.2995 312.009 -11.8758 313.185 -12.308C314.05 -12.6202 315.515 -12.5482 316.331 -12.0679L315.467 -9.21028C314.506 -9.66654 312.921 -9.73858 312.009 -8.706C311.192 -7.76947 311.048 -7.07307 311.048 -3.9513V-0.349258L307.926 -0.373272ZM322.446 4.98177H318.988L321.726 -0.853544L316.803 -12.212L320.261 -12.188L323.455 -4.86382L326.408 -12.188H329.866L322.446 4.98177Z" fill="#2B3C5A"/>
<path d="M374.812 64.5977H371.128V55.2544H374.812C377.739 55.2544 379.771 57.1174 379.771 59.933C379.771 62.7486 377.739 64.5977 374.812 64.5977ZM374.812 62.8467C376.661 62.8467 377.739 61.5159 377.739 59.933C377.739 58.2801 376.731 57.0053 374.812 57.0053H373.117V62.8467H374.812ZM384.32 64.7658C382.261 64.7658 380.706 63.379 380.706 61.2077C380.706 59.2466 382.149 57.6637 384.208 57.6637C386.225 57.6637 387.598 59.1766 387.598 61.3898V61.7821H382.569C382.681 62.6365 383.367 63.3509 384.516 63.3509C385.09 63.3509 385.889 63.0988 386.323 62.6786L387.108 63.8272C386.435 64.4436 385.371 64.7658 384.32 64.7658ZM385.875 60.5774C385.833 59.933 385.385 59.0785 384.208 59.0785C383.101 59.0785 382.625 59.905 382.541 60.5774H385.875ZM391.068 64.5977H389.275V59.3867H388.154V57.8318H389.275V57.4676C389.275 56.0248 390.2 55.1143 391.558 55.1143C392.203 55.1143 392.889 55.2824 393.323 55.7446L392.651 56.7952C392.469 56.6131 392.231 56.5151 391.909 56.5151C391.418 56.5151 391.068 56.8373 391.068 57.4676V57.8318H392.441V59.3867H391.068V64.5977ZM399.307 64.5977H397.528V63.8973C397.066 64.4436 396.267 64.7658 395.385 64.7658C394.306 64.7658 393.031 64.0373 393.031 62.5245C393.031 60.9416 394.306 60.3392 395.385 60.3392C396.281 60.3392 397.08 60.6334 397.528 61.1657V60.2552C397.528 59.5688 396.939 59.1205 396.043 59.1205C395.315 59.1205 394.642 59.3867 394.068 59.919L393.395 58.7283C394.222 57.9999 395.287 57.6637 396.351 57.6637C397.892 57.6637 399.307 58.2801 399.307 60.2272V64.5977ZM396.099 63.5611C396.673 63.5611 397.234 63.365 397.528 62.9727V62.1323C397.234 61.74 396.673 61.5439 396.099 61.5439C395.399 61.5439 394.824 61.9081 394.824 62.5665C394.824 63.1969 395.399 63.5611 396.099 63.5611ZM407.417 64.5977H405.638V63.7432C405.176 64.2615 404.363 64.7658 403.257 64.7658C401.772 64.7658 401.071 63.9533 401.071 62.6365V57.8318H402.85V61.9361C402.85 62.8747 403.341 63.1829 404.097 63.1829C404.783 63.1829 405.33 62.8046 405.638 62.4124V57.8318H407.417V64.5977ZM410.962 64.5977H409.183V55.2544H410.962V64.5977ZM414.996 64.7658C413.749 64.7658 413.077 64.1214 413.077 62.9167V59.3867H411.956V57.8318H413.077V55.9828H414.87V57.8318H416.242V59.3867H414.87V62.4404C414.87 62.8607 415.094 63.1829 415.486 63.1829C415.752 63.1829 416.004 63.0848 416.102 62.9867L416.481 64.3315C416.214 64.5696 415.738 64.7658 414.996 64.7658Z" fill="#2B3C5A"/>
<path d="M472.171 64.5977H470.182V55.2544H472.171V64.5977ZM477.136 64.7658C475.049 64.7658 473.55 63.2949 473.55 61.2077C473.55 59.1346 475.049 57.6637 477.136 57.6637C478.523 57.6637 479.363 58.2661 479.812 58.8824L478.649 59.975C478.327 59.4988 477.836 59.2466 477.22 59.2466C476.142 59.2466 475.385 60.0311 475.385 61.2077C475.385 62.3844 476.142 63.1829 477.22 63.1829C477.836 63.1829 478.327 62.9027 478.649 62.4544L479.812 63.5331C479.363 64.1634 478.523 64.7658 477.136 64.7658ZM484.112 64.7658C481.885 64.7658 480.54 63.1408 480.54 61.2077C480.54 59.2886 481.885 57.6637 484.112 57.6637C486.354 57.6637 487.698 59.2886 487.698 61.2077C487.698 63.1408 486.354 64.7658 484.112 64.7658ZM484.112 63.1829C485.219 63.1829 485.849 62.2723 485.849 61.2077C485.849 60.1571 485.219 59.2466 484.112 59.2466C483.006 59.2466 482.389 60.1571 482.389 61.2077C482.389 62.2723 483.006 63.1829 484.112 63.1829ZM495.364 64.5977H493.585V60.5073C493.585 59.5688 493.095 59.2466 492.338 59.2466C491.638 59.2466 491.091 59.6388 490.797 60.0451V64.5977H489.018V57.8318H490.797V58.7143C491.231 58.196 492.058 57.6637 493.165 57.6637C494.649 57.6637 495.364 58.5042 495.364 59.8209V64.5977ZM506.696 64.5977H500.756V55.2544H502.745V62.8467H506.696V64.5977ZM511.076 64.7658C509.017 64.7658 507.462 63.379 507.462 61.2077C507.462 59.2466 508.905 57.6637 510.964 57.6637C512.981 57.6637 514.354 59.1766 514.354 61.3898V61.7821H509.325C509.437 62.6365 510.123 63.3509 511.272 63.3509C511.846 63.3509 512.645 63.0988 513.079 62.6786L513.863 63.8272C513.191 64.4436 512.126 64.7658 511.076 64.7658ZM512.631 60.5774C512.589 59.933 512.141 59.0785 510.964 59.0785C509.857 59.0785 509.381 59.905 509.297 60.5774H512.631ZM517.824 64.5977H516.031V59.3867H514.91V57.8318H516.031V57.4676C516.031 56.0248 516.956 55.1143 518.314 55.1143C518.959 55.1143 519.645 55.2824 520.079 55.7446L519.407 56.7952C519.225 56.6131 518.987 56.5151 518.664 56.5151C518.174 56.5151 517.824 56.8373 517.824 57.4676V57.8318H519.197V59.3867H517.824V64.5977ZM522.491 64.7658C521.244 64.7658 520.572 64.1214 520.572 62.9167V59.3867H519.451V57.8318H520.572V55.9828H522.365V57.8318H523.737V59.3867H522.365V62.4404C522.365 62.8607 522.589 63.1829 522.981 63.1829C523.247 63.1829 523.499 63.0848 523.597 62.9867L523.976 64.3315C523.709 64.5696 523.233 64.7658 522.491 64.7658Z" fill="#2B3C5A"/>
<path d="M595.242 64.5977H593.253V55.2544H595.242V64.5977ZM600.206 64.7658C598.119 64.7658 596.62 63.2949 596.62 61.2077C596.62 59.1346 598.119 57.6637 600.206 57.6637C601.593 57.6637 602.434 58.2661 602.882 58.8824L601.719 59.975C601.397 59.4988 600.907 59.2466 600.29 59.2466C599.212 59.2466 598.455 60.0311 598.455 61.2077C598.455 62.3844 599.212 63.1829 600.29 63.1829C600.907 63.1829 601.397 62.9027 601.719 62.4544L602.882 63.5331C602.434 64.1634 601.593 64.7658 600.206 64.7658ZM607.183 64.7658C604.955 64.7658 603.611 63.1408 603.611 61.2077C603.611 59.2886 604.955 57.6637 607.183 57.6637C609.424 57.6637 610.769 59.2886 610.769 61.2077C610.769 63.1408 609.424 64.7658 607.183 64.7658ZM607.183 63.1829C608.289 63.1829 608.92 62.2723 608.92 61.2077C608.92 60.1571 608.289 59.2466 607.183 59.2466C606.076 59.2466 605.46 60.1571 605.46 61.2077C605.46 62.2723 606.076 63.1829 607.183 63.1829ZM618.434 64.5977H616.655V60.5073C616.655 59.5688 616.165 59.2466 615.408 59.2466C614.708 59.2466 614.162 59.6388 613.868 60.0451V64.5977H612.089V57.8318H613.868V58.7143C614.302 58.196 615.128 57.6637 616.235 57.6637C617.72 57.6637 618.434 58.5042 618.434 59.8209V64.5977ZM631.391 64.5977H629.108L627.273 61.2778H625.816V64.5977H623.827V55.2544H628.197C630.144 55.2544 631.335 56.5291 631.335 58.2661C631.335 59.919 630.298 60.8015 629.29 61.0396L631.391 64.5977ZM627.903 59.5268C628.701 59.5268 629.304 59.0505 629.304 58.2661C629.304 57.4816 628.701 57.0053 627.903 57.0053H625.816V59.5268H627.903ZM633.668 57.1034C633.094 57.1034 632.604 56.6271 632.604 56.0388C632.604 55.4505 633.094 54.9882 633.668 54.9882C634.257 54.9882 634.733 55.4505 634.733 56.0388C634.733 56.6271 634.257 57.1034 633.668 57.1034ZM634.565 64.5977H632.786V57.8318H634.565V64.5977ZM639.102 67.3432C637.94 67.3432 637.043 67.0771 636.189 66.3346L636.987 65.0459C637.534 65.6483 638.248 65.8864 639.102 65.8864C639.957 65.8864 640.965 65.5082 640.965 64.1774V63.491C640.433 64.1634 639.705 64.5556 638.878 64.5556C637.183 64.5556 635.895 63.365 635.895 61.1097C635.895 58.8964 637.169 57.6637 638.878 57.6637C639.691 57.6637 640.419 58.0139 640.965 58.7003V57.8318H642.758V64.1354C642.758 66.7129 640.769 67.3432 639.102 67.3432ZM639.439 62.9727C640.027 62.9727 640.671 62.6365 640.965 62.2023V60.0171C640.671 59.5688 640.027 59.2466 639.439 59.2466C638.43 59.2466 637.73 59.947 637.73 61.1097C637.73 62.2723 638.43 62.9727 639.439 62.9727ZM650.883 64.5977H649.104V60.4793C649.104 59.5408 648.613 59.2466 647.843 59.2466C647.156 59.2466 646.61 59.6388 646.302 60.0451V64.5977H644.523V55.2544H646.302V58.7143C646.736 58.196 647.577 57.6637 648.683 57.6637C650.168 57.6637 650.883 58.4762 650.883 59.7929V64.5977ZM654.918 64.7658C653.671 64.7658 652.999 64.1214 652.999 62.9167V59.3867H651.878V57.8318H652.999V55.9828H654.792V57.8318H656.165V59.3867H654.792V62.4404C654.792 62.8607 655.016 63.1829 655.408 63.1829C655.674 63.1829 655.926 63.0848 656.025 62.9867L656.403 64.3315C656.137 64.5696 655.66 64.7658 654.918 64.7658Z" fill="#2B3C5A"/>
<path d="M718.312 64.5977H716.323V55.2544H718.312V64.5977ZM723.277 64.7658C721.19 64.7658 719.691 63.2949 719.691 61.2077C719.691 59.1346 721.19 57.6637 723.277 57.6637C724.663 57.6637 725.504 58.2661 725.952 58.8824L724.79 59.975C724.467 59.4988 723.977 59.2466 723.361 59.2466C722.282 59.2466 721.526 60.0311 721.526 61.2077C721.526 62.3844 722.282 63.1829 723.361 63.1829C723.977 63.1829 724.467 62.9027 724.79 62.4544L725.952 63.5331C725.504 64.1634 724.663 64.7658 723.277 64.7658ZM730.253 64.7658C728.026 64.7658 726.681 63.1408 726.681 61.2077C726.681 59.2886 728.026 57.6637 730.253 57.6637C732.494 57.6637 733.839 59.2886 733.839 61.2077C733.839 63.1408 732.494 64.7658 730.253 64.7658ZM730.253 63.1829C731.36 63.1829 731.99 62.2723 731.99 61.2077C731.99 60.1571 731.36 59.2466 730.253 59.2466C729.146 59.2466 728.53 60.1571 728.53 61.2077C728.53 62.2723 729.146 63.1829 730.253 63.1829ZM741.504 64.5977H739.725V60.5073C739.725 59.5688 739.235 59.2466 738.479 59.2466C737.778 59.2466 737.232 59.6388 736.938 60.0451V64.5977H735.159V57.8318H736.938V58.7143C737.372 58.196 738.199 57.6637 739.305 57.6637C740.79 57.6637 741.504 58.5042 741.504 59.8209V64.5977ZM751.323 64.7658C748.508 64.7658 746.449 62.7486 746.449 59.933C746.449 57.1174 748.508 55.1003 751.323 55.1003C754.153 55.1003 756.212 57.1174 756.212 59.933C756.212 62.7486 754.153 64.7658 751.323 64.7658ZM751.323 63.0008C753.046 63.0008 754.167 61.67 754.167 59.933C754.167 58.182 753.046 56.8653 751.323 56.8653C749.6 56.8653 748.494 58.182 748.494 59.933C748.494 61.67 749.6 63.0008 751.323 63.0008ZM763.912 64.5977H762.133V60.5073C762.133 59.5688 761.642 59.2466 760.886 59.2466C760.186 59.2466 759.639 59.6388 759.345 60.0451V64.5977H757.566V57.8318H759.345V58.7143C759.779 58.196 760.606 57.6637 761.712 57.6637C763.197 57.6637 763.912 58.5042 763.912 59.8209V64.5977ZM767.457 64.5977H765.678V55.2544H767.457V64.5977ZM768.983 67.2452L769.249 65.6483C769.403 65.7183 769.641 65.7603 769.809 65.7603C770.272 65.7603 770.58 65.6342 770.748 65.27L771 64.6957L768.255 57.8318H770.16L771.925 62.5385L773.69 57.8318H775.609L772.429 65.7043C771.925 66.979 771.028 67.3152 769.865 67.3432C769.655 67.3432 769.207 67.3012 768.983 67.2452Z" fill="#2B3C5A"/>
<path d="M247.419 128.627H244.225V119.284H247.419C250.319 119.284 252.21 121.315 252.21 123.962C252.21 126.624 250.319 128.627 247.419 128.627ZM247.419 127.59C249.689 127.59 251.005 125.965 251.005 123.962C251.005 121.945 249.731 120.32 247.419 120.32H245.388V127.59H247.419ZM257.045 128.795C255.042 128.795 253.599 127.352 253.599 125.237C253.599 123.276 255 121.693 256.933 121.693C258.979 121.693 260.183 123.29 260.183 125.321V125.587H254.706C254.79 126.862 255.687 127.927 257.143 127.927C257.914 127.927 258.698 127.618 259.231 127.072L259.735 127.758C259.063 128.431 258.152 128.795 257.045 128.795ZM259.147 124.817C259.133 123.808 258.46 122.562 256.919 122.562C255.477 122.562 254.762 123.78 254.706 124.817H259.147ZM263.23 128.627H262.179V122.786H261.058V121.861H262.179V121.343C262.179 119.956 262.935 119.144 264.14 119.144C264.672 119.144 265.149 119.27 265.569 119.662L265.135 120.348C264.911 120.152 264.644 120.012 264.294 120.012C263.608 120.012 263.23 120.488 263.23 121.343V121.861H264.602V122.786H263.23V128.627ZM271.133 128.627H270.082V127.857C269.522 128.473 268.752 128.795 267.841 128.795C266.692 128.795 265.474 128.025 265.474 126.554C265.474 125.041 266.692 124.327 267.841 124.327C268.766 124.327 269.536 124.621 270.082 125.251V124.032C270.082 123.122 269.354 122.604 268.373 122.604C267.561 122.604 266.903 122.898 266.3 123.542L265.81 122.814C266.538 122.057 267.407 121.693 268.513 121.693C269.942 121.693 271.133 122.337 271.133 123.976V128.627ZM268.219 128.039C268.962 128.039 269.676 127.758 270.082 127.198V125.923C269.676 125.363 268.962 125.083 268.219 125.083C267.239 125.083 266.552 125.699 266.552 126.568C266.552 127.422 267.239 128.039 268.219 128.039ZM278.856 128.627H277.806V127.674C277.287 128.263 276.405 128.795 275.396 128.795C273.981 128.795 273.239 128.109 273.239 126.638V121.861H274.29V126.316C274.29 127.506 274.892 127.857 275.802 127.857C276.629 127.857 277.413 127.38 277.806 126.834V121.861H278.856V128.627ZM282.005 128.627H280.954V119.284H282.005V128.627ZM285.81 128.795C284.815 128.795 284.311 128.221 284.311 127.212V122.786H283.19V121.861H284.311V120.012H285.361V121.861H286.734V122.786H285.361V126.988C285.361 127.492 285.585 127.857 286.048 127.857C286.342 127.857 286.622 127.73 286.762 127.576L287.07 128.361C286.804 128.613 286.426 128.795 285.81 128.795Z" fill="#364B70"/>
<path d="M252.014 212.674H250.851V208.387H245.388V212.674H244.225V203.331H245.388V207.351H250.851V203.331H252.014V212.674ZM257.112 212.842C255.052 212.842 253.764 211.245 253.764 209.284C253.764 207.323 255.052 205.74 257.112 205.74C259.171 205.74 260.459 207.323 260.459 209.284C260.459 211.245 259.171 212.842 257.112 212.842ZM257.112 211.903C258.554 211.903 259.353 210.671 259.353 209.284C259.353 207.911 258.554 206.678 257.112 206.678C255.669 206.678 254.856 207.911 254.856 209.284C254.856 210.671 255.669 211.903 257.112 211.903ZM265.128 212.674H263.979L261.164 205.908H262.298L264.553 211.455L266.795 205.908H267.943L265.128 212.674ZM272.093 212.842C270.09 212.842 268.647 211.399 268.647 209.284C268.647 207.323 270.048 205.74 271.981 205.74C274.026 205.74 275.231 207.337 275.231 209.368V209.634H269.754C269.838 210.909 270.734 211.973 272.191 211.973C272.962 211.973 273.746 211.665 274.278 211.119L274.783 211.805C274.11 212.478 273.2 212.842 272.093 212.842ZM274.194 208.864C274.18 207.855 273.508 206.608 271.967 206.608C270.524 206.608 269.81 207.827 269.754 208.864H274.194ZM277.983 212.674H276.932V205.908H277.983V207.001C278.529 206.286 279.314 205.768 280.238 205.768V206.847C280.112 206.819 279.986 206.804 279.818 206.804C279.174 206.804 278.291 207.337 277.983 207.883V212.674Z" fill="#364B70"/>
<path d="M245.388 296.723H244.225V287.379H250.347V288.416H245.388V291.428H250.249V292.464H245.388V296.723ZM254.841 296.891C252.782 296.891 251.493 295.294 251.493 293.333C251.493 291.372 252.782 289.789 254.841 289.789C256.9 289.789 258.189 291.372 258.189 293.333C258.189 295.294 256.9 296.891 254.841 296.891ZM254.841 295.952C256.284 295.952 257.082 294.72 257.082 293.333C257.082 291.96 256.284 290.727 254.841 290.727C253.398 290.727 252.585 291.96 252.585 293.333C252.585 294.72 253.398 295.952 254.841 295.952ZM262.885 296.891C260.868 296.891 259.509 295.35 259.509 293.333C259.509 291.33 260.868 289.789 262.885 289.789C264.118 289.789 264.846 290.293 265.364 290.965L264.664 291.61C264.216 290.993 263.641 290.727 262.941 290.727C261.498 290.727 260.602 291.834 260.602 293.333C260.602 294.832 261.498 295.952 262.941 295.952C263.641 295.952 264.216 295.672 264.664 295.07L265.364 295.714C264.846 296.386 264.118 296.891 262.885 296.891ZM272.454 296.723H271.403V295.77C270.885 296.358 270.003 296.891 268.994 296.891C267.579 296.891 266.837 296.204 266.837 294.734V289.957H267.887V294.411C267.887 295.602 268.49 295.952 269.4 295.952C270.227 295.952 271.011 295.476 271.403 294.93V289.957H272.454V296.723ZM276.695 296.891C275.589 296.891 274.65 296.555 273.964 295.826L274.51 295.07C274.958 295.588 275.813 296.036 276.737 296.036C277.774 296.036 278.334 295.546 278.334 294.874C278.334 293.235 274.146 294.243 274.146 291.736C274.146 290.685 275.056 289.789 276.667 289.789C277.816 289.789 278.629 290.223 279.175 290.769L278.685 291.498C278.278 291.007 277.536 290.643 276.667 290.643C275.743 290.643 275.169 291.105 275.169 291.708C275.169 293.193 279.357 292.212 279.357 294.846C279.357 295.98 278.446 296.891 276.695 296.891Z" fill="#364B70"/>
<path d="M247.419 380.77H244.225V371.426H247.419C250.319 371.426 252.21 373.457 252.21 376.105C252.21 378.766 250.319 380.77 247.419 380.77ZM247.419 379.733C249.689 379.733 251.005 378.108 251.005 376.105C251.005 374.088 249.731 372.463 247.419 372.463H245.388V379.733H247.419ZM254.51 373.037C254.132 373.037 253.81 372.729 253.81 372.337C253.81 371.945 254.132 371.622 254.51 371.622C254.902 371.622 255.224 371.945 255.224 372.337C255.224 372.729 254.902 373.037 254.51 373.037ZM255.042 380.77H253.992V374.004H255.042V380.77ZM259.281 380.938C258.175 380.938 257.236 380.601 256.55 379.873L257.096 379.117C257.544 379.635 258.399 380.083 259.323 380.083C260.36 380.083 260.92 379.593 260.92 378.92C260.92 377.282 256.732 378.29 256.732 375.783C256.732 374.732 257.642 373.836 259.253 373.836C260.402 373.836 261.214 374.27 261.761 374.816L261.27 375.545C260.864 375.054 260.122 374.69 259.253 374.69C258.329 374.69 257.754 375.152 257.754 375.755C257.754 377.24 261.943 376.259 261.943 378.892C261.943 380.027 261.032 380.938 259.281 380.938ZM268.931 380.77H267.88V379.999C267.32 380.615 266.549 380.938 265.639 380.938C264.49 380.938 263.271 380.167 263.271 378.696C263.271 377.183 264.49 376.469 265.639 376.469C266.563 376.469 267.334 376.763 267.88 377.394V376.175C267.88 375.264 267.152 374.746 266.171 374.746C265.358 374.746 264.7 375.04 264.098 375.685L263.608 374.956C264.336 374.2 265.204 373.836 266.311 373.836C267.74 373.836 268.931 374.48 268.931 376.119V380.77ZM266.017 380.181C266.759 380.181 267.474 379.901 267.88 379.341V378.066C267.474 377.506 266.759 377.226 266.017 377.226C265.036 377.226 264.35 377.842 264.35 378.71C264.35 379.565 265.036 380.181 266.017 380.181ZM272.087 378.934C272.451 379.523 273.278 379.999 274.104 379.999C275.477 379.999 276.29 378.892 276.29 377.394C276.29 375.895 275.477 374.774 274.104 374.774C273.278 374.774 272.451 375.278 272.087 375.867V378.934ZM272.087 380.77H271.037V371.426H272.087V375.026C272.633 374.284 273.446 373.836 274.37 373.836C276.135 373.836 277.382 375.236 277.382 377.394C277.382 379.593 276.135 380.938 274.37 380.938C273.418 380.938 272.591 380.447 272.087 379.761V380.77ZM280.144 380.77H279.094V371.426H280.144V380.77ZM285.294 380.938C283.291 380.938 281.848 379.495 281.848 377.38C281.848 375.418 283.249 373.836 285.182 373.836C287.227 373.836 288.432 375.433 288.432 377.464V377.73H282.955C283.039 379.005 283.935 380.069 285.392 380.069C286.162 380.069 286.947 379.761 287.479 379.215L287.983 379.901C287.311 380.573 286.401 380.938 285.294 380.938ZM287.395 376.959C287.381 375.951 286.709 374.704 285.168 374.704C283.725 374.704 283.011 375.923 282.955 376.959H287.395ZM296.087 380.77H295.036V379.761C294.532 380.447 293.705 380.938 292.753 380.938C290.988 380.938 289.741 379.593 289.741 377.394C289.741 375.236 290.974 373.836 292.753 373.836C293.663 373.836 294.49 374.284 295.036 375.026V371.426H296.087V380.77ZM293.005 379.999C293.845 379.999 294.658 379.523 295.036 378.934V375.867C294.658 375.278 293.845 374.774 293.005 374.774C291.646 374.774 290.834 375.895 290.834 377.394C290.834 378.892 291.646 379.999 293.005 379.999Z" fill="#364B70"/>
<path d="M249.731 464.818H244.225V455.475H245.388V463.782H249.731V464.818ZM253.979 464.986C251.92 464.986 250.631 463.39 250.631 461.428C250.631 459.467 251.92 457.884 253.979 457.884C256.038 457.884 257.327 459.467 257.327 461.428C257.327 463.39 256.038 464.986 253.979 464.986ZM253.979 464.048C255.422 464.048 256.22 462.815 256.22 461.428C256.22 460.056 255.422 458.823 253.979 458.823C252.536 458.823 251.724 460.056 251.724 461.428C251.724 462.815 252.536 464.048 253.979 464.048ZM264.32 464.818H263.27V464.048C262.71 464.664 261.939 464.986 261.029 464.986C259.88 464.986 258.661 464.216 258.661 462.745C258.661 461.232 259.88 460.518 261.029 460.518C261.953 460.518 262.724 460.812 263.27 461.442V460.224C263.27 459.313 262.541 458.795 261.561 458.795C260.748 458.795 260.09 459.089 259.488 459.733L258.997 459.005C259.726 458.249 260.594 457.884 261.701 457.884C263.13 457.884 264.32 458.529 264.32 460.168V464.818ZM261.407 464.23C262.149 464.23 262.864 463.95 263.27 463.39V462.115C262.864 461.555 262.149 461.274 261.407 461.274C260.426 461.274 259.74 461.891 259.74 462.759C259.74 463.614 260.426 464.23 261.407 464.23ZM272.38 464.818H271.329V463.81C270.825 464.496 269.999 464.986 269.046 464.986C267.281 464.986 266.034 463.642 266.034 461.442C266.034 459.285 267.267 457.884 269.046 457.884C269.956 457.884 270.783 458.333 271.329 459.075V455.475H272.38V464.818ZM269.298 464.048C270.139 464.048 270.951 463.572 271.329 462.983V459.916C270.951 459.327 270.139 458.823 269.298 458.823C267.939 458.823 267.127 459.944 267.127 461.442C267.127 462.941 267.939 464.048 269.298 464.048ZM275.002 457.086C274.624 457.086 274.302 456.778 274.302 456.386C274.302 455.993 274.624 455.671 275.002 455.671C275.394 455.671 275.716 455.993 275.716 456.386C275.716 456.778 275.394 457.086 275.002 457.086ZM275.534 464.818H274.484V458.053H275.534V464.818ZM283.247 464.818H282.197V460.392C282.197 459.201 281.594 458.823 280.684 458.823C279.857 458.823 279.073 459.327 278.681 459.874V464.818H277.63V458.053H278.681V459.033C279.157 458.473 280.081 457.884 281.09 457.884C282.505 457.884 283.247 458.599 283.247 460.07V464.818ZM288.063 467.564C286.914 467.564 286.13 467.34 285.331 466.555L285.864 465.771C286.424 466.443 287.096 466.695 288.063 466.695C289.184 466.695 290.234 466.149 290.234 464.664V463.698C289.744 464.384 288.917 464.902 287.965 464.902C286.2 464.902 284.953 463.586 284.953 461.4C284.953 459.229 286.186 457.884 287.965 457.884C288.875 457.884 289.688 458.333 290.234 459.075V458.053H291.285V464.622C291.285 466.864 289.716 467.564 288.063 467.564ZM288.217 463.978C289.058 463.978 289.87 463.46 290.234 462.871V459.916C289.87 459.327 289.058 458.823 288.217 458.823C286.858 458.823 286.046 459.902 286.046 461.4C286.046 462.885 286.858 463.978 288.217 463.978Z" fill="#364B70"/>
<rect x="355.696" y="103.127" width="947.537" height="3552.01" rx="4.50255" stroke="#9747FF" stroke-width="1.00057" stroke-dasharray="10.01 5"/>
<rect x="363.199" y="110.631" width="59.0136" height="45.0136" rx="8.00454" fill="#493DF5"/>
<path d="M382.071 136.637H376.132V127.293H378.121V134.886H382.071V136.637ZM389.167 136.637H387.388V135.936C386.926 136.483 386.128 136.805 385.245 136.805C384.167 136.805 382.892 136.076 382.892 134.564C382.892 132.981 384.167 132.378 385.245 132.378C386.142 132.378 386.94 132.672 387.388 133.205V132.294C387.388 131.608 386.8 131.16 385.904 131.16C385.175 131.16 384.503 131.426 383.928 131.958L383.256 130.767C384.082 130.039 385.147 129.703 386.212 129.703C387.753 129.703 389.167 130.319 389.167 132.266V136.637ZM385.96 135.6C386.534 135.6 387.094 135.404 387.388 135.012V134.171C387.094 133.779 386.534 133.583 385.96 133.583C385.259 133.583 384.685 133.947 384.685 134.606C384.685 135.236 385.259 135.6 385.96 135.6ZM392.711 134.465C393.005 134.9 393.663 135.222 394.238 135.222C395.274 135.222 395.961 134.437 395.961 133.261C395.961 132.084 395.274 131.286 394.238 131.286C393.663 131.286 393.005 131.622 392.711 132.07V134.465ZM392.711 136.637H390.932V127.293H392.711V130.739C393.243 130.053 394 129.703 394.798 129.703C396.521 129.703 397.796 131.048 397.796 133.261C397.796 135.516 396.507 136.805 394.798 136.805C393.986 136.805 393.243 136.441 392.711 135.768V136.637ZM402.32 136.805C400.26 136.805 398.705 135.418 398.705 133.247C398.705 131.286 400.148 129.703 402.207 129.703C404.225 129.703 405.597 131.216 405.597 133.429V133.821H400.569C400.681 134.676 401.367 135.39 402.516 135.39C403.09 135.39 403.888 135.138 404.323 134.718L405.107 135.866C404.435 136.483 403.37 136.805 402.32 136.805ZM403.874 132.616C403.832 131.972 403.384 131.118 402.207 131.118C401.101 131.118 400.625 131.944 400.541 132.616H403.874ZM408.661 136.637H406.882V127.293H408.661V136.637Z" fill="white"/>
<rect x="362.199" y="277.726" width="61.0148" height="47.0148" rx="9.00511" fill="#493DF5"/>
<rect x="362.199" y="277.726" width="61.0148" height="47.0148" rx="9.00511" stroke="#BEBAFB" stroke-width="2.00113"/>
<path d="M382.071 304.732H376.132V295.389H378.121V302.981H382.071V304.732ZM389.167 304.732H387.388V304.032C386.926 304.578 386.128 304.901 385.245 304.901C384.167 304.901 382.892 304.172 382.892 302.659C382.892 301.076 384.167 300.474 385.245 300.474C386.142 300.474 386.94 300.768 387.388 301.3V300.39C387.388 299.704 386.8 299.255 385.904 299.255C385.175 299.255 384.503 299.521 383.928 300.054L383.256 298.863C384.082 298.135 385.147 297.798 386.212 297.798C387.753 297.798 389.167 298.415 389.167 300.362V304.732ZM385.96 303.696C386.534 303.696 387.094 303.5 387.388 303.108V302.267C387.094 301.875 386.534 301.679 385.96 301.679C385.259 301.679 384.685 302.043 384.685 302.701C384.685 303.332 385.259 303.696 385.96 303.696ZM392.711 302.561C393.005 302.995 393.663 303.318 394.238 303.318C395.274 303.318 395.961 302.533 395.961 301.357C395.961 300.18 395.274 299.381 394.238 299.381C393.663 299.381 393.005 299.718 392.711 300.166V302.561ZM392.711 304.732H390.932V295.389H392.711V298.835C393.243 298.149 394 297.798 394.798 297.798C396.521 297.798 397.796 299.143 397.796 301.357C397.796 303.612 396.507 304.901 394.798 304.901C393.986 304.901 393.243 304.536 392.711 303.864V304.732ZM402.32 304.901C400.26 304.901 398.705 303.514 398.705 301.342C398.705 299.381 400.148 297.798 402.207 297.798C404.225 297.798 405.597 299.311 405.597 301.525V301.917H400.569C400.681 302.771 401.367 303.486 402.516 303.486C403.09 303.486 403.888 303.234 404.323 302.813L405.107 303.962C404.435 304.578 403.37 304.901 402.32 304.901ZM403.874 300.712C403.832 300.068 403.384 299.213 402.207 299.213C401.101 299.213 400.625 300.04 400.541 300.712H403.874ZM408.661 304.732H406.882V295.389H408.661V304.732Z" fill="white"/>
<rect x="461.254" y="110.631" width="87.0295" height="45.0136" rx="8.00454" fill="#493DF5"/>
<path fill-rule="evenodd" clip-rule="evenodd" d="M479.331 129.57C479.575 129.814 479.575 130.21 479.331 130.454L477.272 132.513H490.771C491.116 132.513 491.396 132.793 491.396 133.139C491.396 133.484 491.116 133.764 490.771 133.764H477.272L479.331 135.823C479.575 136.068 479.575 136.464 479.331 136.708C479.087 136.952 478.691 136.952 478.447 136.708L475.32 133.581C475.076 133.337 475.076 132.941 475.32 132.697L478.447 129.57C478.691 129.326 479.087 129.326 479.331 129.57Z" fill="white"/>
<path d="M508.141 136.637H502.202V127.293H504.191V134.886H508.141V136.637ZM515.238 136.637H513.459V135.936C512.996 136.483 512.198 136.805 511.315 136.805C510.237 136.805 508.962 136.076 508.962 134.564C508.962 132.981 510.237 132.378 511.315 132.378C512.212 132.378 513.01 132.672 513.459 133.205V132.294C513.459 131.608 512.87 131.16 511.974 131.16C511.245 131.16 510.573 131.426 509.999 131.958L509.326 130.767C510.153 130.039 511.217 129.703 512.282 129.703C513.823 129.703 515.238 130.319 515.238 132.266V136.637ZM512.03 135.6C512.604 135.6 513.165 135.404 513.459 135.012V134.171C513.165 133.779 512.604 133.583 512.03 133.583C511.329 133.583 510.755 133.947 510.755 134.606C510.755 135.236 511.329 135.6 512.03 135.6ZM518.781 134.465C519.075 134.9 519.734 135.222 520.308 135.222C521.345 135.222 522.031 134.437 522.031 133.261C522.031 132.084 521.345 131.286 520.308 131.286C519.734 131.286 519.075 131.622 518.781 132.07V134.465ZM518.781 136.637H517.002V127.293H518.781V130.739C519.314 130.053 520.07 129.703 520.868 129.703C522.591 129.703 523.866 131.048 523.866 133.261C523.866 135.516 522.577 136.805 520.868 136.805C520.056 136.805 519.314 136.441 518.781 135.768V136.637ZM528.39 136.805C526.331 136.805 524.776 135.418 524.776 133.247C524.776 131.286 526.219 129.703 528.278 129.703C530.295 129.703 531.668 131.216 531.668 133.429V133.821H526.639C526.751 134.676 527.437 135.39 528.586 135.39C529.16 135.39 529.959 135.138 530.393 134.718L531.177 135.866C530.505 136.483 529.44 136.805 528.39 136.805ZM529.945 132.616C529.903 131.972 529.454 131.118 528.278 131.118C527.171 131.118 526.695 131.944 526.611 132.616H529.945ZM534.732 136.637H532.953V127.293H534.732V136.637Z" fill="white"/>
<rect x="460.253" y="277.726" width="89.0306" height="47.0148" rx="9.00511" fill="#493DF5"/>
<rect x="460.253" y="277.726" width="89.0306" height="47.0148" rx="9.00511" stroke="#BEBAFB" stroke-width="2.00113"/>
<path fill-rule="evenodd" clip-rule="evenodd" d="M479.331 297.666C479.575 297.91 479.575 298.306 479.331 298.55L477.272 300.609H490.771C491.116 300.609 491.396 300.889 491.396 301.235C491.396 301.58 491.116 301.86 490.771 301.86H477.272L479.331 303.919C479.575 304.163 479.575 304.559 479.331 304.804C479.087 305.048 478.691 305.048 478.447 304.804L475.32 301.677C475.076 301.433 475.076 301.037 475.32 300.792L478.447 297.666C478.691 297.421 479.087 297.421 479.331 297.666Z" fill="white"/>
<path d="M508.141 304.732H502.202V295.389H504.191V302.981H508.141V304.732ZM515.238 304.732H513.459V304.032C512.996 304.578 512.198 304.901 511.315 304.901C510.237 304.901 508.962 304.172 508.962 302.659C508.962 301.076 510.237 300.474 511.315 300.474C512.212 300.474 513.01 300.768 513.459 301.3V300.39C513.459 299.704 512.87 299.255 511.974 299.255C511.245 299.255 510.573 299.521 509.999 300.054L509.326 298.863C510.153 298.135 511.217 297.798 512.282 297.798C513.823 297.798 515.238 298.415 515.238 300.362V304.732ZM512.03 303.696C512.604 303.696 513.165 303.5 513.459 303.108V302.267C513.165 301.875 512.604 301.679 512.03 301.679C511.329 301.679 510.755 302.043 510.755 302.701C510.755 303.332 511.329 303.696 512.03 303.696ZM518.781 302.561C519.075 302.995 519.734 303.318 520.308 303.318C521.345 303.318 522.031 302.533 522.031 301.357C522.031 300.18 521.345 299.381 520.308 299.381C519.734 299.381 519.075 299.718 518.781 300.166V302.561ZM518.781 304.732H517.002V295.389H518.781V298.835C519.314 298.149 520.07 297.798 520.868 297.798C522.591 297.798 523.866 299.143 523.866 301.357C523.866 303.612 522.577 304.901 520.868 304.901C520.056 304.901 519.314 304.536 518.781 303.864V304.732ZM528.39 304.901C526.331 304.901 524.776 303.514 524.776 301.342C524.776 299.381 526.219 297.798 528.278 297.798C530.295 297.798 531.668 299.311 531.668 301.525V301.917H526.639C526.751 302.771 527.437 303.486 528.586 303.486C529.16 303.486 529.959 303.234 530.393 302.813L531.177 303.962C530.505 304.578 529.44 304.901 528.39 304.901ZM529.945 300.712C529.903 300.068 529.454 299.213 528.278 299.213C527.171 299.213 526.695 300.04 526.611 300.712H529.945ZM534.732 304.732H532.953V295.389H534.732V304.732Z" fill="white"/>
<rect x="713.398" y="110.631" width="44.025" height="44.025" rx="8.00454" fill="#493DF5"/>
<path fill-rule="evenodd" clip-rule="evenodd" d="M734.403 125.315C734.777 124.416 736.05 124.416 736.424 125.315L738.16 129.489L742.666 129.85C743.636 129.928 744.029 131.138 743.29 131.772L739.857 134.713L740.906 139.11C741.132 140.056 740.102 140.805 739.271 140.297L735.413 137.941L731.555 140.297C730.725 140.805 729.695 140.056 729.921 139.11L730.969 134.713L727.536 131.772C726.797 131.138 727.19 129.928 728.161 129.85L732.667 129.489L734.403 125.315ZM735.413 126.142L733.785 130.057C733.627 130.436 733.271 130.695 732.862 130.728L728.635 131.066L731.856 133.825C732.167 134.092 732.303 134.511 732.208 134.91L731.224 139.034L734.843 136.824C735.193 136.61 735.633 136.61 735.984 136.824L739.602 139.034L738.618 134.91C738.523 134.511 738.659 134.092 738.971 133.825L742.191 131.066L737.965 130.728C737.555 130.695 737.199 130.436 737.042 130.057L735.413 126.142Z" fill="white"/>
<rect x="712.398" y="277.726" width="46.0261" height="46.0261" rx="9.00511" fill="#493DF5"/>
<rect x="712.398" y="277.726" width="46.0261" height="46.0261" rx="9.00511" stroke="#BEBAFB" stroke-width="2.00113"/>
<path fill-rule="evenodd" clip-rule="evenodd" d="M734.403 293.41C734.777 292.512 736.05 292.512 736.424 293.41L738.16 297.584L742.666 297.945C743.636 298.023 744.029 299.234 743.29 299.867L739.857 302.808L740.906 307.205C741.132 308.152 740.102 308.901 739.271 308.393L735.413 306.037L731.555 308.393C730.725 308.901 729.695 308.152 729.921 307.205L730.969 302.808L727.536 299.867C726.797 299.234 727.19 298.023 728.161 297.945L732.667 297.584L734.403 293.41ZM735.413 294.238L733.785 298.153C733.627 298.532 733.271 298.791 732.862 298.823L728.635 299.162L731.856 301.921C732.167 302.187 732.303 302.606 732.208 303.006L731.224 307.13L734.843 304.92C735.193 304.706 735.633 304.706 735.984 304.92L739.602 307.13L738.618 303.006C738.523 302.606 738.659 302.187 738.971 301.921L742.191 299.162L737.965 298.823C737.555 298.791 737.199 298.532 737.042 298.153L735.413 294.238Z" fill="white"/>
<rect x="363.199" y="362.773" width="59.0136" height="45.0136" rx="8.00454" fill="#EDF1F6"/>
<path d="M382.071 388.779H376.132V379.436H378.121V387.028H382.071V388.779ZM389.167 388.779H387.388V388.079C386.926 388.625 386.128 388.947 385.245 388.947C384.167 388.947 382.892 388.219 382.892 386.706C382.892 385.123 384.167 384.521 385.245 384.521C386.142 384.521 386.94 384.815 387.388 385.347V384.437C387.388 383.75 386.8 383.302 385.904 383.302C385.175 383.302 384.503 383.568 383.928 384.101L383.256 382.91C384.082 382.182 385.147 381.845 386.212 381.845C387.753 381.845 389.167 382.462 389.167 384.409V388.779ZM385.96 387.743C386.534 387.743 387.094 387.547 387.388 387.154V386.314C387.094 385.922 386.534 385.726 385.96 385.726C385.259 385.726 384.685 386.09 384.685 386.748C384.685 387.379 385.259 387.743 385.96 387.743ZM392.711 386.608C393.005 387.042 393.663 387.364 394.238 387.364C395.274 387.364 395.961 386.58 395.961 385.403C395.961 384.227 395.274 383.428 394.238 383.428C393.663 383.428 393.005 383.764 392.711 384.213V386.608ZM392.711 388.779H390.932V379.436H392.711V382.882C393.243 382.196 394 381.845 394.798 381.845C396.521 381.845 397.796 383.19 397.796 385.403C397.796 387.659 396.507 388.947 394.798 388.947C393.986 388.947 393.243 388.583 392.711 387.911V388.779ZM402.32 388.947C400.26 388.947 398.705 387.561 398.705 385.389C398.705 383.428 400.148 381.845 402.207 381.845C404.225 381.845 405.597 383.358 405.597 385.571V385.964H400.569C400.681 386.818 401.367 387.533 402.516 387.533C403.09 387.533 403.888 387.28 404.323 386.86L405.107 388.009C404.435 388.625 403.37 388.947 402.32 388.947ZM403.874 384.759C403.832 384.115 403.384 383.26 402.207 383.26C401.101 383.26 400.625 384.087 400.541 384.759H403.874ZM408.661 388.779H406.882V379.436H408.661V388.779Z" fill="#9DB0D0"/>
<rect x="363.199" y="194.68" width="59.0136" height="45.0136" rx="8.00454" fill="#2B22B5"/>
<path d="M382.071 220.686H376.132V211.342H378.121V218.935H382.071V220.686ZM389.167 220.686H387.388V219.985C386.926 220.531 386.128 220.854 385.245 220.854C384.167 220.854 382.892 220.125 382.892 218.612C382.892 217.029 384.167 216.427 385.245 216.427C386.142 216.427 386.94 216.721 387.388 217.254V216.343C387.388 215.657 386.8 215.208 385.904 215.208C385.175 215.208 384.503 215.475 383.928 216.007L383.256 214.816C384.082 214.088 385.147 213.752 386.212 213.752C387.753 213.752 389.167 214.368 389.167 216.315V220.686ZM385.96 219.649C386.534 219.649 387.094 219.453 387.388 219.061V218.22C387.094 217.828 386.534 217.632 385.96 217.632C385.259 217.632 384.685 217.996 384.685 218.654C384.685 219.285 385.259 219.649 385.96 219.649ZM392.711 218.514C393.005 218.949 393.663 219.271 394.238 219.271C395.274 219.271 395.961 218.486 395.961 217.31C395.961 216.133 395.274 215.335 394.238 215.335C393.663 215.335 393.005 215.671 392.711 216.119V218.514ZM392.711 220.686H390.932V211.342H392.711V214.788C393.243 214.102 394 213.752 394.798 213.752C396.521 213.752 397.796 215.096 397.796 217.31C397.796 219.565 396.507 220.854 394.798 220.854C393.986 220.854 393.243 220.489 392.711 219.817V220.686ZM402.32 220.854C400.26 220.854 398.705 219.467 398.705 217.296C398.705 215.335 400.148 213.752 402.207 213.752C404.225 213.752 405.597 215.264 405.597 217.478V217.87H400.569C400.681 218.724 401.367 219.439 402.516 219.439C403.09 219.439 403.888 219.187 404.323 218.766L405.107 219.915C404.435 220.531 403.37 220.854 402.32 220.854ZM403.874 216.665C403.832 216.021 403.384 215.166 402.207 215.166C401.101 215.166 400.625 215.993 400.541 216.665H403.874ZM408.661 220.686H406.882V211.342H408.661V220.686Z" fill="white"/>
<rect x="461.254" y="194.68" width="87.0295" height="45.0136" rx="8.00454" fill="#2B22B5"/>
<path fill-rule="evenodd" clip-rule="evenodd" d="M479.331 213.619C479.575 213.863 479.575 214.259 479.331 214.503L477.272 216.562H490.771C491.116 216.562 491.396 216.842 491.396 217.188C491.396 217.533 491.116 217.813 490.771 217.813H477.272L479.331 219.872C479.575 220.116 479.575 220.512 479.331 220.757C479.087 221.001 478.691 221.001 478.447 220.757L475.32 217.63C475.076 217.386 475.076 216.99 475.32 216.745L478.447 213.619C478.691 213.374 479.087 213.374 479.331 213.619Z" fill="white"/>
<path d="M508.141 220.686H502.202V211.342H504.191V218.935H508.141V220.686ZM515.238 220.686H513.459V219.985C512.996 220.531 512.198 220.854 511.315 220.854C510.237 220.854 508.962 220.125 508.962 218.612C508.962 217.029 510.237 216.427 511.315 216.427C512.212 216.427 513.01 216.721 513.459 217.254V216.343C513.459 215.657 512.87 215.208 511.974 215.208C511.245 215.208 510.573 215.475 509.999 216.007L509.326 214.816C510.153 214.088 511.217 213.752 512.282 213.752C513.823 213.752 515.238 214.368 515.238 216.315V220.686ZM512.03 219.649C512.604 219.649 513.165 219.453 513.459 219.061V218.22C513.165 217.828 512.604 217.632 512.03 217.632C511.329 217.632 510.755 217.996 510.755 218.654C510.755 219.285 511.329 219.649 512.03 219.649ZM518.781 218.514C519.075 218.949 519.734 219.271 520.308 219.271C521.345 219.271 522.031 218.486 522.031 217.31C522.031 216.133 521.345 215.335 520.308 215.335C519.734 215.335 519.075 215.671 518.781 216.119V218.514ZM518.781 220.686H517.002V211.342H518.781V214.788C519.314 214.102 520.07 213.752 520.868 213.752C522.591 213.752 523.866 215.096 523.866 217.31C523.866 219.565 522.577 220.854 520.868 220.854C520.056 220.854 519.314 220.489 518.781 219.817V220.686ZM528.39 220.854C526.331 220.854 524.776 219.467 524.776 217.296C524.776 215.335 526.219 213.752 528.278 213.752C530.295 213.752 531.668 215.264 531.668 217.478V217.87H526.639C526.751 218.724 527.437 219.439 528.586 219.439C529.16 219.439 529.959 219.187 530.393 218.766L531.177 219.915C530.505 220.531 529.44 220.854 528.39 220.854ZM529.945 216.665C529.903 216.021 529.454 215.166 528.278 215.166C527.171 215.166 526.695 215.993 526.611 216.665H529.945ZM534.732 220.686H532.953V211.342H534.732V220.686Z" fill="white"/>
<rect x="461.254" y="362.773" width="87.0295" height="45.0136" rx="8.00454" fill="#EDF1F6"/>
<path fill-rule="evenodd" clip-rule="evenodd" d="M479.331 381.712C479.575 381.957 479.575 382.353 479.331 382.597L477.272 384.656H490.771C491.116 384.656 491.396 384.936 491.396 385.281C491.396 385.627 491.116 385.907 490.771 385.907H477.272L479.331 387.966C479.575 388.21 479.575 388.606 479.331 388.85C479.087 389.095 478.691 389.095 478.447 388.85L475.32 385.724C475.076 385.479 475.076 385.083 475.32 384.839L478.447 381.712C478.691 381.468 479.087 381.468 479.331 381.712Z" fill="#9DB0D0"/>
<path d="M508.141 388.779H502.202V379.436H504.191V387.028H508.141V388.779ZM515.238 388.779H513.459V388.079C512.996 388.625 512.198 388.947 511.315 388.947C510.237 388.947 508.962 388.219 508.962 386.706C508.962 385.123 510.237 384.521 511.315 384.521C512.212 384.521 513.01 384.815 513.459 385.347V384.437C513.459 383.75 512.87 383.302 511.974 383.302C511.245 383.302 510.573 383.568 509.999 384.101L509.326 382.91C510.153 382.182 511.217 381.845 512.282 381.845C513.823 381.845 515.238 382.462 515.238 384.409V388.779ZM512.03 387.743C512.604 387.743 513.165 387.547 513.459 387.154V386.314C513.165 385.922 512.604 385.726 512.03 385.726C511.329 385.726 510.755 386.09 510.755 386.748C510.755 387.379 511.329 387.743 512.03 387.743ZM518.781 386.608C519.075 387.042 519.734 387.364 520.308 387.364C521.345 387.364 522.031 386.58 522.031 385.403C522.031 384.227 521.345 383.428 520.308 383.428C519.734 383.428 519.075 383.764 518.781 384.213V386.608ZM518.781 388.779H517.002V379.436H518.781V382.882C519.314 382.196 520.07 381.845 520.868 381.845C522.591 381.845 523.866 383.19 523.866 385.403C523.866 387.659 522.577 388.947 520.868 388.947C520.056 388.947 519.314 388.583 518.781 387.911V388.779ZM528.39 388.947C526.331 388.947 524.776 387.561 524.776 385.389C524.776 383.428 526.219 381.845 528.278 381.845C530.295 381.845 531.668 383.358 531.668 385.571V385.964H526.639C526.751 386.818 527.437 387.533 528.586 387.533C529.16 387.533 529.959 387.28 530.393 386.86L531.177 388.009C530.505 388.625 529.44 388.947 528.39 388.947ZM529.945 384.759C529.903 384.115 529.454 383.26 528.278 383.26C527.171 383.26 526.695 384.087 526.611 384.759H529.945ZM534.732 388.779H532.953V379.436H534.732V388.779Z" fill="#9DB0D0"/>
<rect x="713.398" y="194.68" width="44.025" height="44.025" rx="8.00454" fill="#2B22B5"/>
<path fill-rule="evenodd" clip-rule="evenodd" d="M734.403 209.364C734.777 208.465 736.05 208.465 736.424 209.364L738.16 213.537L742.666 213.899C743.636 213.976 744.029 215.187 743.29 215.821L739.857 218.761L740.906 223.158C741.132 224.105 740.102 224.854 739.271 224.346L735.413 221.99L731.555 224.346C730.725 224.854 729.695 224.105 729.921 223.158L730.969 218.761L727.536 215.821C726.797 215.187 727.19 213.976 728.161 213.899L732.667 213.537L734.403 209.364ZM735.413 210.191L733.785 214.106C733.627 214.485 733.271 214.744 732.862 214.776L728.635 215.115L731.856 217.874C732.167 218.141 732.303 218.56 732.208 218.959L731.224 223.083L734.843 220.873C735.193 220.659 735.633 220.659 735.984 220.873L739.602 223.083L738.618 218.959C738.523 218.56 738.659 218.141 738.971 217.874L742.191 215.115L737.965 214.776C737.555 214.744 737.199 214.485 737.042 214.106L735.413 210.191Z" fill="white"/>
<rect x="713.398" y="362.773" width="44.025" height="44.025" rx="8.00454" fill="#EDF1F6"/>
<path fill-rule="evenodd" clip-rule="evenodd" d="M734.403 377.457C734.777 376.559 736.05 376.559 736.424 377.457L738.16 381.631L742.666 381.992C743.636 382.07 744.029 383.281 743.29 383.914L739.857 386.855L740.906 391.252C741.132 392.199 740.102 392.947 739.271 392.44L735.413 390.084L731.555 392.44C730.725 392.947 729.695 392.199 729.921 391.252L730.969 386.855L727.536 383.914C726.797 383.281 727.19 382.07 728.161 381.992L732.667 381.631L734.403 377.457ZM735.413 378.285L733.785 382.2C733.627 382.578 733.271 382.837 732.862 382.87L728.635 383.209L731.856 385.967C732.167 386.234 732.303 386.653 732.208 387.052L731.224 391.177L734.843 388.967C735.193 388.753 735.633 388.753 735.984 388.967L739.602 391.177L738.618 387.052C738.523 386.653 738.659 386.234 738.971 385.967L742.191 383.209L737.965 382.87C737.555 382.837 737.199 382.578 737.042 382.2L735.413 378.285Z" fill="#9DB0D0"/>
<rect x="587.328" y="110.631" width="87.0295" height="45.0136" rx="8.00454" fill="#493DF5"/>
<path d="M606.2 136.637H600.26V127.293H602.25V134.886H606.2V136.637ZM613.296 136.637H611.517V135.936C611.055 136.483 610.257 136.805 609.374 136.805C608.295 136.805 607.021 136.076 607.021 134.564C607.021 132.981 608.295 132.378 609.374 132.378C610.271 132.378 611.069 132.672 611.517 133.205V132.294C611.517 131.608 610.929 131.16 610.032 131.16C609.304 131.16 608.632 131.426 608.057 131.958L607.385 130.767C608.211 130.039 609.276 129.703 610.341 129.703C611.881 129.703 613.296 130.319 613.296 132.266V136.637ZM610.088 135.6C610.663 135.6 611.223 135.404 611.517 135.012V134.171C611.223 133.779 610.663 133.583 610.088 133.583C609.388 133.583 608.814 133.947 608.814 134.606C608.814 135.236 609.388 135.6 610.088 135.6ZM616.84 134.465C617.134 134.9 617.792 135.222 618.367 135.222C619.403 135.222 620.09 134.437 620.09 133.261C620.09 132.084 619.403 131.286 618.367 131.286C617.792 131.286 617.134 131.622 616.84 132.07V134.465ZM616.84 136.637H615.061V127.293H616.84V130.739C617.372 130.053 618.129 129.703 618.927 129.703C620.65 129.703 621.925 131.048 621.925 133.261C621.925 135.516 620.636 136.805 618.927 136.805C618.115 136.805 617.372 136.441 616.84 135.768V136.637ZM626.448 136.805C624.389 136.805 622.834 135.418 622.834 133.247C622.834 131.286 624.277 129.703 626.336 129.703C628.354 129.703 629.726 131.216 629.726 133.429V133.821H624.697C624.809 134.676 625.496 135.39 626.645 135.39C627.219 135.39 628.017 135.138 628.452 134.718L629.236 135.866C628.564 136.483 627.499 136.805 626.448 136.805ZM628.003 132.616C627.961 131.972 627.513 131.118 626.336 131.118C625.23 131.118 624.753 131.944 624.669 132.616H628.003ZM632.79 136.637H631.011V127.293H632.79V136.637Z" fill="white"/>
<path fill-rule="evenodd" clip-rule="evenodd" d="M656.28 129.57C656.524 129.326 656.92 129.326 657.164 129.57L660.291 132.697C660.535 132.941 660.535 133.337 660.291 133.581L657.164 136.708C656.92 136.952 656.524 136.952 656.28 136.708C656.036 136.464 656.036 136.068 656.28 135.823L658.339 133.764H644.84C644.495 133.764 644.215 133.484 644.215 133.139C644.215 132.793 644.495 132.513 644.84 132.513H658.339L656.28 130.454C656.036 130.21 656.036 129.814 656.28 129.57Z" fill="white"/>
<rect x="586.328" y="277.726" width="89.0306" height="47.0148" rx="9.00511" fill="#493DF5"/>
<rect x="586.328" y="277.726" width="89.0306" height="47.0148" rx="9.00511" stroke="#BEBAFB" stroke-width="2.00113"/>
<path d="M606.2 304.732H600.26V295.389H602.25V302.981H606.2V304.732ZM613.296 304.732H611.517V304.032C611.055 304.578 610.257 304.901 609.374 304.901C608.295 304.901 607.021 304.172 607.021 302.659C607.021 301.076 608.295 300.474 609.374 300.474C610.271 300.474 611.069 300.768 611.517 301.3V300.39C611.517 299.704 610.929 299.255 610.032 299.255C609.304 299.255 608.632 299.521 608.057 300.054L607.385 298.863C608.211 298.135 609.276 297.798 610.341 297.798C611.881 297.798 613.296 298.415 613.296 300.362V304.732ZM610.088 303.696C610.663 303.696 611.223 303.5 611.517 303.108V302.267C611.223 301.875 610.663 301.679 610.088 301.679C609.388 301.679 608.814 302.043 608.814 302.701C608.814 303.332 609.388 303.696 610.088 303.696ZM616.84 302.561C617.134 302.995 617.792 303.318 618.367 303.318C619.403 303.318 620.09 302.533 620.09 301.357C620.09 300.18 619.403 299.381 618.367 299.381C617.792 299.381 617.134 299.718 616.84 300.166V302.561ZM616.84 304.732H615.061V295.389H616.84V298.835C617.372 298.149 618.129 297.798 618.927 297.798C620.65 297.798 621.925 299.143 621.925 301.357C621.925 303.612 620.636 304.901 618.927 304.901C618.115 304.901 617.372 304.536 616.84 303.864V304.732ZM626.448 304.901C624.389 304.901 622.834 303.514 622.834 301.342C622.834 299.381 624.277 297.798 626.336 297.798C628.354 297.798 629.726 299.311 629.726 301.525V301.917H624.697C624.809 302.771 625.496 303.486 626.645 303.486C627.219 303.486 628.017 303.234 628.452 302.813L629.236 303.962C628.564 304.578 627.499 304.901 626.448 304.901ZM628.003 300.712C627.961 300.068 627.513 299.213 626.336 299.213C625.23 299.213 624.753 300.04 624.669 300.712H628.003ZM632.79 304.732H631.011V295.389H632.79V304.732Z" fill="white"/>
<path fill-rule="evenodd" clip-rule="evenodd" d="M656.28 297.666C656.524 297.421 656.92 297.421 657.164 297.666L660.291 300.792C660.535 301.037 660.535 301.433 660.291 301.677L657.164 304.804C656.92 305.048 656.524 305.048 656.28 304.804C656.036 304.559 656.036 304.163 656.28 303.919L658.339 301.86H644.84C644.495 301.86 644.215 301.58 644.215 301.235C644.215 300.889 644.495 300.609 644.84 300.609H658.339L656.28 298.55C656.036 298.306 656.036 297.91 656.28 297.666Z" fill="white"/>
<rect x="587.328" y="194.68" width="87.0295" height="45.0136" rx="8.00454" fill="#2B22B5"/>
<path d="M606.2 220.686H600.26V211.342H602.25V218.935H606.2V220.686ZM613.296 220.686H611.517V219.985C611.055 220.531 610.257 220.854 609.374 220.854C608.295 220.854 607.021 220.125 607.021 218.612C607.021 217.029 608.295 216.427 609.374 216.427C610.271 216.427 611.069 216.721 611.517 217.254V216.343C611.517 215.657 610.929 215.208 610.032 215.208C609.304 215.208 608.632 215.475 608.057 216.007L607.385 214.816C608.211 214.088 609.276 213.752 610.341 213.752C611.881 213.752 613.296 214.368 613.296 216.315V220.686ZM610.088 219.649C610.663 219.649 611.223 219.453 611.517 219.061V218.22C611.223 217.828 610.663 217.632 610.088 217.632C609.388 217.632 608.814 217.996 608.814 218.654C608.814 219.285 609.388 219.649 610.088 219.649ZM616.84 218.514C617.134 218.949 617.792 219.271 618.367 219.271C619.403 219.271 620.09 218.486 620.09 217.31C620.09 216.133 619.403 215.335 618.367 215.335C617.792 215.335 617.134 215.671 616.84 216.119V218.514ZM616.84 220.686H615.061V211.342H616.84V214.788C617.372 214.102 618.129 213.752 618.927 213.752C620.65 213.752 621.925 215.096 621.925 217.31C621.925 219.565 620.636 220.854 618.927 220.854C618.115 220.854 617.372 220.489 616.84 219.817V220.686ZM626.448 220.854C624.389 220.854 622.834 219.467 622.834 217.296C622.834 215.335 624.277 213.752 626.336 213.752C628.354 213.752 629.726 215.264 629.726 217.478V217.87H624.697C624.809 218.724 625.496 219.439 626.645 219.439C627.219 219.439 628.017 219.187 628.452 218.766L629.236 219.915C628.564 220.531 627.499 220.854 626.448 220.854ZM628.003 216.665C627.961 216.021 627.513 215.166 626.336 215.166C625.23 215.166 624.753 215.993 624.669 216.665H628.003ZM632.79 220.686H631.011V211.342H632.79V220.686Z" fill="white"/>
<path fill-rule="evenodd" clip-rule="evenodd" d="M656.28 213.619C656.524 213.374 656.92 213.374 657.164 213.619L660.291 216.745C660.535 216.99 660.535 217.386 660.291 217.63L657.164 220.757C656.92 221.001 656.524 221.001 656.28 220.757C656.036 220.512 656.036 220.116 656.28 219.872L658.339 217.813H644.84C644.495 217.813 644.215 217.533 644.215 217.188C644.215 216.842 644.495 216.562 644.84 216.562H658.339L656.28 214.503C656.036 214.259 656.036 213.863 656.28 213.619Z" fill="white"/>
<rect x="587.328" y="362.773" width="87.0295" height="45.0136" rx="8.00454" fill="#EDF1F6"/>
<path d="M606.2 388.779H600.26V379.436H602.25V387.028H606.2V388.779ZM613.296 388.779H611.517V388.079C611.055 388.625 610.257 388.947 609.374 388.947C608.295 388.947 607.021 388.219 607.021 386.706C607.021 385.123 608.295 384.521 609.374 384.521C610.271 384.521 611.069 384.815 611.517 385.347V384.437C611.517 383.75 610.929 383.302 610.032 383.302C609.304 383.302 608.632 383.568 608.057 384.101L607.385 382.91C608.211 382.182 609.276 381.845 610.341 381.845C611.881 381.845 613.296 382.462 613.296 384.409V388.779ZM610.088 387.743C610.663 387.743 611.223 387.547 611.517 387.154V386.314C611.223 385.922 610.663 385.726 610.088 385.726C609.388 385.726 608.814 386.09 608.814 386.748C608.814 387.379 609.388 387.743 610.088 387.743ZM616.84 386.608C617.134 387.042 617.792 387.364 618.367 387.364C619.403 387.364 620.09 386.58 620.09 385.403C620.09 384.227 619.403 383.428 618.367 383.428C617.792 383.428 617.134 383.764 616.84 384.213V386.608ZM616.84 388.779H615.061V379.436H616.84V382.882C617.372 382.196 618.129 381.845 618.927 381.845C620.65 381.845 621.925 383.19 621.925 385.403C621.925 387.659 620.636 388.947 618.927 388.947C618.115 388.947 617.372 388.583 616.84 387.911V388.779ZM626.448 388.947C624.389 388.947 622.834 387.561 622.834 385.389C622.834 383.428 624.277 381.845 626.336 381.845C628.354 381.845 629.726 383.358 629.726 385.571V385.964H624.697C624.809 386.818 625.496 387.533 626.645 387.533C627.219 387.533 628.017 387.28 628.452 386.86L629.236 388.009C628.564 388.625 627.499 388.947 626.448 388.947ZM628.003 384.759C627.961 384.115 627.513 383.26 626.336 383.26C625.23 383.26 624.753 384.087 624.669 384.759H628.003ZM632.79 388.779H631.011V379.436H632.79V388.779Z" fill="#9DB0D0"/>
<path fill-rule="evenodd" clip-rule="evenodd" d="M656.28 381.712C656.524 381.468 656.92 381.468 657.164 381.712L660.291 384.839C660.535 385.083 660.535 385.479 660.291 385.724L657.164 388.85C656.92 389.095 656.524 389.095 656.28 388.85C656.036 388.606 656.036 388.21 656.28 387.966L658.339 385.907H644.84C644.495 385.907 644.215 385.627 644.215 385.281C644.215 384.936 644.495 384.656 644.84 384.656H658.339L656.28 382.597C656.036 382.353 656.036 381.957 656.28 381.712Z" fill="#9DB0D0"/>
<rect x="363.199" y="446.822" width="87.0295" height="45.0136" rx="8.00454" fill="#EDF1F6"/>
<mask id="path-55-inside-1_1929_16711" fill="white">
<path d="M391.408 464.132C391.69 463.896 392.113 463.931 392.328 464.231C393.353 465.66 393.926 467.371 393.965 469.14C394.008 471.132 393.371 473.079 392.158 474.66C390.946 476.241 389.23 477.361 387.294 477.835C385.359 478.309 383.32 478.108 381.514 477.267C379.708 476.425 378.243 474.992 377.361 473.206C376.479 471.419 376.233 469.385 376.664 467.439C377.095 465.494 378.176 463.753 379.729 462.505C381.109 461.397 382.787 460.737 384.541 460.602C384.909 460.574 385.208 460.875 385.208 461.243C385.208 461.612 384.909 461.908 384.542 461.941C383.092 462.072 381.708 462.628 380.565 463.546C379.248 464.604 378.332 466.079 377.967 467.728C377.602 469.376 377.81 471.101 378.558 472.615C379.305 474.129 380.547 475.344 382.078 476.057C383.608 476.77 385.337 476.94 386.977 476.539C388.617 476.137 390.072 475.188 391.1 473.848C392.127 472.508 392.668 470.857 392.631 469.169C392.599 467.704 392.134 466.286 391.302 465.091C391.091 464.789 391.125 464.369 391.408 464.132Z"/>
</mask>
<path d="M391.408 464.132C391.69 463.896 392.113 463.931 392.328 464.231C393.353 465.66 393.926 467.371 393.965 469.14C394.008 471.132 393.371 473.079 392.158 474.66C390.946 476.241 389.23 477.361 387.294 477.835C385.359 478.309 383.32 478.108 381.514 477.267C379.708 476.425 378.243 474.992 377.361 473.206C376.479 471.419 376.233 469.385 376.664 467.439C377.095 465.494 378.176 463.753 379.729 462.505C381.109 461.397 382.787 460.737 384.541 460.602C384.909 460.574 385.208 460.875 385.208 461.243C385.208 461.612 384.909 461.908 384.542 461.941C383.092 462.072 381.708 462.628 380.565 463.546C379.248 464.604 378.332 466.079 377.967 467.728C377.602 469.376 377.81 471.101 378.558 472.615C379.305 474.129 380.547 475.344 382.078 476.057C383.608 476.77 385.337 476.94 386.977 476.539C388.617 476.137 390.072 475.188 391.1 473.848C392.127 472.508 392.668 470.857 392.631 469.169C392.599 467.704 392.134 466.286 391.302 465.091C391.091 464.789 391.125 464.369 391.408 464.132Z" stroke="#9DB0D0" stroke-width="4.00227" mask="url(#path-55-inside-1_1929_16711)"/>
<path d="M410.087 472.828H404.147V463.485H406.136V471.077H410.087V472.828ZM417.183 472.828H415.404V472.128C414.942 472.674 414.143 472.996 413.261 472.996C412.182 472.996 410.907 472.268 410.907 470.755C410.907 469.172 412.182 468.57 413.261 468.57C414.157 468.57 414.956 468.864 415.404 469.396V468.486C415.404 467.799 414.816 467.351 413.919 467.351C413.191 467.351 412.518 467.617 411.944 468.149L411.272 466.959C412.098 466.23 413.163 465.894 414.227 465.894C415.768 465.894 417.183 466.511 417.183 468.458V472.828ZM413.975 471.792C414.55 471.792 415.11 471.595 415.404 471.203V470.363C415.11 469.971 414.55 469.774 413.975 469.774C413.275 469.774 412.7 470.139 412.7 470.797C412.7 471.427 413.275 471.792 413.975 471.792ZM420.727 470.657C421.021 471.091 421.679 471.413 422.253 471.413C423.29 471.413 423.976 470.629 423.976 469.452C423.976 468.276 423.29 467.477 422.253 467.477C421.679 467.477 421.021 467.813 420.727 468.262V470.657ZM420.727 472.828H418.948V463.485H420.727V466.931C421.259 466.244 422.015 465.894 422.814 465.894C424.537 465.894 425.811 467.239 425.811 469.452C425.811 471.707 424.523 472.996 422.814 472.996C422.001 472.996 421.259 472.632 420.727 471.96V472.828ZM430.335 472.996C428.276 472.996 426.721 471.609 426.721 469.438C426.721 467.477 428.164 465.894 430.223 465.894C432.24 465.894 433.613 467.407 433.613 469.62V470.013H428.584C428.696 470.867 429.383 471.581 430.531 471.581C431.106 471.581 431.904 471.329 432.338 470.909L433.123 472.058C432.45 472.674 431.386 472.996 430.335 472.996ZM431.89 468.808C431.848 468.163 431.4 467.309 430.223 467.309C429.116 467.309 428.64 468.135 428.556 468.808H431.89ZM436.677 472.828H434.898V463.485H436.677V472.828Z" fill="#9DB0D0"/>
<rect x="461.254" y="446.822" width="87.0295" height="45.0136" rx="8.00454" fill="#EDF1F6"/>
<mask id="path-58-inside-2_1929_16711" fill="white">
<path d="M489.462 464.131C489.745 463.894 490.168 463.929 490.382 464.229C491.407 465.658 491.981 467.369 492.02 469.138C492.063 471.13 491.426 473.077 490.213 474.658C489 476.239 487.284 477.359 485.349 477.833C483.414 478.307 481.375 478.106 479.568 477.265C477.762 476.423 476.298 474.99 475.416 473.204C474.534 471.417 474.288 469.383 474.719 467.437C475.149 465.492 476.231 463.751 477.784 462.504C479.164 461.395 480.842 460.735 482.596 460.6C482.963 460.572 483.263 460.873 483.263 461.241C483.263 461.61 482.964 461.906 482.597 461.939C481.147 462.07 479.762 462.626 478.62 463.544C477.303 464.602 476.387 466.077 476.022 467.726C475.657 469.375 475.865 471.099 476.612 472.613C477.36 474.128 478.601 475.342 480.132 476.055C481.663 476.768 483.391 476.938 485.032 476.537C486.672 476.135 488.126 475.186 489.154 473.846C490.182 472.506 490.722 470.855 490.685 469.167C490.653 467.702 490.188 466.284 489.356 465.089C489.146 464.787 489.18 464.367 489.462 464.131Z"/>
</mask>
<path d="M489.462 464.131C489.745 463.894 490.168 463.929 490.382 464.229C491.407 465.658 491.981 467.369 492.02 469.138C492.063 471.13 491.426 473.077 490.213 474.658C489 476.239 487.284 477.359 485.349 477.833C483.414 478.307 481.375 478.106 479.568 477.265C477.762 476.423 476.298 474.99 475.416 473.204C474.534 471.417 474.288 469.383 474.719 467.437C475.149 465.492 476.231 463.751 477.784 462.504C479.164 461.395 480.842 460.735 482.596 460.6C482.963 460.572 483.263 460.873 483.263 461.241C483.263 461.61 482.964 461.906 482.597 461.939C481.147 462.07 479.762 462.626 478.62 463.544C477.303 464.602 476.387 466.077 476.022 467.726C475.657 469.375 475.865 471.099 476.612 472.613C477.36 474.128 478.601 475.342 480.132 476.055C481.663 476.768 483.391 476.938 485.032 476.537C486.672 476.135 488.126 475.186 489.154 473.846C490.182 472.506 490.722 470.855 490.685 469.167C490.653 467.702 490.188 466.284 489.356 465.089C489.146 464.787 489.18 464.367 489.462 464.131Z" stroke="#9DB0D0" stroke-width="4.00227" mask="url(#path-58-inside-2_1929_16711)"/>
<path d="M508.141 472.828H502.202V463.485H504.191V471.077H508.141V472.828ZM515.238 472.828H513.459V472.128C512.996 472.674 512.198 472.996 511.315 472.996C510.237 472.996 508.962 472.268 508.962 470.755C508.962 469.172 510.237 468.57 511.315 468.57C512.212 468.57 513.01 468.864 513.459 469.396V468.486C513.459 467.799 512.87 467.351 511.974 467.351C511.245 467.351 510.573 467.617 509.999 468.149L509.326 466.959C510.153 466.23 511.217 465.894 512.282 465.894C513.823 465.894 515.238 466.511 515.238 468.458V472.828ZM512.03 471.792C512.604 471.792 513.165 471.595 513.459 471.203V470.363C513.165 469.971 512.604 469.774 512.03 469.774C511.329 469.774 510.755 470.139 510.755 470.797C510.755 471.427 511.329 471.792 512.03 471.792ZM518.781 470.657C519.075 471.091 519.734 471.413 520.308 471.413C521.345 471.413 522.031 470.629 522.031 469.452C522.031 468.276 521.345 467.477 520.308 467.477C519.734 467.477 519.075 467.813 518.781 468.262V470.657ZM518.781 472.828H517.002V463.485H518.781V466.931C519.314 466.244 520.07 465.894 520.868 465.894C522.591 465.894 523.866 467.239 523.866 469.452C523.866 471.707 522.577 472.996 520.868 472.996C520.056 472.996 519.314 472.632 518.781 471.96V472.828ZM528.39 472.996C526.331 472.996 524.776 471.609 524.776 469.438C524.776 467.477 526.219 465.894 528.278 465.894C530.295 465.894 531.668 467.407 531.668 469.62V470.013H526.639C526.751 470.867 527.437 471.581 528.586 471.581C529.16 471.581 529.959 471.329 530.393 470.909L531.177 472.058C530.505 472.674 529.44 472.996 528.39 472.996ZM529.945 468.808C529.903 468.163 529.454 467.309 528.278 467.309C527.171 467.309 526.695 468.135 526.611 468.808H529.945ZM534.732 472.828H532.953V463.485H534.732V472.828Z" fill="#9DB0D0"/>
<rect x="587.328" y="446.822" width="87.0295" height="45.0136" rx="8.00454" fill="#EDF1F6"/>
<mask id="path-61-inside-3_1929_16711" fill="white">
<path d="M615.536 464.131C615.819 463.894 616.242 463.929 616.457 464.229C617.482 465.658 618.055 467.369 618.094 469.138C618.137 471.13 617.5 473.077 616.287 474.658C615.074 476.239 613.359 477.359 611.423 477.833C609.488 478.307 607.449 478.106 605.643 477.265C603.837 476.423 602.372 474.99 601.49 473.204C600.608 471.417 600.362 469.383 600.793 467.437C601.223 465.492 602.305 463.751 603.858 462.504C605.238 461.395 606.916 460.735 608.67 460.6C609.038 460.572 609.337 460.873 609.337 461.241C609.337 461.61 609.038 461.906 608.671 461.939C607.221 462.07 605.837 462.626 604.694 463.544C603.377 464.602 602.461 466.077 602.096 467.726C601.731 469.375 601.939 471.099 602.687 472.613C603.434 474.128 604.676 475.342 606.206 476.055C607.737 476.768 609.466 476.938 611.106 476.537C612.746 476.135 614.201 475.186 615.228 473.846C616.256 472.506 616.796 470.855 616.76 469.167C616.728 467.702 616.263 466.284 615.431 465.089C615.22 464.787 615.254 464.367 615.536 464.131Z"/>
</mask>
<path d="M615.536 464.131C615.819 463.894 616.242 463.929 616.457 464.229C617.482 465.658 618.055 467.369 618.094 469.138C618.137 471.13 617.5 473.077 616.287 474.658C615.074 476.239 613.359 477.359 611.423 477.833C609.488 478.307 607.449 478.106 605.643 477.265C603.837 476.423 602.372 474.99 601.49 473.204C600.608 471.417 600.362 469.383 600.793 467.437C601.223 465.492 602.305 463.751 603.858 462.504C605.238 461.395 606.916 460.735 608.67 460.6C609.038 460.572 609.337 460.873 609.337 461.241C609.337 461.61 609.038 461.906 608.671 461.939C607.221 462.07 605.837 462.626 604.694 463.544C603.377 464.602 602.461 466.077 602.096 467.726C601.731 469.375 601.939 471.099 602.687 472.613C603.434 474.128 604.676 475.342 606.206 476.055C607.737 476.768 609.466 476.938 611.106 476.537C612.746 476.135 614.201 475.186 615.228 473.846C616.256 472.506 616.796 470.855 616.76 469.167C616.728 467.702 616.263 466.284 615.431 465.089C615.22 464.787 615.254 464.367 615.536 464.131Z" stroke="#9DB0D0" stroke-width="4.00227" mask="url(#path-61-inside-3_1929_16711)"/>
<path d="M634.215 472.828H628.276V463.485H630.265V471.077H634.215V472.828ZM641.312 472.828H639.533V472.128C639.071 472.674 638.272 472.996 637.39 472.996C636.311 472.996 635.036 472.268 635.036 470.755C635.036 469.172 636.311 468.57 637.39 468.57C638.286 468.57 639.085 468.864 639.533 469.396V468.486C639.533 467.799 638.945 467.351 638.048 467.351C637.32 467.351 636.647 467.617 636.073 468.149L635.401 466.959C636.227 466.23 637.292 465.894 638.356 465.894C639.897 465.894 641.312 466.511 641.312 468.458V472.828ZM638.104 471.792C638.678 471.792 639.239 471.595 639.533 471.203V470.363C639.239 469.971 638.678 469.774 638.104 469.774C637.404 469.774 636.829 470.139 636.829 470.797C636.829 471.427 637.404 471.792 638.104 471.792ZM644.855 470.657C645.15 471.091 645.808 471.413 646.382 471.413C647.419 471.413 648.105 470.629 648.105 469.452C648.105 468.276 647.419 467.477 646.382 467.477C645.808 467.477 645.15 467.813 644.855 468.262V470.657ZM644.855 472.828H643.076V463.485H644.855V466.931C645.388 466.244 646.144 465.894 646.943 465.894C648.666 465.894 649.94 467.239 649.94 469.452C649.94 471.707 648.652 472.996 646.943 472.996C646.13 472.996 645.388 472.632 644.855 471.96V472.828ZM654.464 472.996C652.405 472.996 650.85 471.609 650.85 469.438C650.85 467.477 652.293 465.894 654.352 465.894C656.369 465.894 657.742 467.407 657.742 469.62V470.013H652.713C652.825 470.867 653.512 471.581 654.66 471.581C655.234 471.581 656.033 471.329 656.467 470.909L657.252 472.058C656.579 472.674 655.515 472.996 654.464 472.996ZM656.019 468.808C655.977 468.163 655.529 467.309 654.352 467.309C653.245 467.309 652.769 468.135 652.685 468.808H656.019ZM660.806 472.828H659.027V463.485H660.806V472.828Z" fill="#9DB0D0"/>
<rect x="713.398" y="446.822" width="44.025" height="44.025" rx="8.00454" fill="#EDF1F6"/>
<mask id="path-64-inside-4_1929_16711" fill="white">
<path d="M741.607 463.636C741.889 463.399 742.312 463.435 742.527 463.734C743.552 465.164 744.125 466.875 744.164 468.644C744.208 470.636 743.57 472.583 742.358 474.164C741.145 475.745 739.429 476.865 737.494 477.339C735.558 477.813 733.519 477.612 731.713 476.771C729.907 475.929 728.442 474.496 727.56 472.71C726.678 470.923 726.433 468.889 726.863 466.943C727.294 464.998 728.375 463.257 729.929 462.009C731.308 460.901 732.987 460.241 734.741 460.106C735.108 460.078 735.407 460.379 735.407 460.747C735.408 461.116 735.108 461.412 734.741 461.445C733.292 461.576 731.907 462.132 730.764 463.05C729.448 464.107 728.531 465.583 728.166 467.231C727.801 468.88 728.01 470.604 728.757 472.119C729.504 473.633 730.746 474.848 732.277 475.561C733.808 476.274 735.536 476.444 737.176 476.043C738.817 475.641 740.271 474.692 741.299 473.352C742.327 472.012 742.867 470.361 742.83 468.673C742.798 467.207 742.333 465.79 741.501 464.595C741.29 464.293 741.324 463.873 741.607 463.636Z"/>
</mask>
<path d="M741.607 463.636C741.889 463.399 742.312 463.435 742.527 463.734C743.552 465.164 744.125 466.875 744.164 468.644C744.208 470.636 743.57 472.583 742.358 474.164C741.145 475.745 739.429 476.865 737.494 477.339C735.558 477.813 733.519 477.612 731.713 476.771C729.907 475.929 728.442 474.496 727.56 472.71C726.678 470.923 726.433 468.889 726.863 466.943C727.294 464.998 728.375 463.257 729.929 462.009C731.308 460.901 732.987 460.241 734.741 460.106C735.108 460.078 735.407 460.379 735.407 460.747C735.408 461.116 735.108 461.412 734.741 461.445C733.292 461.576 731.907 462.132 730.764 463.05C729.448 464.107 728.531 465.583 728.166 467.231C727.801 468.88 728.01 470.604 728.757 472.119C729.504 473.633 730.746 474.848 732.277 475.561C733.808 476.274 735.536 476.444 737.176 476.043C738.817 475.641 740.271 474.692 741.299 473.352C742.327 472.012 742.867 470.361 742.83 468.673C742.798 467.207 742.333 465.79 741.501 464.595C741.29 464.293 741.324 463.873 741.607 463.636Z" stroke="#9DB0D0" stroke-width="4.00227" mask="url(#path-64-inside-4_1929_16711)"/>
</g>
</g>
<rect x="6.00113" y="5.6027" width="796.452" height="526.298" rx="13.9989" stroke="#282828" stroke-width="4.00227"/>
</g>
<defs>
<filter id="filter0_dd_1929_16711" x="0" y="0.601562" width="808.453" height="538.301" filterUnits="userSpaceOnUse" color-interpolation-filters="sRGB">
<feFlood flood-opacity="0" result="BackgroundImageFix"/>
<feColorMatrix in="SourceAlpha" type="matrix" values="0 0 0 0 0 0 0 0 0 0 0 0 0 0 0 0 0 0 127 0" result="hardAlpha"/>
<feOffset dy="1"/>
<feGaussianBlur stdDeviation="2"/>
<feComposite in2="hardAlpha" operator="out"/>
<feColorMatrix type="matrix" values="0 0 0 0 0.0470588 0 0 0 0 0.0470588 0 0 0 0 0.0509804 0 0 0 0.05 0"/>
<feBlend mode="normal" in2="BackgroundImageFix" result="effect1_dropShadow_1929_16711"/>
<feColorMatrix in="SourceAlpha" type="matrix" values="0 0 0 0 0 0 0 0 0 0 0 0 0 0 0 0 0 0 127 0" result="hardAlpha"/>
<feOffset dy="1"/>
<feGaussianBlur stdDeviation="2"/>
<feComposite in2="hardAlpha" operator="out"/>
<feColorMatrix type="matrix" values="0 0 0 0 0.0470588 0 0 0 0 0.0470588 0 0 0 0 0.0509804 0 0 0 0.1 0"/>
<feBlend mode="normal" in2="effect1_dropShadow_1929_16711" result="effect2_dropShadow_1929_16711"/>
<feBlend mode="normal" in="SourceGraphic" in2="effect2_dropShadow_1929_16711" result="shape"/>
</filter>
<filter id="filter1_d_1929_16711" x="123.066" y="-323.584" width="1456.83" height="5000.84" filterUnits="userSpaceOnUse" color-interpolation-filters="sRGB">
<feFlood flood-opacity="0" result="BackgroundImageFix"/>
<feColorMatrix in="SourceAlpha" type="matrix" values="0 0 0 0 0 0 0 0 0 0 0 0 0 0 0 0 0 0 127 0" result="hardAlpha"/>
<feOffset dy="4.00227"/>
<feGaussianBlur stdDeviation="4.00227"/>
<feComposite in2="hardAlpha" operator="out"/>
<feColorMatrix type="matrix" values="0 0 0 0 0 0 0 0 0 0 0 0 0 0 0 0 0 0 0.25 0"/>
<feBlend mode="normal" in2="BackgroundImageFix" result="effect1_dropShadow_1929_16711"/>
<feBlend mode="normal" in="SourceGraphic" in2="effect1_dropShadow_1929_16711" result="shape"/>
</filter>
<clipPath id="clip0_1929_16711">
<rect x="4" y="3.60156" width="800.454" height="530.301" rx="16" fill="white"/>
</clipPath>
<clipPath id="clip1_1929_16711">
<rect width="1440.82" height="4984.83" fill="white" transform="translate(131.07 -319.582)"/>
</clipPath>
</defs>
</svg>
