<svg width="960" height="513" viewBox="0 0 960 513" fill="none" xmlns="http://www.w3.org/2000/svg">
<g clip-path="url(#clip0_2313_23161)">
<rect width="960" height="513" rx="20" fill="#EDF1F6"/>
<rect x="168" y="88" width="624" height="374" rx="24" fill="white"/>
<path d="M241.26 155.639V142.679H245.391C245.499 142.679 245.712 142.682 246.03 142.688C246.354 142.694 246.666 142.715 246.966 142.751C247.992 142.883 248.859 143.249 249.567 143.849C250.281 144.443 250.821 145.202 251.187 146.126C251.553 147.05 251.736 148.061 251.736 149.159C251.736 150.257 251.553 151.268 251.187 152.192C250.821 153.116 250.281 153.878 249.567 154.478C248.859 155.072 247.992 155.435 246.966 155.567C246.672 155.603 246.363 155.624 246.039 155.63C245.715 155.636 245.499 155.639 245.391 155.639H241.26ZM243.465 153.596H245.391C245.571 153.596 245.799 153.59 246.075 153.578C246.357 153.566 246.606 153.539 246.822 153.497C247.434 153.383 247.932 153.11 248.316 152.678C248.7 152.246 248.982 151.721 249.162 151.103C249.348 150.485 249.441 149.837 249.441 149.159C249.441 148.457 249.348 147.797 249.162 147.179C248.976 146.561 248.688 146.042 248.298 145.622C247.914 145.202 247.422 144.935 246.822 144.821C246.606 144.773 246.357 144.746 246.075 144.74C245.799 144.728 245.571 144.722 245.391 144.722H243.465V153.596ZM258.283 155.909C257.299 155.909 256.435 155.696 255.691 155.27C254.947 154.844 254.365 154.253 253.945 153.497C253.531 152.741 253.324 151.871 253.324 150.887C253.324 149.825 253.528 148.904 253.936 148.124C254.344 147.338 254.911 146.729 255.637 146.297C256.363 145.865 257.203 145.649 258.157 145.649C259.165 145.649 260.02 145.886 260.722 146.36C261.43 146.828 261.955 147.491 262.297 148.349C262.639 149.207 262.768 150.218 262.684 151.382H260.533V150.59C260.527 149.534 260.341 148.763 259.975 148.277C259.609 147.791 259.033 147.548 258.247 147.548C257.359 147.548 256.699 147.824 256.267 148.376C255.835 148.922 255.619 149.723 255.619 150.779C255.619 151.763 255.835 152.525 256.267 153.065C256.699 153.605 257.329 153.875 258.157 153.875C258.691 153.875 259.15 153.758 259.534 153.524C259.924 153.284 260.224 152.939 260.434 152.489L262.576 153.137C262.204 154.013 261.628 154.694 260.848 155.18C260.074 155.666 259.219 155.909 258.283 155.909ZM254.935 151.382V149.744H261.622V151.382H254.935ZM265.538 155.639V145.766C265.538 145.52 265.547 145.25 265.565 144.956C265.583 144.656 265.634 144.359 265.718 144.065C265.802 143.771 265.955 143.504 266.177 143.264C266.453 142.958 266.75 142.748 267.068 142.634C267.392 142.514 267.71 142.448 268.022 142.436C268.334 142.418 268.607 142.409 268.841 142.409H270.056V144.173H268.931C268.517 144.173 268.208 144.278 268.004 144.488C267.806 144.692 267.707 144.962 267.707 145.298V155.639H265.538ZM263.972 147.62V145.919H270.056V147.62H263.972ZM273.949 155.909C273.247 155.909 272.653 155.777 272.167 155.513C271.681 155.243 271.312 154.886 271.06 154.442C270.814 153.998 270.691 153.509 270.691 152.975C270.691 152.507 270.769 152.087 270.925 151.715C271.081 151.337 271.321 151.013 271.645 150.743C271.969 150.467 272.389 150.242 272.905 150.068C273.295 149.942 273.751 149.828 274.273 149.726C274.801 149.624 275.371 149.531 275.983 149.447C276.601 149.357 277.246 149.261 277.918 149.159L277.144 149.6C277.15 148.928 277 148.433 276.694 148.115C276.388 147.797 275.872 147.638 275.146 147.638C274.708 147.638 274.285 147.74 273.877 147.944C273.469 148.148 273.184 148.499 273.022 148.997L271.042 148.376C271.282 147.554 271.738 146.894 272.41 146.396C273.088 145.898 274 145.649 275.146 145.649C276.01 145.649 276.769 145.79 277.423 146.072C278.083 146.354 278.572 146.816 278.89 147.458C279.064 147.8 279.169 148.151 279.205 148.511C279.241 148.865 279.259 149.252 279.259 149.672V155.639H277.36V153.533L277.675 153.875C277.237 154.577 276.724 155.093 276.136 155.423C275.554 155.747 274.825 155.909 273.949 155.909ZM274.381 154.181C274.873 154.181 275.293 154.094 275.641 153.92C275.989 153.746 276.265 153.533 276.469 153.281C276.679 153.029 276.82 152.792 276.892 152.57C277.006 152.294 277.069 151.979 277.081 151.625C277.099 151.265 277.108 150.974 277.108 150.752L277.774 150.95C277.12 151.052 276.559 151.142 276.091 151.22C275.623 151.298 275.221 151.373 274.885 151.445C274.549 151.511 274.252 151.586 273.994 151.67C273.742 151.76 273.529 151.865 273.355 151.985C273.181 152.105 273.046 152.243 272.95 152.399C272.86 152.555 272.815 152.738 272.815 152.948C272.815 153.188 272.875 153.401 272.995 153.587C273.115 153.767 273.289 153.911 273.517 154.019C273.751 154.127 274.039 154.181 274.381 154.181ZM285.247 155.918C284.527 155.918 283.933 155.798 283.465 155.558C282.997 155.318 282.625 155.012 282.349 154.64C282.073 154.268 281.869 153.872 281.737 153.452C281.605 153.032 281.518 152.636 281.476 152.264C281.44 151.886 281.422 151.58 281.422 151.346V145.919H283.618V150.599C283.618 150.899 283.639 151.238 283.681 151.616C283.723 151.988 283.819 152.348 283.969 152.696C284.125 153.038 284.353 153.32 284.653 153.542C284.959 153.764 285.37 153.875 285.886 153.875C286.162 153.875 286.435 153.83 286.705 153.74C286.975 153.65 287.218 153.497 287.434 153.281C287.656 153.059 287.833 152.756 287.965 152.372C288.097 151.988 288.163 151.502 288.163 150.914L289.45 151.463C289.45 152.291 289.288 153.041 288.964 153.713C288.646 154.385 288.175 154.922 287.551 155.324C286.927 155.72 286.159 155.918 285.247 155.918ZM288.424 155.639V152.624H288.163V145.919H290.341V155.639H288.424ZM293.049 155.639V142.409H295.218V155.639H293.049ZM303.611 155.639C302.969 155.759 302.339 155.81 301.721 155.792C301.109 155.78 300.56 155.669 300.074 155.459C299.588 155.243 299.219 154.904 298.967 154.442C298.745 154.022 298.628 153.593 298.616 153.155C298.604 152.717 298.598 152.222 298.598 151.67V143.219H300.758V151.544C300.758 151.934 300.761 152.276 300.767 152.57C300.779 152.864 300.842 153.104 300.956 153.29C301.172 153.65 301.517 153.851 301.991 153.893C302.465 153.935 303.005 153.911 303.611 153.821V155.639ZM296.834 147.62V145.919H303.611V147.62H296.834Z" fill="#282828"/>
<rect x="240" y="194.639" width="58.862" height="43.862" rx="7.954" fill="#493DF5"/>
<path d="M258.752 220.57H252.85V211.286H254.827V218.83H258.752V220.57ZM265.804 220.57H264.036V219.874C263.577 220.417 262.783 220.737 261.906 220.737C260.835 220.737 259.568 220.014 259.568 218.51C259.568 216.937 260.835 216.339 261.906 216.339C262.797 216.339 263.591 216.631 264.036 217.16V216.255C264.036 215.573 263.451 215.128 262.561 215.128C261.837 215.128 261.169 215.392 260.598 215.921L259.93 214.738C260.751 214.014 261.809 213.68 262.867 213.68C264.398 213.68 265.804 214.293 265.804 216.227V220.57ZM262.616 219.54C263.187 219.54 263.744 219.345 264.036 218.956V218.12C263.744 217.731 263.187 217.536 262.616 217.536C261.92 217.536 261.35 217.898 261.35 218.552C261.35 219.178 261.92 219.54 262.616 219.54ZM269.325 218.413C269.617 218.844 270.272 219.164 270.842 219.164C271.872 219.164 272.554 218.385 272.554 217.216C272.554 216.046 271.872 215.253 270.842 215.253C270.272 215.253 269.617 215.587 269.325 216.033V218.413ZM269.325 220.57H267.557V211.286H269.325V214.71C269.854 214.028 270.606 213.68 271.399 213.68C273.111 213.68 274.378 215.016 274.378 217.216C274.378 219.457 273.097 220.737 271.399 220.737C270.592 220.737 269.854 220.375 269.325 219.707V220.57ZM278.873 220.737C276.827 220.737 275.282 219.359 275.282 217.202C275.282 215.253 276.715 213.68 278.762 213.68C280.766 213.68 282.13 215.183 282.13 217.383V217.772H277.133C277.244 218.622 277.926 219.331 279.068 219.331C279.639 219.331 280.432 219.081 280.863 218.663L281.643 219.805C280.975 220.417 279.917 220.737 278.873 220.737ZM280.418 216.575C280.376 215.935 279.931 215.086 278.762 215.086C277.662 215.086 277.189 215.907 277.105 216.575H280.418ZM285.175 220.57H283.407V211.286H285.175V220.57Z" fill="white"/>
<rect x="240" y="270.5" width="58.862" height="43.862" rx="7.954" fill="#EDF1F6"/>
<path d="M258.752 296.432H252.85V287.147H254.827V294.692H258.752V296.432ZM265.804 296.432H264.036V295.736C263.577 296.279 262.783 296.599 261.906 296.599C260.835 296.599 259.568 295.875 259.568 294.372C259.568 292.799 260.835 292.2 261.906 292.2C262.797 292.2 263.591 292.492 264.036 293.021V292.117C264.036 291.435 263.451 290.989 262.561 290.989C261.837 290.989 261.169 291.254 260.598 291.783L259.93 290.599C260.751 289.876 261.809 289.541 262.867 289.541C264.398 289.541 265.804 290.154 265.804 292.089V296.432ZM262.616 295.402C263.187 295.402 263.744 295.207 264.036 294.817V293.982C263.744 293.592 263.187 293.397 262.616 293.397C261.92 293.397 261.35 293.759 261.35 294.413C261.35 295.04 261.92 295.402 262.616 295.402ZM269.325 294.274C269.617 294.706 270.272 295.026 270.842 295.026C271.872 295.026 272.554 294.246 272.554 293.077C272.554 291.908 271.872 291.114 270.842 291.114C270.272 291.114 269.617 291.448 269.325 291.894V294.274ZM269.325 296.432H267.557V287.147H269.325V290.572C269.854 289.889 270.606 289.541 271.399 289.541C273.111 289.541 274.378 290.878 274.378 293.077C274.378 295.318 273.097 296.599 271.399 296.599C270.592 296.599 269.854 296.237 269.325 295.569V296.432ZM278.873 296.599C276.827 296.599 275.282 295.221 275.282 293.063C275.282 291.114 276.715 289.541 278.762 289.541C280.766 289.541 282.13 291.045 282.13 293.244V293.634H277.133C277.244 294.483 277.926 295.193 279.068 295.193C279.639 295.193 280.432 294.942 280.863 294.525L281.643 295.666C280.975 296.279 279.917 296.599 278.873 296.599ZM280.418 292.437C280.376 291.796 279.931 290.947 278.762 290.947C277.662 290.947 277.189 291.769 277.105 292.437H280.418ZM285.175 296.432H283.407V287.147H285.175V296.432Z" fill="#2B3C5A"/>
<path d="M246.86 360.363H240.924V351.025H242.912V358.613H246.86V360.363ZM253.952 360.363H252.174V359.663C251.712 360.209 250.914 360.531 250.032 360.531C248.954 360.531 247.68 359.803 247.68 358.291C247.68 356.709 248.954 356.107 250.032 356.107C250.928 356.107 251.726 356.401 252.174 356.933V356.023C252.174 355.337 251.586 354.889 250.69 354.889C249.962 354.889 249.29 355.155 248.716 355.687L248.044 354.497C248.87 353.769 249.934 353.433 250.998 353.433C252.538 353.433 253.952 354.049 253.952 355.995V360.363ZM250.746 359.327C251.32 359.327 251.88 359.131 252.174 358.739V357.899C251.88 357.507 251.32 357.311 250.746 357.311C250.046 357.311 249.472 357.675 249.472 358.333C249.472 358.963 250.046 359.327 250.746 359.327ZM257.494 358.193C257.788 358.627 258.446 358.949 259.02 358.949C260.056 358.949 260.742 358.165 260.742 356.989C260.742 355.813 260.056 355.015 259.02 355.015C258.446 355.015 257.788 355.351 257.494 355.799V358.193ZM257.494 360.363H255.716V351.025H257.494V354.469C258.026 353.783 258.782 353.433 259.58 353.433C261.302 353.433 262.576 354.777 262.576 356.989C262.576 359.243 261.288 360.531 259.58 360.531C258.768 360.531 258.026 360.167 257.494 359.495V360.363ZM267.097 360.531C265.039 360.531 263.485 359.145 263.485 356.975C263.485 355.015 264.927 353.433 266.985 353.433C269.001 353.433 270.373 354.945 270.373 357.157V357.549H265.347C265.459 358.403 266.145 359.117 267.293 359.117C267.867 359.117 268.665 358.865 269.099 358.445L269.883 359.593C269.211 360.209 268.147 360.531 267.097 360.531ZM268.651 356.345C268.609 355.701 268.161 354.847 266.985 354.847C265.879 354.847 265.403 355.673 265.319 356.345H268.651ZM273.435 360.363H271.657V351.025H273.435V360.363Z" fill="#2B3C5A"/>
<rect x="240.5" y="370.863" width="199" height="43" rx="7.5" fill="white"/>
<rect x="240.5" y="370.863" width="199" height="43" rx="7.5" stroke="#D0D9E8"/>
<path d="M256.116 396.531C254.492 396.531 253.302 395.915 252.532 395.047L253.218 394.165C253.834 394.851 254.842 395.495 256.158 395.495C257.824 395.495 258.356 394.599 258.356 393.885C258.356 391.477 252.826 392.807 252.826 389.475C252.826 387.935 254.198 386.885 256.032 386.885C257.46 386.885 258.566 387.361 259.35 388.187L258.65 389.041C257.95 388.271 256.97 387.921 255.948 387.921C254.828 387.921 254.03 388.523 254.03 389.405C254.03 391.505 259.56 390.301 259.56 393.787C259.56 395.145 258.636 396.531 256.116 396.531ZM264.305 396.531C262.303 396.531 260.861 395.089 260.861 392.975C260.861 391.015 262.261 389.433 264.193 389.433C266.237 389.433 267.441 391.029 267.441 393.059V393.325H261.967C262.051 394.599 262.947 395.663 264.403 395.663C265.173 395.663 265.957 395.355 266.489 394.809L266.993 395.495C266.321 396.167 265.411 396.531 264.305 396.531ZM266.405 392.555C266.391 391.547 265.719 390.301 264.179 390.301C262.737 390.301 262.023 391.519 261.967 392.555H266.405ZM270.192 396.363H269.142V387.025H270.192V396.363ZM275.338 396.531C273.336 396.531 271.894 395.089 271.894 392.975C271.894 391.015 273.294 389.433 275.226 389.433C277.27 389.433 278.474 391.029 278.474 393.059V393.325H273C273.084 394.599 273.98 395.663 275.436 395.663C276.206 395.663 276.99 395.355 277.522 394.809L278.026 395.495C277.354 396.167 276.444 396.531 275.338 396.531ZM277.438 392.555C277.424 391.547 276.752 390.301 275.212 390.301C273.77 390.301 273.056 391.519 273 392.555H277.438ZM283.157 396.531C281.141 396.531 279.783 394.991 279.783 392.975C279.783 390.973 281.141 389.433 283.157 389.433C284.389 389.433 285.117 389.937 285.635 390.609L284.935 391.253C284.487 390.637 283.913 390.371 283.213 390.371C281.771 390.371 280.875 391.477 280.875 392.975C280.875 394.473 281.771 395.593 283.213 395.593C283.913 395.593 284.487 395.313 284.935 394.711L285.635 395.355C285.117 396.027 284.389 396.531 283.157 396.531ZM288.815 396.531C287.821 396.531 287.317 395.957 287.317 394.949V390.525H286.197V389.601H287.317V387.753H288.367V389.601H289.739V390.525H288.367V394.725C288.367 395.229 288.591 395.593 289.053 395.593C289.347 395.593 289.627 395.467 289.767 395.313L290.075 396.097C289.809 396.349 289.431 396.531 288.815 396.531ZM300.109 396.363H299.059V395.593C298.499 396.209 297.729 396.531 296.819 396.531C295.671 396.531 294.453 395.761 294.453 394.291C294.453 392.779 295.671 392.065 296.819 392.065C297.743 392.065 298.513 392.359 299.059 392.989V391.771C299.059 390.861 298.331 390.343 297.351 390.343C296.539 390.343 295.881 390.637 295.279 391.281L294.789 390.553C295.517 389.797 296.385 389.433 297.491 389.433C298.919 389.433 300.109 390.077 300.109 391.715V396.363ZM297.197 395.775C297.939 395.775 298.653 395.495 299.059 394.935V393.661C298.653 393.101 297.939 392.821 297.197 392.821C296.217 392.821 295.531 393.437 295.531 394.305C295.531 395.159 296.217 395.775 297.197 395.775ZM307.828 396.363H306.778V391.939C306.778 390.749 306.176 390.371 305.266 390.371C304.44 390.371 303.656 390.875 303.264 391.421V396.363H302.214V389.601H303.264V390.581C303.74 390.021 304.664 389.433 305.672 389.433C307.086 389.433 307.828 390.147 307.828 391.617V396.363ZM316.488 396.531C314.43 396.531 313.142 394.935 313.142 392.975C313.142 391.015 314.43 389.433 316.488 389.433C318.546 389.433 319.834 391.015 319.834 392.975C319.834 394.935 318.546 396.531 316.488 396.531ZM316.488 395.593C317.93 395.593 318.728 394.361 318.728 392.975C318.728 391.603 317.93 390.371 316.488 390.371C315.046 390.371 314.234 391.603 314.234 392.975C314.234 394.361 315.046 395.593 316.488 395.593ZM324.878 396.531C323.954 396.531 323.142 396.097 322.596 395.341V398.939H321.546V389.601H322.596V390.609C323.086 389.923 323.926 389.433 324.878 389.433C326.656 389.433 327.888 390.777 327.888 392.975C327.888 395.159 326.656 396.531 324.878 396.531ZM324.612 395.593C325.97 395.593 326.782 394.473 326.782 392.975C326.782 391.477 325.97 390.371 324.612 390.371C323.786 390.371 322.96 390.861 322.596 391.449V394.501C322.96 395.089 323.786 395.593 324.612 395.593ZM331.266 396.531C330.272 396.531 329.768 395.957 329.768 394.949V390.525H328.648V389.601H329.768V387.753H330.818V389.601H332.19V390.525H330.818V394.725C330.818 395.229 331.042 395.593 331.504 395.593C331.798 395.593 332.078 395.467 332.218 395.313L332.526 396.097C332.26 396.349 331.882 396.531 331.266 396.531ZM334.191 388.635C333.813 388.635 333.491 388.327 333.491 387.935C333.491 387.543 333.813 387.221 334.191 387.221C334.583 387.221 334.905 387.543 334.905 387.935C334.905 388.327 334.583 388.635 334.191 388.635ZM334.723 396.363H333.673V389.601H334.723V396.363ZM339.772 396.531C337.714 396.531 336.426 394.935 336.426 392.975C336.426 391.015 337.714 389.433 339.772 389.433C341.83 389.433 343.118 391.015 343.118 392.975C343.118 394.935 341.83 396.531 339.772 396.531ZM339.772 395.593C341.214 395.593 342.012 394.361 342.012 392.975C342.012 391.603 341.214 390.371 339.772 390.371C338.33 390.371 337.518 391.603 337.518 392.975C337.518 394.361 338.33 395.593 339.772 395.593ZM350.443 396.363H349.393V391.939C349.393 390.749 348.791 390.371 347.881 390.371C347.055 390.371 346.271 390.875 345.879 391.421V396.363H344.829V389.601H345.879V390.581C346.355 390.021 347.279 389.433 348.287 389.433C349.701 389.433 350.443 390.147 350.443 391.617V396.363Z" fill="#2B3C5A"/>
<path fill-rule="evenodd" clip-rule="evenodd" d="M420.354 395.217C420.158 395.412 419.842 395.412 419.646 395.217L414.646 390.217C414.451 390.022 414.451 389.705 414.646 389.51C414.842 389.314 415.158 389.314 415.354 389.51L420 394.156L424.646 389.51C424.842 389.314 425.158 389.314 425.354 389.51C425.549 389.705 425.549 390.022 425.354 390.217L420.354 395.217Z" fill="#2B3C5A"/>
<path d="M521.26 155.639V142.679H529.063V144.848H523.429V148.079H527.983V150.239H523.429V155.639H521.26ZM534.711 155.909C533.739 155.909 532.89 155.69 532.164 155.252C531.438 154.814 530.874 154.211 530.472 153.443C530.076 152.669 529.878 151.781 529.878 150.779C529.878 149.759 530.082 148.865 530.49 148.097C530.898 147.329 531.465 146.729 532.191 146.297C532.917 145.865 533.757 145.649 534.711 145.649C535.689 145.649 536.541 145.868 537.267 146.306C537.993 146.744 538.557 147.35 538.959 148.124C539.361 148.892 539.562 149.777 539.562 150.779C539.562 151.787 539.358 152.678 538.95 153.452C538.548 154.22 537.984 154.823 537.258 155.261C536.532 155.693 535.683 155.909 534.711 155.909ZM534.711 153.875C535.575 153.875 536.217 153.587 536.637 153.011C537.057 152.435 537.267 151.691 537.267 150.779C537.267 149.837 537.054 149.087 536.628 148.529C536.202 147.965 535.563 147.683 534.711 147.683C534.129 147.683 533.649 147.815 533.271 148.079C532.899 148.337 532.623 148.7 532.443 149.168C532.263 149.63 532.173 150.167 532.173 150.779C532.173 151.721 532.386 152.474 532.812 153.038C533.244 153.596 533.877 153.875 534.711 153.875ZM545.766 155.909C544.764 155.909 543.909 155.687 543.201 155.243C542.493 154.793 541.95 154.181 541.572 153.407C541.2 152.633 541.011 151.757 541.005 150.779C541.011 149.783 541.206 148.901 541.59 148.133C541.98 147.359 542.532 146.753 543.246 146.315C543.96 145.871 544.809 145.649 545.793 145.649C546.897 145.649 547.83 145.928 548.592 146.486C549.36 147.038 549.861 147.794 550.095 148.754L547.935 149.339C547.767 148.817 547.488 148.412 547.098 148.124C546.708 147.83 546.264 147.683 545.766 147.683C545.202 147.683 544.737 147.818 544.371 148.088C544.005 148.352 543.735 148.718 543.561 149.186C543.387 149.654 543.3 150.185 543.3 150.779C543.3 151.703 543.507 152.45 543.921 153.02C544.335 153.59 544.95 153.875 545.766 153.875C546.342 153.875 546.795 153.743 547.125 153.479C547.461 153.215 547.713 152.834 547.881 152.336L550.095 152.831C549.795 153.821 549.27 154.583 548.52 155.117C547.77 155.645 546.852 155.909 545.766 155.909ZM555.544 155.918C554.824 155.918 554.23 155.798 553.762 155.558C553.294 155.318 552.922 155.012 552.646 154.64C552.37 154.268 552.166 153.872 552.034 153.452C551.902 153.032 551.815 152.636 551.773 152.264C551.737 151.886 551.719 151.58 551.719 151.346V145.919H553.915V150.599C553.915 150.899 553.936 151.238 553.978 151.616C554.02 151.988 554.116 152.348 554.266 152.696C554.422 153.038 554.65 153.32 554.95 153.542C555.256 153.764 555.667 153.875 556.183 153.875C556.459 153.875 556.732 153.83 557.002 153.74C557.272 153.65 557.515 153.497 557.731 153.281C557.953 153.059 558.13 152.756 558.262 152.372C558.394 151.988 558.46 151.502 558.46 150.914L559.747 151.463C559.747 152.291 559.585 153.041 559.261 153.713C558.943 154.385 558.472 154.922 557.848 155.324C557.224 155.72 556.456 155.918 555.544 155.918ZM558.721 155.639V152.624H558.46V145.919H560.638V155.639H558.721ZM566.919 155.909C565.719 155.909 564.744 155.639 563.994 155.099C563.244 154.559 562.788 153.8 562.626 152.822L564.84 152.48C564.954 152.96 565.206 153.338 565.596 153.614C565.986 153.89 566.478 154.028 567.072 154.028C567.594 154.028 567.996 153.926 568.278 153.722C568.566 153.512 568.71 153.227 568.71 152.867C568.71 152.645 568.656 152.468 568.548 152.336C568.446 152.198 568.218 152.066 567.864 151.94C567.51 151.814 566.967 151.655 566.235 151.463C565.419 151.247 564.771 151.016 564.291 150.77C563.811 150.518 563.466 150.221 563.256 149.879C563.046 149.537 562.941 149.123 562.941 148.637C562.941 148.031 563.1 147.503 563.418 147.053C563.736 146.603 564.18 146.258 564.75 146.018C565.32 145.772 565.992 145.649 566.766 145.649C567.522 145.649 568.191 145.766 568.773 146C569.361 146.234 569.835 146.567 570.195 146.999C570.555 147.431 570.777 147.938 570.861 148.52L568.647 148.916C568.593 148.502 568.404 148.175 568.08 147.935C567.762 147.695 567.336 147.56 566.802 147.53C566.292 147.5 565.881 147.578 565.569 147.764C565.257 147.944 565.101 148.199 565.101 148.529C565.101 148.715 565.164 148.874 565.29 149.006C565.416 149.138 565.668 149.27 566.046 149.402C566.43 149.534 567 149.696 567.756 149.888C568.53 150.086 569.148 150.314 569.61 150.572C570.078 150.824 570.414 151.127 570.618 151.481C570.828 151.835 570.933 152.264 570.933 152.768C570.933 153.746 570.576 154.514 569.862 155.072C569.154 155.63 568.173 155.909 566.919 155.909Z" fill="#282828"/>
<rect x="519.006" y="193.644" width="60.8505" height="45.8505" rx="8.94825" fill="#493DF5"/>
<rect x="519.006" y="193.644" width="60.8505" height="45.8505" rx="8.94825" stroke="#AAB0FE" stroke-width="1.9885"/>
<path d="M538.752 220.57H532.85V211.286H534.827V218.83H538.752V220.57ZM545.804 220.57H544.036V219.874C543.577 220.417 542.783 220.737 541.906 220.737C540.835 220.737 539.568 220.014 539.568 218.51C539.568 216.937 540.835 216.339 541.906 216.339C542.797 216.339 543.591 216.631 544.036 217.16V216.255C544.036 215.573 543.451 215.128 542.561 215.128C541.837 215.128 541.169 215.392 540.598 215.921L539.93 214.738C540.751 214.014 541.809 213.68 542.867 213.68C544.398 213.68 545.804 214.293 545.804 216.227V220.57ZM542.616 219.54C543.187 219.54 543.744 219.345 544.036 218.956V218.12C543.744 217.731 543.187 217.536 542.616 217.536C541.92 217.536 541.35 217.898 541.35 218.552C541.35 219.178 541.92 219.54 542.616 219.54ZM549.325 218.413C549.617 218.844 550.272 219.164 550.842 219.164C551.872 219.164 552.554 218.385 552.554 217.216C552.554 216.046 551.872 215.253 550.842 215.253C550.272 215.253 549.617 215.587 549.325 216.033V218.413ZM549.325 220.57H547.557V211.286H549.325V214.71C549.854 214.028 550.606 213.68 551.399 213.68C553.111 213.68 554.378 215.016 554.378 217.216C554.378 219.457 553.097 220.737 551.399 220.737C550.592 220.737 549.854 220.375 549.325 219.707V220.57ZM558.873 220.737C556.827 220.737 555.282 219.359 555.282 217.202C555.282 215.253 556.715 213.68 558.762 213.68C560.766 213.68 562.13 215.183 562.13 217.383V217.772H557.133C557.244 218.622 557.926 219.331 559.068 219.331C559.639 219.331 560.432 219.081 560.863 218.663L561.643 219.805C560.975 220.417 559.917 220.737 558.873 220.737ZM560.418 216.575C560.376 215.935 559.931 215.086 558.762 215.086C557.662 215.086 557.189 215.907 557.105 216.575H560.418ZM565.175 220.57H563.407V211.286H565.175V220.57Z" fill="white"/>
<rect x="520" y="270.5" width="58.862" height="43.862" rx="7.954" fill="#EDF1F6"/>
<rect x="520" y="270.5" width="58.862" height="43.862" rx="7.954" stroke="#AAB0FE" stroke-width="1.9885"/>
<path d="M538.752 296.432H532.85V287.147H534.827V294.692H538.752V296.432ZM545.804 296.432H544.036V295.736C543.577 296.279 542.783 296.599 541.906 296.599C540.835 296.599 539.568 295.875 539.568 294.372C539.568 292.799 540.835 292.2 541.906 292.2C542.797 292.2 543.591 292.492 544.036 293.021V292.117C544.036 291.435 543.451 290.989 542.561 290.989C541.837 290.989 541.169 291.254 540.598 291.783L539.93 290.599C540.751 289.876 541.809 289.541 542.867 289.541C544.398 289.541 545.804 290.154 545.804 292.089V296.432ZM542.616 295.402C543.187 295.402 543.744 295.207 544.036 294.817V293.982C543.744 293.592 543.187 293.397 542.616 293.397C541.92 293.397 541.35 293.759 541.35 294.413C541.35 295.04 541.92 295.402 542.616 295.402ZM549.325 294.274C549.617 294.706 550.272 295.026 550.842 295.026C551.872 295.026 552.554 294.246 552.554 293.077C552.554 291.908 551.872 291.114 550.842 291.114C550.272 291.114 549.617 291.448 549.325 291.894V294.274ZM549.325 296.432H547.557V287.147H549.325V290.572C549.854 289.889 550.606 289.541 551.399 289.541C553.111 289.541 554.378 290.878 554.378 293.077C554.378 295.318 553.097 296.599 551.399 296.599C550.592 296.599 549.854 296.237 549.325 295.569V296.432ZM558.873 296.599C556.827 296.599 555.282 295.221 555.282 293.063C555.282 291.114 556.715 289.541 558.762 289.541C560.766 289.541 562.13 291.045 562.13 293.244V293.634H557.133C557.244 294.483 557.926 295.193 559.068 295.193C559.639 295.193 560.432 294.942 560.863 294.525L561.643 295.666C560.975 296.279 559.917 296.599 558.873 296.599ZM560.418 292.437C560.376 291.796 559.931 290.947 558.762 290.947C557.662 290.947 557.189 291.769 557.105 292.437H560.418ZM565.175 296.432H563.407V287.147H565.175V296.432Z" fill="#2B3C5A"/>
<path d="M526.86 360.363H520.924V351.025H522.912V358.613H526.86V360.363ZM533.952 360.363H532.174V359.663C531.712 360.209 530.914 360.531 530.032 360.531C528.954 360.531 527.68 359.803 527.68 358.291C527.68 356.709 528.954 356.107 530.032 356.107C530.928 356.107 531.726 356.401 532.174 356.933V356.023C532.174 355.337 531.586 354.889 530.69 354.889C529.962 354.889 529.29 355.155 528.716 355.687L528.044 354.497C528.87 353.769 529.934 353.433 530.998 353.433C532.538 353.433 533.952 354.049 533.952 355.995V360.363ZM530.746 359.327C531.32 359.327 531.88 359.131 532.174 358.739V357.899C531.88 357.507 531.32 357.311 530.746 357.311C530.046 357.311 529.472 357.675 529.472 358.333C529.472 358.963 530.046 359.327 530.746 359.327ZM537.494 358.193C537.788 358.627 538.446 358.949 539.02 358.949C540.056 358.949 540.742 358.165 540.742 356.989C540.742 355.813 540.056 355.015 539.02 355.015C538.446 355.015 537.788 355.351 537.494 355.799V358.193ZM537.494 360.363H535.716V351.025H537.494V354.469C538.026 353.783 538.782 353.433 539.58 353.433C541.302 353.433 542.576 354.777 542.576 356.989C542.576 359.243 541.288 360.531 539.58 360.531C538.768 360.531 538.026 360.167 537.494 359.495V360.363ZM547.097 360.531C545.039 360.531 543.485 359.145 543.485 356.975C543.485 355.015 544.927 353.433 546.985 353.433C549.001 353.433 550.373 354.945 550.373 357.157V357.549H545.347C545.459 358.403 546.145 359.117 547.293 359.117C547.867 359.117 548.665 358.865 549.099 358.445L549.883 359.593C549.211 360.209 548.147 360.531 547.097 360.531ZM548.651 356.345C548.609 355.701 548.161 354.847 546.985 354.847C545.879 354.847 545.403 355.673 545.319 356.345H548.651ZM553.435 360.363H551.657V351.025H553.435V360.363Z" fill="#2B3C5A"/>
<rect x="519" y="369.363" width="202" height="46" rx="9" stroke="#AAB0FE" stroke-width="2"/>
<rect x="520.5" y="370.863" width="199" height="43" rx="7.5" fill="white"/>
<rect x="520.5" y="370.863" width="199" height="43" rx="7.5" stroke="#D0D9E8"/>
<path d="M536.116 396.531C534.492 396.531 533.302 395.915 532.532 395.047L533.218 394.165C533.834 394.851 534.842 395.495 536.158 395.495C537.824 395.495 538.356 394.599 538.356 393.885C538.356 391.477 532.826 392.807 532.826 389.475C532.826 387.935 534.198 386.885 536.032 386.885C537.46 386.885 538.566 387.361 539.35 388.187L538.65 389.041C537.95 388.271 536.97 387.921 535.948 387.921C534.828 387.921 534.03 388.523 534.03 389.405C534.03 391.505 539.56 390.301 539.56 393.787C539.56 395.145 538.636 396.531 536.116 396.531ZM544.305 396.531C542.303 396.531 540.861 395.089 540.861 392.975C540.861 391.015 542.261 389.433 544.193 389.433C546.237 389.433 547.441 391.029 547.441 393.059V393.325H541.967C542.051 394.599 542.947 395.663 544.403 395.663C545.173 395.663 545.957 395.355 546.489 394.809L546.993 395.495C546.321 396.167 545.411 396.531 544.305 396.531ZM546.405 392.555C546.391 391.547 545.719 390.301 544.179 390.301C542.737 390.301 542.023 391.519 541.967 392.555H546.405ZM550.192 396.363H549.142V387.025H550.192V396.363ZM555.338 396.531C553.336 396.531 551.894 395.089 551.894 392.975C551.894 391.015 553.294 389.433 555.226 389.433C557.27 389.433 558.474 391.029 558.474 393.059V393.325H553C553.084 394.599 553.98 395.663 555.436 395.663C556.206 395.663 556.99 395.355 557.522 394.809L558.026 395.495C557.354 396.167 556.444 396.531 555.338 396.531ZM557.438 392.555C557.424 391.547 556.752 390.301 555.212 390.301C553.77 390.301 553.056 391.519 553 392.555H557.438ZM563.157 396.531C561.141 396.531 559.783 394.991 559.783 392.975C559.783 390.973 561.141 389.433 563.157 389.433C564.389 389.433 565.117 389.937 565.635 390.609L564.935 391.253C564.487 390.637 563.913 390.371 563.213 390.371C561.771 390.371 560.875 391.477 560.875 392.975C560.875 394.473 561.771 395.593 563.213 395.593C563.913 395.593 564.487 395.313 564.935 394.711L565.635 395.355C565.117 396.027 564.389 396.531 563.157 396.531ZM568.815 396.531C567.821 396.531 567.317 395.957 567.317 394.949V390.525H566.197V389.601H567.317V387.753H568.367V389.601H569.739V390.525H568.367V394.725C568.367 395.229 568.591 395.593 569.053 395.593C569.347 395.593 569.627 395.467 569.767 395.313L570.075 396.097C569.809 396.349 569.431 396.531 568.815 396.531ZM580.109 396.363H579.059V395.593C578.499 396.209 577.729 396.531 576.819 396.531C575.671 396.531 574.453 395.761 574.453 394.291C574.453 392.779 575.671 392.065 576.819 392.065C577.743 392.065 578.513 392.359 579.059 392.989V391.771C579.059 390.861 578.331 390.343 577.351 390.343C576.539 390.343 575.881 390.637 575.279 391.281L574.789 390.553C575.517 389.797 576.385 389.433 577.491 389.433C578.919 389.433 580.109 390.077 580.109 391.715V396.363ZM577.197 395.775C577.939 395.775 578.653 395.495 579.059 394.935V393.661C578.653 393.101 577.939 392.821 577.197 392.821C576.217 392.821 575.531 393.437 575.531 394.305C575.531 395.159 576.217 395.775 577.197 395.775ZM587.828 396.363H586.778V391.939C586.778 390.749 586.176 390.371 585.266 390.371C584.44 390.371 583.656 390.875 583.264 391.421V396.363H582.214V389.601H583.264V390.581C583.74 390.021 584.664 389.433 585.672 389.433C587.086 389.433 587.828 390.147 587.828 391.617V396.363ZM596.488 396.531C594.43 396.531 593.142 394.935 593.142 392.975C593.142 391.015 594.43 389.433 596.488 389.433C598.546 389.433 599.834 391.015 599.834 392.975C599.834 394.935 598.546 396.531 596.488 396.531ZM596.488 395.593C597.93 395.593 598.728 394.361 598.728 392.975C598.728 391.603 597.93 390.371 596.488 390.371C595.046 390.371 594.234 391.603 594.234 392.975C594.234 394.361 595.046 395.593 596.488 395.593ZM604.878 396.531C603.954 396.531 603.142 396.097 602.596 395.341V398.939H601.546V389.601H602.596V390.609C603.086 389.923 603.926 389.433 604.878 389.433C606.656 389.433 607.888 390.777 607.888 392.975C607.888 395.159 606.656 396.531 604.878 396.531ZM604.612 395.593C605.97 395.593 606.782 394.473 606.782 392.975C606.782 391.477 605.97 390.371 604.612 390.371C603.786 390.371 602.96 390.861 602.596 391.449V394.501C602.96 395.089 603.786 395.593 604.612 395.593ZM611.266 396.531C610.272 396.531 609.768 395.957 609.768 394.949V390.525H608.648V389.601H609.768V387.753H610.818V389.601H612.19V390.525H610.818V394.725C610.818 395.229 611.042 395.593 611.504 395.593C611.798 395.593 612.078 395.467 612.218 395.313L612.526 396.097C612.26 396.349 611.882 396.531 611.266 396.531ZM614.191 388.635C613.813 388.635 613.491 388.327 613.491 387.935C613.491 387.543 613.813 387.221 614.191 387.221C614.583 387.221 614.905 387.543 614.905 387.935C614.905 388.327 614.583 388.635 614.191 388.635ZM614.723 396.363H613.673V389.601H614.723V396.363ZM619.772 396.531C617.714 396.531 616.426 394.935 616.426 392.975C616.426 391.015 617.714 389.433 619.772 389.433C621.83 389.433 623.118 391.015 623.118 392.975C623.118 394.935 621.83 396.531 619.772 396.531ZM619.772 395.593C621.214 395.593 622.012 394.361 622.012 392.975C622.012 391.603 621.214 390.371 619.772 390.371C618.33 390.371 617.518 391.603 617.518 392.975C617.518 394.361 618.33 395.593 619.772 395.593ZM630.443 396.363H629.393V391.939C629.393 390.749 628.791 390.371 627.881 390.371C627.055 390.371 626.271 390.875 625.879 391.421V396.363H624.829V389.601H625.879V390.581C626.355 390.021 627.279 389.433 628.287 389.433C629.701 389.433 630.443 390.147 630.443 391.617V396.363Z" fill="#2B3C5A"/>
<path fill-rule="evenodd" clip-rule="evenodd" d="M700.354 395.217C700.158 395.412 699.842 395.412 699.646 395.217L694.646 390.217C694.451 390.022 694.451 389.705 694.646 389.51C694.842 389.314 695.158 389.314 695.354 389.51L700 394.156L704.646 389.51C704.842 389.314 705.158 389.314 705.354 389.51C705.549 389.705 705.549 390.022 705.354 390.217L700.354 395.217Z" fill="#2B3C5A"/>
<path d="M367.48 48L372.928 30.72H377.164L382.612 48H379.636L374.692 32.496H375.34L370.456 48H367.48ZM370.516 44.256V41.556H379.588V44.256H370.516ZM389.978 48.36C388.786 48.36 387.746 48.06 386.858 47.46C385.97 46.86 385.282 46.044 384.794 45.012C384.306 43.98 384.062 42.816 384.062 41.52C384.062 40.208 384.306 39.04 384.794 38.016C385.29 36.984 385.99 36.172 386.894 35.58C387.798 34.98 388.862 34.68 390.086 34.68C391.318 34.68 392.35 34.98 393.182 35.58C394.022 36.172 394.658 36.984 395.09 38.016C395.522 39.048 395.738 40.216 395.738 41.52C395.738 42.808 395.522 43.972 395.09 45.012C394.658 46.044 394.014 46.86 393.158 47.46C392.302 48.06 391.242 48.36 389.978 48.36ZM390.422 45.768C391.198 45.768 391.822 45.592 392.294 45.24C392.774 44.88 393.122 44.38 393.338 43.74C393.562 43.1 393.674 42.36 393.674 41.52C393.674 40.672 393.562 39.932 393.338 39.3C393.122 38.66 392.782 38.164 392.318 37.812C391.854 37.452 391.254 37.272 390.518 37.272C389.742 37.272 389.102 37.464 388.598 37.848C388.094 38.224 387.722 38.736 387.482 39.384C387.242 40.024 387.122 40.736 387.122 41.52C387.122 42.312 387.238 43.032 387.47 43.68C387.71 44.32 388.074 44.828 388.562 45.204C389.05 45.58 389.67 45.768 390.422 45.768ZM393.674 48V38.904H393.314V30.72H396.23V48H393.674ZM404.79 48.36C403.598 48.36 402.558 48.06 401.67 47.46C400.782 46.86 400.094 46.044 399.606 45.012C399.118 43.98 398.874 42.816 398.874 41.52C398.874 40.208 399.118 39.04 399.606 38.016C400.102 36.984 400.802 36.172 401.706 35.58C402.61 34.98 403.674 34.68 404.898 34.68C406.13 34.68 407.162 34.98 407.994 35.58C408.834 36.172 409.47 36.984 409.902 38.016C410.334 39.048 410.55 40.216 410.55 41.52C410.55 42.808 410.334 43.972 409.902 45.012C409.47 46.044 408.826 46.86 407.97 47.46C407.114 48.06 406.054 48.36 404.79 48.36ZM405.234 45.768C406.01 45.768 406.634 45.592 407.106 45.24C407.586 44.88 407.934 44.38 408.15 43.74C408.374 43.1 408.486 42.36 408.486 41.52C408.486 40.672 408.374 39.932 408.15 39.3C407.934 38.66 407.594 38.164 407.13 37.812C406.666 37.452 406.066 37.272 405.33 37.272C404.554 37.272 403.914 37.464 403.41 37.848C402.906 38.224 402.534 38.736 402.294 39.384C402.054 40.024 401.934 40.736 401.934 41.52C401.934 42.312 402.05 43.032 402.282 43.68C402.522 44.32 402.886 44.828 403.374 45.204C403.862 45.58 404.482 45.768 405.234 45.768ZM408.486 48V38.904H408.126V30.72H411.042V48H408.486ZM414.647 33.072V30.42H417.539V33.072H414.647ZM414.647 48V35.04H417.539V48H414.647ZM430.097 48V41.76C430.097 41.352 430.069 40.9 430.013 40.404C429.957 39.908 429.825 39.432 429.617 38.976C429.417 38.512 429.113 38.132 428.705 37.836C428.305 37.54 427.761 37.392 427.073 37.392C426.705 37.392 426.341 37.452 425.981 37.572C425.621 37.692 425.293 37.9 424.997 38.196C424.709 38.484 424.477 38.884 424.301 39.396C424.125 39.9 424.037 40.548 424.037 41.34L422.321 40.608C422.321 39.504 422.533 38.504 422.957 37.608C423.389 36.712 424.021 36 424.853 35.472C425.685 34.936 426.709 34.668 427.925 34.668C428.885 34.668 429.677 34.828 430.301 35.148C430.925 35.468 431.421 35.876 431.789 36.372C432.157 36.868 432.429 37.396 432.605 37.956C432.781 38.516 432.893 39.048 432.941 39.552C432.997 40.048 433.025 40.452 433.025 40.764V48H430.097ZM421.109 48V35.04H423.689V39.06H424.037V48H421.109ZM441.605 54.12C440.885 54.12 440.193 54.008 439.529 53.784C438.873 53.56 438.281 53.236 437.753 52.812C437.225 52.396 436.793 51.892 436.457 51.3L439.121 49.98C439.369 50.452 439.717 50.8 440.165 51.024C440.621 51.256 441.105 51.372 441.617 51.372C442.217 51.372 442.753 51.264 443.225 51.048C443.697 50.84 444.061 50.528 444.317 50.112C444.581 49.704 444.705 49.192 444.689 48.576V44.892H445.049V35.04H447.581V48.624C447.581 48.952 447.565 49.264 447.533 49.56C447.509 49.864 447.465 50.16 447.401 50.448C447.209 51.288 446.841 51.976 446.297 52.512C445.753 53.056 445.077 53.46 444.269 53.724C443.469 53.988 442.581 54.12 441.605 54.12ZM441.353 48.36C440.161 48.36 439.121 48.06 438.233 47.46C437.345 46.86 436.657 46.044 436.169 45.012C435.681 43.98 435.437 42.816 435.437 41.52C435.437 40.208 435.681 39.04 436.169 38.016C436.665 36.984 437.365 36.172 438.269 35.58C439.173 34.98 440.237 34.68 441.461 34.68C442.693 34.68 443.725 34.98 444.557 35.58C445.397 36.172 446.033 36.984 446.465 38.016C446.897 39.048 447.113 40.216 447.113 41.52C447.113 42.808 446.897 43.972 446.465 45.012C446.033 46.044 445.389 46.86 444.533 47.46C443.677 48.06 442.617 48.36 441.353 48.36ZM441.797 45.768C442.573 45.768 443.197 45.592 443.669 45.24C444.149 44.88 444.497 44.38 444.713 43.74C444.937 43.1 445.049 42.36 445.049 41.52C445.049 40.672 444.937 39.932 444.713 39.3C444.497 38.66 444.157 38.164 443.693 37.812C443.229 37.452 442.629 37.272 441.893 37.272C441.117 37.272 440.477 37.464 439.973 37.848C439.469 38.224 439.097 38.736 438.857 39.384C438.617 40.024 438.497 40.736 438.497 41.52C438.497 42.312 438.613 43.032 438.845 43.68C439.085 44.32 439.449 44.828 439.937 45.204C440.425 45.58 441.045 45.768 441.797 45.768ZM455.75 48V30.72H466.154V33.612H458.642V37.92H464.714V40.8H458.642V48H455.75ZM473.685 48.36C472.389 48.36 471.257 48.068 470.289 47.484C469.321 46.9 468.569 46.096 468.033 45.072C467.505 44.04 467.241 42.856 467.241 41.52C467.241 40.16 467.513 38.968 468.057 37.944C468.601 36.92 469.357 36.12 470.325 35.544C471.293 34.968 472.413 34.68 473.685 34.68C474.989 34.68 476.125 34.972 477.093 35.556C478.061 36.14 478.813 36.948 479.349 37.98C479.885 39.004 480.153 40.184 480.153 41.52C480.153 42.864 479.881 44.052 479.337 45.084C478.801 46.108 478.049 46.912 477.081 47.496C476.113 48.072 474.981 48.36 473.685 48.36ZM473.685 45.648C474.837 45.648 475.693 45.264 476.253 44.496C476.813 43.728 477.093 42.736 477.093 41.52C477.093 40.264 476.809 39.264 476.241 38.52C475.673 37.768 474.821 37.392 473.685 37.392C472.909 37.392 472.269 37.568 471.765 37.92C471.269 38.264 470.901 38.748 470.661 39.372C470.421 39.988 470.301 40.704 470.301 41.52C470.301 42.776 470.585 43.78 471.153 44.532C471.729 45.276 472.573 45.648 473.685 45.648ZM488.425 48.36C487.089 48.36 485.949 48.064 485.005 47.472C484.061 46.872 483.337 46.056 482.833 45.024C482.337 43.992 482.085 42.824 482.077 41.52C482.085 40.192 482.345 39.016 482.857 37.992C483.377 36.96 484.113 36.152 485.065 35.568C486.017 34.976 487.149 34.68 488.461 34.68C489.933 34.68 491.177 35.052 492.193 35.796C493.217 36.532 493.885 37.54 494.197 38.82L491.317 39.6C491.093 38.904 490.721 38.364 490.201 37.98C489.681 37.588 489.089 37.392 488.425 37.392C487.673 37.392 487.053 37.572 486.565 37.932C486.077 38.284 485.717 38.772 485.485 39.396C485.253 40.02 485.137 40.728 485.137 41.52C485.137 42.752 485.413 43.748 485.965 44.508C486.517 45.268 487.337 45.648 488.425 45.648C489.193 45.648 489.797 45.472 490.237 45.12C490.685 44.768 491.021 44.26 491.245 43.596L494.197 44.256C493.797 45.576 493.097 46.592 492.097 47.304C491.097 48.008 489.873 48.36 488.425 48.36ZM501.462 48.372C500.502 48.372 499.71 48.212 499.086 47.892C498.462 47.572 497.966 47.164 497.598 46.668C497.23 46.172 496.958 45.644 496.782 45.084C496.606 44.524 496.49 43.996 496.434 43.5C496.386 42.996 496.362 42.588 496.362 42.276V35.04H499.29V41.28C499.29 41.68 499.318 42.132 499.374 42.636C499.43 43.132 499.558 43.612 499.758 44.076C499.966 44.532 500.27 44.908 500.67 45.204C501.078 45.5 501.626 45.648 502.314 45.648C502.682 45.648 503.046 45.588 503.406 45.468C503.766 45.348 504.09 45.144 504.378 44.856C504.674 44.56 504.91 44.156 505.086 43.644C505.262 43.132 505.35 42.484 505.35 41.7L507.066 42.432C507.066 43.536 506.85 44.536 506.418 45.432C505.994 46.328 505.366 47.044 504.534 47.58C503.702 48.108 502.678 48.372 501.462 48.372ZM505.698 48V43.98H505.35V35.04H508.254V48H505.698ZM516.629 48.36C515.029 48.36 513.729 48 512.729 47.28C511.729 46.56 511.121 45.548 510.905 44.244L513.857 43.788C514.009 44.428 514.345 44.932 514.865 45.3C515.385 45.668 516.041 45.852 516.833 45.852C517.529 45.852 518.065 45.716 518.441 45.444C518.825 45.164 519.017 44.784 519.017 44.304C519.017 44.008 518.945 43.772 518.801 43.596C518.665 43.412 518.361 43.236 517.889 43.068C517.417 42.9 516.693 42.688 515.717 42.432C514.629 42.144 513.765 41.836 513.125 41.508C512.485 41.172 512.025 40.776 511.745 40.32C511.465 39.864 511.325 39.312 511.325 38.664C511.325 37.856 511.537 37.152 511.961 36.552C512.385 35.952 512.977 35.492 513.737 35.172C514.497 34.844 515.393 34.68 516.425 34.68C517.433 34.68 518.325 34.836 519.101 35.148C519.885 35.46 520.517 35.904 520.997 36.48C521.477 37.056 521.773 37.732 521.885 38.508L518.933 39.036C518.861 38.484 518.609 38.048 518.177 37.728C517.753 37.408 517.185 37.228 516.473 37.188C515.793 37.148 515.245 37.252 514.829 37.5C514.413 37.74 514.205 38.08 514.205 38.52C514.205 38.768 514.289 38.98 514.457 39.156C514.625 39.332 514.961 39.508 515.465 39.684C515.977 39.86 516.737 40.076 517.745 40.332C518.777 40.596 519.601 40.9 520.217 41.244C520.841 41.58 521.289 41.984 521.561 42.456C521.841 42.928 521.981 43.5 521.981 44.172C521.981 45.476 521.505 46.5 520.553 47.244C519.609 47.988 518.301 48.36 516.629 48.36ZM535.81 48.36C534.546 48.36 533.406 48.14 532.39 47.7C531.382 47.26 530.55 46.632 529.894 45.816C529.246 44.992 528.834 44.016 528.658 42.888L531.658 42.432C531.914 43.456 532.438 44.248 533.23 44.808C534.03 45.368 534.95 45.648 535.99 45.648C536.606 45.648 537.186 45.552 537.73 45.36C538.274 45.168 538.714 44.888 539.05 44.52C539.394 44.152 539.566 43.7 539.566 43.164C539.566 42.924 539.526 42.704 539.446 42.504C539.366 42.296 539.246 42.112 539.086 41.952C538.934 41.792 538.734 41.648 538.486 41.52C538.246 41.384 537.966 41.268 537.646 41.172L533.182 39.852C532.798 39.74 532.382 39.592 531.934 39.408C531.494 39.216 531.074 38.956 530.674 38.628C530.282 38.292 529.958 37.868 529.702 37.356C529.454 36.836 529.33 36.196 529.33 35.436C529.33 34.324 529.61 33.392 530.17 32.64C530.738 31.88 531.498 31.312 532.45 30.936C533.41 30.56 534.474 30.376 535.642 30.384C536.826 30.392 537.882 30.596 538.81 30.996C539.738 31.388 540.514 31.96 541.138 32.712C541.762 33.464 542.202 34.372 542.458 35.436L539.35 35.976C539.222 35.368 538.974 34.852 538.606 34.428C538.246 33.996 537.802 33.668 537.274 33.444C536.754 33.22 536.198 33.1 535.606 33.084C535.03 33.076 534.494 33.164 533.998 33.348C533.51 33.524 533.114 33.78 532.81 34.116C532.514 34.452 532.366 34.844 532.366 35.292C532.366 35.716 532.494 36.064 532.75 36.336C533.006 36.6 533.322 36.812 533.698 36.972C534.082 37.124 534.47 37.252 534.862 37.356L537.958 38.22C538.382 38.332 538.858 38.484 539.386 38.676C539.914 38.868 540.422 39.136 540.91 39.48C541.398 39.824 541.798 40.276 542.11 40.836C542.43 41.396 542.59 42.108 542.59 42.972C542.59 43.868 542.402 44.656 542.026 45.336C541.658 46.008 541.158 46.568 540.526 47.016C539.894 47.464 539.17 47.8 538.354 48.024C537.546 48.248 536.698 48.36 535.81 48.36ZM552.784 48C551.928 48.16 551.088 48.228 550.264 48.204C549.448 48.188 548.716 48.04 548.068 47.76C547.42 47.472 546.928 47.02 546.592 46.404C546.296 45.844 546.14 45.272 546.124 44.688C546.108 44.104 546.1 43.444 546.1 42.708V31.44H548.98V42.54C548.98 43.06 548.984 43.516 548.992 43.908C549.008 44.3 549.092 44.62 549.244 44.868C549.532 45.348 549.992 45.616 550.624 45.672C551.256 45.728 551.976 45.696 552.784 45.576V48ZM543.748 37.308V35.04H552.784V37.308H543.748ZM559.195 48.36C558.259 48.36 557.467 48.184 556.819 47.832C556.171 47.472 555.679 46.996 555.343 46.404C555.015 45.812 554.851 45.16 554.851 44.448C554.851 43.824 554.955 43.264 555.163 42.768C555.371 42.264 555.691 41.832 556.123 41.472C556.555 41.104 557.115 40.804 557.803 40.572C558.323 40.404 558.931 40.252 559.627 40.116C560.331 39.98 561.091 39.856 561.907 39.744C562.731 39.624 563.591 39.496 564.487 39.36L563.455 39.948C563.463 39.052 563.263 38.392 562.855 37.968C562.447 37.544 561.759 37.332 560.791 37.332C560.207 37.332 559.643 37.468 559.099 37.74C558.555 38.012 558.175 38.48 557.959 39.144L555.319 38.316C555.639 37.22 556.247 36.34 557.143 35.676C558.047 35.012 559.263 34.68 560.791 34.68C561.943 34.68 562.955 34.868 563.827 35.244C564.707 35.62 565.359 36.236 565.783 37.092C566.015 37.548 566.155 38.016 566.203 38.496C566.251 38.968 566.275 39.484 566.275 40.044V48H563.743V45.192L564.163 45.648C563.579 46.584 562.895 47.272 562.111 47.712C561.335 48.144 560.363 48.36 559.195 48.36ZM559.771 46.056C560.427 46.056 560.987 45.94 561.451 45.708C561.915 45.476 562.283 45.192 562.555 44.856C562.835 44.52 563.023 44.204 563.119 43.908C563.271 43.54 563.355 43.12 563.371 42.648C563.395 42.168 563.407 41.78 563.407 41.484L564.295 41.748C563.423 41.884 562.675 42.004 562.051 42.108C561.427 42.212 560.891 42.312 560.443 42.408C559.995 42.496 559.599 42.596 559.255 42.708C558.919 42.828 558.635 42.968 558.403 43.128C558.171 43.288 557.991 43.472 557.863 43.68C557.743 43.888 557.683 44.132 557.683 44.412C557.683 44.732 557.763 45.016 557.923 45.264C558.083 45.504 558.315 45.696 558.619 45.84C558.931 45.984 559.315 46.056 559.771 46.056ZM576.995 48C576.139 48.16 575.299 48.228 574.475 48.204C573.659 48.188 572.927 48.04 572.279 47.76C571.631 47.472 571.139 47.02 570.803 46.404C570.507 45.844 570.351 45.272 570.335 44.688C570.319 44.104 570.311 43.444 570.311 42.708V31.44H573.191V42.54C573.191 43.06 573.195 43.516 573.203 43.908C573.219 44.3 573.303 44.62 573.455 44.868C573.743 45.348 574.203 45.616 574.835 45.672C575.467 45.728 576.187 45.696 576.995 45.576V48ZM567.959 37.308V35.04H576.995V37.308H567.959ZM585.017 48.36C583.705 48.36 582.553 48.076 581.561 47.508C580.569 46.94 579.793 46.152 579.233 45.144C578.681 44.136 578.405 42.976 578.405 41.664C578.405 40.248 578.677 39.02 579.221 37.98C579.765 36.932 580.521 36.12 581.489 35.544C582.457 34.968 583.577 34.68 584.849 34.68C586.193 34.68 587.333 34.996 588.269 35.628C589.213 36.252 589.913 37.136 590.369 38.28C590.825 39.424 590.997 40.772 590.885 42.324H588.017V41.268C588.009 39.86 587.761 38.832 587.273 38.184C586.785 37.536 586.017 37.212 584.969 37.212C583.785 37.212 582.905 37.58 582.329 38.316C581.753 39.044 581.465 40.112 581.465 41.52C581.465 42.832 581.753 43.848 582.329 44.568C582.905 45.288 583.745 45.648 584.849 45.648C585.561 45.648 586.173 45.492 586.685 45.18C587.205 44.86 587.605 44.4 587.885 43.8L590.741 44.664C590.245 45.832 589.477 46.74 588.437 47.388C587.405 48.036 586.265 48.36 585.017 48.36ZM580.553 42.324V40.14H589.469V42.324H580.553Z" fill="#646464"/>
</g>
<defs>
<clipPath id="clip0_2313_23161">
<rect width="960" height="513" rx="20" fill="white"/>
</clipPath>
</defs>
</svg>
