<svg width="653" height="34" viewBox="0 0 653 34" fill="none" xmlns="http://www.w3.org/2000/svg">
<path d="M12.7432 23.9544C13.3409 23.9544 13.8959 23.8904 14.4082 23.7623C14.9418 23.6129 15.4007 23.4101 15.785 23.154C16.1905 22.8978 16.5 22.599 16.7135 22.2575C16.9483 21.8946 17.0657 21.5104 17.0657 21.1048C17.0657 20.4858 16.8202 19.9095 16.3293 19.3758C15.8597 18.8208 15.198 18.2552 14.3441 17.6789C13.4903 17.1025 12.4764 16.4942 11.3024 15.8538C10.1498 15.2135 8.89038 14.4984 7.52427 13.7086C7.1614 13.4952 6.65978 13.1963 6.01941 12.8121C5.4004 12.4065 4.78138 11.9263 4.16236 11.3713C3.56469 10.795 3.04173 10.1332 2.59347 9.38615C2.16656 8.63906 1.95311 7.81726 1.95311 6.92076C1.95311 6.0029 2.20925 5.15976 2.72154 4.39132C3.23383 3.60154 3.93823 2.92916 4.83474 2.37418C5.73125 1.79785 6.79852 1.3496 8.03656 1.02941C9.27459 0.709233 10.63 0.549142 12.1029 0.549142C13.4263 0.549142 14.6643 0.677215 15.817 0.933361C16.991 1.18951 18.0262 1.5417 18.9227 1.98996C19.8192 2.43821 20.5343 2.96118 21.0679 3.55885C21.6229 4.15652 21.9431 4.79689 22.0285 5.47994C22.0498 5.62936 22.0605 5.77877 22.0605 5.92819C22.0605 6.61125 21.815 7.21959 21.3241 7.75323C20.8545 8.28686 20.1928 8.55368 19.339 8.55368C18.8267 8.55368 18.3891 8.45763 18.0262 8.26552C17.6847 8.05206 17.3965 7.80659 17.1617 7.5291C16.9483 7.23026 16.7882 6.9421 16.6815 6.66461C16.5747 6.36577 16.5 6.14165 16.4573 5.99223C15.881 3.55885 14.3548 2.34216 11.8787 2.34216C11.3024 2.34216 10.7581 2.4062 10.2458 2.53427C9.75487 2.66234 9.32796 2.84378 8.96508 3.07858C8.60221 3.31338 8.31405 3.59087 8.10059 3.91105C7.90849 4.20989 7.81243 4.55141 7.81243 4.93563C7.81243 5.51196 8.03656 6.06694 8.48481 6.60057C8.95441 7.11286 9.57343 7.63583 10.3419 8.16946C11.1103 8.7031 11.9961 9.25808 12.9994 9.83441C14.024 10.4107 15.0912 11.0298 16.2012 11.6915C16.8629 12.0757 17.5993 12.5239 18.4104 13.0362C19.2429 13.5485 20.0113 14.1248 20.7157 14.7652C21.4415 15.4056 22.0498 16.1206 22.5408 16.9104C23.0317 17.6789 23.2772 18.5327 23.2772 19.4719C23.2772 20.4111 23.0104 21.2756 22.4767 22.0653C21.9431 22.8338 21.196 23.5062 20.2355 24.0825C19.2749 24.6375 18.1223 25.0644 16.7775 25.3632C15.4541 25.6834 13.9919 25.8435 12.391 25.8435C10.662 25.8435 9.01845 25.6514 7.46023 25.2672C5.92336 24.9043 4.63196 24.3813 3.58603 23.6983C2.75356 23.1433 2.10253 22.5243 1.63293 21.8412C1.18467 21.1582 0.960545 20.4644 0.960545 19.76C0.960545 18.9703 1.21669 18.3085 1.72898 17.7749C2.24127 17.2413 2.87096 16.9745 3.61805 16.9745C4.19438 16.9745 4.66398 17.0812 5.02685 17.2946C5.41107 17.5081 5.70991 17.7642 5.92336 18.0631C6.15816 18.3619 6.32892 18.6714 6.43565 18.9916C6.54238 19.2904 6.60641 19.5252 6.62776 19.696C6.73449 20.2937 6.96929 20.8593 7.33216 21.393C7.71638 21.9053 8.18598 22.3535 8.74096 22.7377C9.29594 23.1219 9.91496 23.4208 10.598 23.6342C11.2811 23.8477 11.9961 23.9544 12.7432 23.9544ZM34.9266 25.2031C34.03 25.63 33.0695 25.8435 32.0449 25.8435C30.5721 25.8435 29.3981 25.4166 28.5229 24.5628C27.6691 23.6876 27.2422 22.5136 27.2422 21.0408V11.4353H25.7373C25.3958 11.4353 25.1397 11.3179 24.9689 11.0831C24.8195 10.8483 24.7448 10.5922 24.7448 10.3147C24.7448 10.0372 24.8195 9.78105 24.9689 9.54625C25.1397 9.31145 25.3958 9.19405 25.7373 9.19405C26.3777 9.19405 26.9861 9.08732 27.5624 8.87386C28.1387 8.63906 28.651 8.32955 29.0993 7.94534C29.5475 7.53977 29.9104 7.07017 30.1879 6.53654C30.4867 6.0029 30.6681 5.43725 30.7322 4.83958C30.7749 4.45536 30.9136 4.16719 31.1484 3.97508C31.3832 3.76163 31.6394 3.6549 31.9169 3.6549C32.1943 3.6549 32.4505 3.7723 32.6853 4.0071C32.9201 4.22056 33.0375 4.54074 33.0375 4.96765V9.19405H35.4709C35.8764 9.19405 36.1753 9.31145 36.3674 9.54625C36.5808 9.78105 36.6876 10.0372 36.6876 10.3147C36.6876 10.5922 36.5808 10.8483 36.3674 11.0831C36.1753 11.3179 35.8764 11.4353 35.4709 11.4353H33.0375V20.2723C33.0375 21.3396 33.2403 22.0653 33.6458 22.4496C34.0727 22.8338 34.4783 23.0259 34.8625 23.0259C35.0119 23.0259 35.1507 23.0045 35.2788 22.9619C35.4282 22.9192 35.5669 22.8978 35.695 22.8978C35.8444 22.8978 35.9938 22.9405 36.1432 23.0259C36.314 23.1113 36.3994 23.218 36.3994 23.3461C36.4207 23.4741 36.4314 23.5489 36.4314 23.5702C36.4314 23.805 36.314 24.0718 36.0792 24.3707C35.8658 24.6481 35.4815 24.9256 34.9266 25.2031ZM53.0226 23.5062C52.2114 24.2959 51.2616 24.8936 50.173 25.2992C49.0843 25.7047 47.9744 25.9075 46.8431 25.9075C45.5623 25.9075 44.3883 25.6941 43.3211 25.2672C42.2538 24.8403 41.3359 24.2426 40.5675 23.4741C39.7991 22.7057 39.2014 21.7879 38.7745 20.7206C38.3476 19.6533 38.1341 18.4793 38.1341 17.1986C38.1341 15.9179 38.3476 14.7545 38.7745 13.7086C39.2014 12.6413 39.7991 11.7235 40.5675 10.955C41.3359 10.1866 42.2538 9.58894 43.3211 9.16203C44.3883 8.73512 45.5623 8.52166 46.8431 8.52166C48.0171 8.52166 49.1377 8.73512 50.205 9.16203C51.2936 9.56759 52.2328 10.1439 53.0226 10.891H53.6629C54.5168 10.891 55.1251 10.7523 55.488 10.4748C55.8722 10.1973 56.1603 9.89844 56.3525 9.57826C56.5446 9.23674 56.7153 8.92723 56.8647 8.64974C57.0355 8.37225 57.3343 8.2335 57.7613 8.2335C58.0601 8.2335 58.3056 8.36157 58.4977 8.61772C58.7111 8.87386 58.8179 9.18337 58.8179 9.54625V20.0482C58.8179 20.902 58.9673 21.521 59.2661 21.9053C59.5863 22.2681 59.9278 22.5456 60.2907 22.7377C60.6749 22.9298 61.0164 23.1113 61.3153 23.282C61.6355 23.4315 61.7955 23.7196 61.7955 24.1465C61.7955 24.4454 61.6675 24.7015 61.4113 24.915C61.1552 25.1071 60.8457 25.2031 60.4828 25.2031H54.6875C53.5776 25.2031 53.0226 24.6375 53.0226 23.5062ZM48.3799 23.7623C49.7887 23.7623 50.9094 23.1753 51.7418 22.0013C52.5743 20.806 52.9906 19.2051 52.9906 17.1986C52.9906 15.1921 52.5743 13.6019 51.7418 12.4279C50.9094 11.2539 49.7887 10.6669 48.3799 10.6669C47.5475 10.6669 46.8431 10.8803 46.2667 11.3072C45.7118 11.7342 45.2528 12.2785 44.89 12.9402C44.5484 13.5805 44.303 14.2849 44.1535 15.0534C44.0041 15.8005 43.9294 16.5155 43.9294 17.1986C43.9294 17.8603 44.0041 18.5754 44.1535 19.3438C44.303 20.1122 44.5484 20.8273 44.89 21.489C45.2528 22.1507 45.7118 22.695 46.2667 23.1219C46.8431 23.5489 47.5475 23.7623 48.3799 23.7623ZM68.5571 33.848C67.746 33.848 66.9882 33.7306 66.2838 33.4958C65.6008 33.2824 65.0031 32.9729 64.4908 32.5673C63.9785 32.1831 63.573 31.7242 63.2741 31.1905C62.9966 30.6782 62.8579 30.1126 62.8579 29.4936C62.8579 29.0666 62.9326 28.6931 63.082 28.3729C63.2314 28.0527 63.4342 27.7753 63.6904 27.5405C63.9465 27.327 64.2347 27.1562 64.5549 27.0282C64.875 26.9214 65.2059 26.8681 65.5474 26.8681C66.017 26.8681 66.4653 26.9748 66.8922 27.1883C67.3191 27.4231 67.6499 27.7753 67.8847 28.2449C68.0342 28.565 68.1409 28.9066 68.2049 29.2694C68.2903 29.6323 68.397 29.9738 68.5251 30.294C68.6532 30.6142 68.8346 30.881 69.0694 31.0945C69.3042 31.3079 69.6564 31.4146 70.126 31.4146C70.6383 31.4146 71.1079 31.2439 71.5348 30.9024C71.9617 30.5822 72.2926 30.1659 72.5274 29.6536C72.7835 29.1414 72.9223 28.7144 72.9436 28.3729C72.965 28.0527 72.9756 27.8606 72.9756 27.7966C72.9756 27.2843 72.8582 26.804 72.6234 26.3558L66.1878 13.7086C65.8463 13.0469 65.4834 12.5346 65.0992 12.1717C64.7363 11.7875 64.3094 11.5314 63.8184 11.4033C63.5196 11.3179 63.2635 11.1792 63.05 10.9871C62.8579 10.7736 62.7618 10.5175 62.7618 10.2186C62.7618 9.91979 62.8899 9.67432 63.1461 9.48221C63.4022 9.2901 63.7117 9.19405 64.0746 9.19405H72.6234C72.9863 9.19405 73.2958 9.2901 73.552 9.48221C73.8081 9.67432 73.9362 9.91979 73.9362 10.2186C73.9362 10.5175 73.8295 10.7736 73.616 10.9871C73.4025 11.1792 73.1357 11.3179 72.8155 11.4033C72.2392 11.5527 71.9404 11.7342 71.919 11.9476C71.8977 12.1611 71.887 12.2891 71.887 12.3318C71.887 12.6947 72.0258 13.143 72.3033 13.6766L76.4976 21.9053L80.5319 13.8687C80.7667 13.3991 80.8841 13.0789 80.8841 12.9082C80.9055 12.7374 80.9161 12.6307 80.9161 12.588C80.9161 12.3745 80.8734 12.1931 80.7881 12.0437C80.7027 11.8729 80.5746 11.7448 80.4039 11.6594C80.2331 11.5527 80.0623 11.4673 79.8916 11.4033C79.486 11.2112 79.2085 11.0298 79.0591 10.859C78.9097 10.6882 78.835 10.4748 78.835 10.2186C78.835 9.91979 78.963 9.67432 79.2192 9.48221C79.4753 9.2901 79.7848 9.19405 80.1477 9.19405H85.5908C85.9537 9.19405 86.2632 9.2901 86.5193 9.48221C86.7755 9.67432 86.9035 9.91979 86.9035 10.2186C86.9035 10.795 86.4766 11.2112 85.6228 11.4673C84.5555 11.7662 83.7764 12.4065 83.2855 13.3884L75.9213 28.0527C74.9181 30.0806 73.8295 31.5534 72.6555 32.4712C71.4815 33.3891 70.1153 33.848 68.5571 33.848ZM106.248 25.2031C105.352 25.63 104.391 25.8435 103.367 25.8435C101.894 25.8435 100.72 25.4166 99.8446 24.5628C98.9908 23.6876 98.5639 22.5136 98.5639 21.0408V11.4353H97.059C96.7175 11.4353 96.4614 11.3179 96.2906 11.0831C96.1412 10.8483 96.0665 10.5922 96.0665 10.3147C96.0665 10.0372 96.1412 9.78105 96.2906 9.54625C96.4614 9.31145 96.7175 9.19405 97.059 9.19405C97.6994 9.19405 98.3078 9.08732 98.8841 8.87386C99.4604 8.63906 99.9727 8.32955 100.421 7.94534C100.869 7.53977 101.232 7.07017 101.51 6.53654C101.808 6.0029 101.99 5.43725 102.054 4.83958C102.097 4.45536 102.235 4.16719 102.47 3.97508C102.705 3.76163 102.961 3.6549 103.239 3.6549C103.516 3.6549 103.772 3.7723 104.007 4.0071C104.242 4.22056 104.359 4.54074 104.359 4.96765V9.19405H106.793C107.198 9.19405 107.497 9.31145 107.689 9.54625C107.903 9.78105 108.009 10.0372 108.009 10.3147C108.009 10.5922 107.903 10.8483 107.689 11.0831C107.497 11.3179 107.198 11.4353 106.793 11.4353H104.359V20.2723C104.359 21.3396 104.562 22.0653 104.968 22.4496C105.394 22.8338 105.8 23.0259 106.184 23.0259C106.334 23.0259 106.472 23.0045 106.6 22.9619C106.75 22.9192 106.889 22.8978 107.017 22.8978C107.166 22.8978 107.316 22.9405 107.465 23.0259C107.636 23.1113 107.721 23.218 107.721 23.3461C107.742 23.4741 107.753 23.5489 107.753 23.5702C107.753 23.805 107.636 24.0718 107.401 24.3707C107.187 24.6481 106.803 24.9256 106.248 25.2031ZM130.14 20.0482C130.14 20.902 130.289 21.521 130.588 21.9053C130.908 22.2681 131.25 22.5456 131.612 22.7377C131.997 22.9298 132.338 23.1113 132.637 23.282C132.957 23.4315 133.117 23.7196 133.117 24.1465C133.117 24.4454 132.989 24.7015 132.733 24.915C132.477 25.1071 132.167 25.2031 131.804 25.2031H126.009C124.899 25.2031 124.344 24.6268 124.344 23.4741C124.323 23.4741 124.173 23.6022 123.896 23.8584C123.619 24.0932 123.213 24.36 122.679 24.6588C122.167 24.9577 121.527 25.2245 120.758 25.4593C120.011 25.7154 119.147 25.8435 118.165 25.8435C116.052 25.8435 114.429 25.1925 113.298 23.8904C112.188 22.567 111.633 20.6672 111.633 18.1911V14.349C111.633 13.4098 111.494 12.7587 111.217 12.3959C110.939 12.0116 110.63 11.7342 110.288 11.5634C109.968 11.3713 109.669 11.2112 109.392 11.0831C109.114 10.955 108.976 10.6776 108.976 10.2506C108.976 9.95181 109.104 9.70634 109.36 9.51423C109.616 9.30077 109.925 9.19405 110.288 9.19405H115.763C116.873 9.19405 117.428 9.77037 117.428 10.923V17.967C117.428 21.5531 118.432 23.3461 120.438 23.3461C120.993 23.3461 121.505 23.218 121.975 22.9619C122.445 22.7057 122.85 22.3535 123.192 21.9053C123.554 21.4357 123.832 20.8913 124.024 20.2723C124.238 19.6533 124.344 18.9809 124.344 18.2552V14.349C124.344 13.4098 124.206 12.7587 123.928 12.3959C123.651 12.0116 123.341 11.7342 123 11.5634C122.679 11.3713 122.38 11.2112 122.103 11.0831C121.826 10.955 121.687 10.6776 121.687 10.2506C121.687 9.95181 121.815 9.70634 122.071 9.51423C122.327 9.30077 122.637 9.19405 123 9.19405H128.475C129.585 9.19405 130.14 9.77037 130.14 10.923V20.0482ZM136.037 9.19405H141.512C142.622 9.19405 143.177 9.77037 143.177 10.923C143.198 10.923 143.347 10.8056 143.625 10.5708C143.902 10.3147 144.297 10.0372 144.81 9.73835C145.343 9.43952 145.984 9.1727 146.731 8.9379C147.499 8.68175 148.374 8.55368 149.356 8.55368C151.491 8.55368 153.113 9.21539 154.223 10.5388C155.333 11.8409 155.888 13.73 155.888 16.206V20.0482C155.888 20.902 156.037 21.521 156.336 21.9053C156.656 22.2681 156.998 22.5456 157.361 22.7377C157.745 22.9298 158.086 23.1113 158.385 23.282C158.705 23.4315 158.866 23.7196 158.866 24.1465C158.866 24.4454 158.738 24.7015 158.481 24.915C158.225 25.1071 157.916 25.2031 157.553 25.2031H148.428C148.065 25.2031 147.755 25.1071 147.499 24.915C147.243 24.7015 147.115 24.4454 147.115 24.1465C147.115 23.7196 147.264 23.4315 147.563 23.282C147.883 23.1113 148.225 22.9298 148.588 22.7377C148.972 22.5456 149.314 22.2681 149.612 21.9053C149.933 21.521 150.093 20.902 150.093 20.0482V16.4301C150.093 12.8441 149.089 11.0511 147.083 11.0511C146.528 11.0511 146.016 11.1792 145.546 11.4353C145.076 11.6915 144.66 12.0543 144.297 12.5239C143.956 12.9722 143.678 13.5058 143.465 14.1248C143.273 14.7439 143.177 15.4162 143.177 16.142V20.0482C143.177 20.902 143.326 21.521 143.625 21.9053C143.945 22.2681 144.287 22.5456 144.65 22.7377C145.034 22.9298 145.375 23.1113 145.674 23.282C145.994 23.4315 146.154 23.7196 146.154 24.1465C146.154 24.4454 146.026 24.7015 145.77 24.915C145.514 25.1071 145.205 25.2031 144.842 25.2031H135.716C135.354 25.2031 135.044 25.1071 134.788 24.915C134.532 24.7015 134.404 24.4454 134.404 24.1465C134.404 23.7196 134.553 23.4315 134.852 23.282C135.172 23.1113 135.514 22.9298 135.877 22.7377C136.261 22.5456 136.602 22.2681 136.901 21.9053C137.221 21.521 137.381 20.902 137.381 20.0482V14.349C137.381 13.4098 137.243 12.7587 136.965 12.3959C136.688 12.0116 136.378 11.7342 136.037 11.5634C135.716 11.3713 135.418 11.2112 135.14 11.0831C134.863 10.955 134.724 10.6776 134.724 10.2506C134.724 9.95181 134.852 9.70634 135.108 9.51423C135.364 9.30077 135.674 9.19405 136.037 9.19405ZM177.178 21.0408C177.349 20.8273 177.53 20.6672 177.723 20.5605C177.936 20.4538 178.139 20.4004 178.331 20.4004C178.566 20.4004 178.758 20.4644 178.907 20.5925C179.099 20.7633 179.195 20.9767 179.195 21.2329C179.195 21.489 179.11 21.7452 178.939 22.0013C178.085 23.2393 176.943 24.1892 175.513 24.8509C174.083 25.5126 172.461 25.8435 170.647 25.8435C169.046 25.8435 167.583 25.63 166.26 25.2031C164.958 24.7549 163.837 24.1465 162.898 23.3781C161.98 22.6097 161.265 21.7025 160.753 20.6565C160.241 19.5893 159.984 18.4259 159.984 17.1666C159.984 15.9072 160.23 14.7545 160.721 13.7086C161.233 12.6627 161.938 11.7555 162.834 10.9871C163.752 10.2186 164.851 9.62095 166.132 9.19405C167.434 8.76714 168.875 8.55368 170.454 8.55368C173.101 8.55368 175.193 9.27943 176.73 10.7309C178.267 12.1611 179.078 14.1675 179.163 16.7503H166.132C166.153 17.5615 166.281 18.3619 166.516 19.1517C166.772 19.9201 167.146 20.6139 167.637 21.2329C168.149 21.8305 168.789 22.3215 169.558 22.7057C170.348 23.0686 171.298 23.25 172.408 23.25C173.368 23.25 174.265 23.0579 175.097 22.6737C175.93 22.2895 176.623 21.7452 177.178 21.0408ZM173.848 14.9893C173.806 13.5805 173.475 12.4492 172.856 11.5954C172.237 10.7416 171.447 10.3147 170.486 10.3147C169.355 10.3147 168.416 10.7523 167.669 11.6274C166.943 12.5026 166.473 13.6232 166.26 14.9893H173.848ZM196.354 23.5062C195.543 24.2959 194.593 24.8829 193.504 25.2672C192.416 25.6514 191.306 25.8435 190.174 25.8435C188.894 25.8435 187.72 25.63 186.652 25.2031C185.585 24.7762 184.667 24.1892 183.899 23.4421C183.13 22.6737 182.533 21.7665 182.106 20.7206C181.679 19.6533 181.465 18.4793 181.465 17.1986C181.465 15.9179 181.679 14.7545 182.106 13.7086C182.533 12.6413 183.13 11.7342 183.899 10.9871C184.667 10.2186 185.585 9.62095 186.652 9.19405C187.72 8.76714 188.894 8.55368 190.174 8.55368C191.306 8.55368 192.416 8.74579 193.504 9.13001C194.593 9.51423 195.543 10.1012 196.354 10.891V6.34443C196.354 5.40523 196.215 4.75419 195.938 4.39132C195.66 4.0071 195.351 3.72961 195.009 3.55885C194.689 3.36674 194.39 3.20665 194.113 3.07858C193.835 2.9505 193.696 2.67301 193.696 2.24611C193.696 1.94727 193.824 1.7018 194.081 1.50969C194.337 1.29623 194.646 1.1895 195.009 1.1895H200.484C201.594 1.1895 202.149 1.76583 202.149 2.91849V20.0482C202.149 20.902 202.299 21.521 202.597 21.9053C202.918 22.2681 203.259 22.5456 203.622 22.7377C204.006 22.9298 204.348 23.1113 204.647 23.282C204.967 23.4315 205.127 23.7196 205.127 24.1465C205.127 24.4454 204.999 24.7015 204.743 24.915C204.486 25.1071 204.177 25.2031 203.814 25.2031H198.019C196.909 25.2031 196.354 24.6375 196.354 23.5062ZM191.711 23.7303C193.12 23.7303 194.241 23.1433 195.073 21.9693C195.906 20.7953 196.322 19.2051 196.322 17.1986C196.322 15.1921 195.906 13.6019 195.073 12.4279C194.241 11.2539 193.12 10.6669 191.711 10.6669C190.879 10.6669 190.174 10.8803 189.598 11.3072C189.043 11.7342 188.584 12.2785 188.221 12.9402C187.88 13.5805 187.634 14.2849 187.485 15.0534C187.335 15.8005 187.261 16.5155 187.261 17.1986C187.261 17.8603 187.335 18.5754 187.485 19.3438C187.634 20.1122 187.88 20.8273 188.221 21.489C188.584 22.1294 189.043 22.663 189.598 23.0899C190.174 23.5168 190.879 23.7303 191.711 23.7303ZM216.395 11.4353C215.99 11.4353 215.691 11.3179 215.499 11.0831C215.307 10.8483 215.211 10.5922 215.211 10.3147C215.211 10.0372 215.307 9.78105 215.499 9.54625C215.691 9.31145 215.99 9.19405 216.395 9.19405H217.708V7.65717C217.708 6.69663 217.9 5.82146 218.285 5.03168C218.669 4.22056 219.213 3.5375 219.917 2.98252C220.643 2.4062 221.497 1.96861 222.479 1.66978C223.482 1.3496 224.592 1.1895 225.809 1.1895C227.495 1.1895 228.925 1.47767 230.099 2.054C231.295 2.60898 232.031 3.35607 232.308 4.29527C232.394 4.53007 232.437 4.76487 232.437 4.99967C232.437 5.17043 232.405 5.39456 232.341 5.67205C232.276 5.92819 232.116 6.21636 231.86 6.53654C231.625 6.83537 231.327 7.08085 230.964 7.27296C230.601 7.44372 230.195 7.5291 229.747 7.5291C229.192 7.5291 228.669 7.34766 228.178 6.98479C227.709 6.62192 227.378 5.99223 227.186 5.09572C226.865 3.55885 226.076 2.79041 224.816 2.79041C224.005 2.79041 223.333 3.11059 222.799 3.75096C222.287 4.36998 222.031 5.17043 222.031 6.15232C222.031 7.24094 222.415 8.02005 223.183 8.48965C223.952 8.95925 225.211 9.19405 226.961 9.19405C227.367 9.19405 227.666 9.31145 227.858 9.54625C228.071 9.78105 228.178 10.0372 228.178 10.3147C228.178 10.5922 228.071 10.8483 227.858 11.0831C227.666 11.3179 227.367 11.4353 226.961 11.4353H223.504V20.0482C223.504 20.902 223.653 21.521 223.952 21.9053C224.272 22.2681 224.613 22.5456 224.976 22.7377C225.361 22.9298 225.702 23.1113 226.001 23.282C226.321 23.4315 226.481 23.7196 226.481 24.1465C226.481 24.4454 226.353 24.7015 226.097 24.915C225.841 25.1071 225.531 25.2031 225.168 25.2031H216.043C215.68 25.2031 215.371 25.1071 215.115 24.915C214.859 24.7015 214.731 24.4454 214.731 24.1465C214.731 23.7196 214.88 23.4315 215.179 23.282C215.499 23.1113 215.84 22.9298 216.203 22.7377C216.588 22.5456 216.929 22.2681 217.228 21.9053C217.548 21.521 217.708 20.902 217.708 20.0482V11.4353H216.395ZM240.183 25.8435C238.625 25.8435 237.195 25.63 235.893 25.2031C234.59 24.7762 233.48 24.1785 232.563 23.4101C231.645 22.6417 230.93 21.7345 230.417 20.6886C229.905 19.6213 229.649 18.458 229.649 17.1986C229.649 15.9392 229.905 14.7866 230.417 13.7406C230.93 12.6734 231.645 11.7555 232.563 10.9871C233.48 10.2186 234.59 9.62095 235.893 9.19405C237.195 8.76714 238.625 8.55368 240.183 8.55368C241.763 8.55368 243.193 8.76714 244.473 9.19405C245.775 9.62095 246.885 10.2186 247.803 10.9871C248.721 11.7555 249.436 12.6734 249.948 13.7406C250.461 14.7866 250.717 15.9392 250.717 17.1986C250.717 18.458 250.461 19.6213 249.948 20.6886C249.436 21.7345 248.721 22.6417 247.803 23.4101C246.885 24.1785 245.775 24.7762 244.473 25.2031C243.193 25.63 241.763 25.8435 240.183 25.8435ZM240.183 10.3147C239.543 10.3147 238.945 10.4961 238.39 10.859C237.856 11.2005 237.387 11.6808 236.981 12.2998C236.597 12.8975 236.287 13.6232 236.053 14.477C235.839 15.3095 235.732 16.2167 235.732 17.1986C235.732 18.1805 235.839 19.0983 236.053 19.9521C236.287 20.7846 236.597 21.5104 236.981 22.1294C237.387 22.7271 237.856 23.2073 238.39 23.5702C238.945 23.9117 239.543 24.0825 240.183 24.0825C240.823 24.0825 241.41 23.9117 241.944 23.5702C242.499 23.2073 242.969 22.7271 243.353 22.1294C243.758 21.5104 244.068 20.7846 244.281 19.9521C244.516 19.0983 244.633 18.1805 244.633 17.1986C244.633 16.2167 244.516 15.3095 244.281 14.477C244.068 13.6232 243.758 12.8975 243.353 12.2998C242.969 11.6808 242.499 11.2005 241.944 10.859C241.41 10.4961 240.823 10.3147 240.183 10.3147ZM266.342 8.55368C267.089 8.55368 267.783 8.67108 268.423 8.90588C269.085 9.11934 269.651 9.42885 270.12 9.83441C270.611 10.2186 270.995 10.6776 271.273 11.2112C271.572 11.7235 271.721 12.2891 271.721 12.9082C271.721 13.3351 271.646 13.7086 271.497 14.0288C271.348 14.349 271.145 14.6265 270.889 14.8613C270.632 15.0747 270.344 15.2455 270.024 15.3736C269.704 15.4803 269.373 15.5336 269.032 15.5336C268.562 15.5336 268.114 15.4269 267.687 15.2135C267.281 14.9787 266.961 14.6265 266.726 14.1569C266.577 13.8367 266.459 13.4952 266.374 13.1323C266.289 12.7694 266.182 12.4279 266.054 12.1077C265.926 11.7875 265.744 11.5207 265.51 11.3072C265.296 11.0938 264.955 10.9871 264.485 10.9871C263.909 10.9871 263.396 11.1578 262.948 11.4994C262.521 11.8195 262.148 12.2251 261.827 12.716C261.529 13.207 261.305 13.7513 261.155 14.349C261.006 14.9466 260.931 15.523 260.931 16.0779V20.0482C260.931 20.902 261.08 21.521 261.379 21.9053C261.699 22.2681 262.041 22.5456 262.404 22.7377C262.788 22.9298 263.13 23.1113 263.428 23.282C263.749 23.4315 263.909 23.7196 263.909 24.1465C263.909 24.4454 263.781 24.7015 263.524 24.915C263.268 25.1071 262.959 25.2031 262.596 25.2031H253.471C253.108 25.2031 252.798 25.1071 252.542 24.915C252.286 24.7015 252.158 24.4454 252.158 24.1465C252.158 23.7196 252.307 23.4315 252.606 23.282C252.926 23.1113 253.268 22.9298 253.631 22.7377C254.015 22.5456 254.357 22.2681 254.655 21.9053C254.976 21.521 255.136 20.902 255.136 20.0482V14.349C255.136 13.4098 254.997 12.7587 254.719 12.3959C254.442 12.0116 254.132 11.7342 253.791 11.5634C253.471 11.3713 253.172 11.2112 252.894 11.0831C252.617 10.955 252.478 10.6776 252.478 10.2506C252.478 9.95181 252.606 9.70634 252.862 9.51423C253.119 9.30077 253.428 9.19405 253.791 9.19405H259.266C260.376 9.19405 260.931 9.77037 260.931 10.923C260.952 10.923 261.091 10.8056 261.347 10.5708C261.603 10.3147 261.956 10.0372 262.404 9.73835C262.873 9.43952 263.439 9.1727 264.101 8.9379C264.762 8.68175 265.51 8.55368 266.342 8.55368ZM282.964 9.19405H288.439C289.549 9.19405 290.104 9.77037 290.104 10.923C290.125 10.923 290.253 10.8056 290.488 10.5708C290.744 10.3147 291.107 10.0372 291.577 9.73835C292.068 9.43952 292.676 9.1727 293.402 8.9379C294.127 8.68175 294.981 8.55368 295.963 8.55368C298.589 8.55368 300.403 9.58894 301.406 11.6594C302.217 10.5922 303.124 9.81306 304.128 9.32212C305.152 8.80983 306.348 8.55368 307.714 8.55368C309.955 8.55368 311.652 9.20472 312.805 10.5068C313.957 11.8089 314.534 13.7086 314.534 16.206V20.0482C314.534 20.902 314.683 21.521 314.982 21.9053C315.302 22.2681 315.644 22.5456 316.006 22.7377C316.391 22.9298 316.732 23.1113 317.031 23.282C317.351 23.4315 317.511 23.7196 317.511 24.1465C317.511 24.4454 317.383 24.7015 317.127 24.915C316.871 25.1071 316.561 25.2031 316.199 25.2031H307.073C306.711 25.2031 306.401 25.1071 306.145 24.915C305.889 24.7015 305.761 24.4454 305.761 24.1465C305.761 23.7196 305.91 23.4315 306.209 23.282C306.529 23.1113 306.871 22.9298 307.233 22.7377C307.618 22.5456 307.959 22.2681 308.258 21.9053C308.578 21.521 308.738 20.902 308.738 20.0482V16.4301C308.738 14.5944 308.482 13.239 307.97 12.3638C307.458 11.4887 306.657 11.0511 305.569 11.0511C304.523 11.0511 303.711 11.446 303.135 12.2358C302.58 13.0256 302.303 14.1569 302.303 15.6297V20.0482C302.303 20.902 302.431 21.521 302.687 21.9053C302.943 22.2681 303.231 22.5456 303.551 22.7377C303.872 22.9298 304.16 23.1113 304.416 23.282C304.672 23.4315 304.8 23.7196 304.8 24.1465C304.8 24.4454 304.672 24.7015 304.416 24.915C304.16 25.1071 303.85 25.2031 303.487 25.2031H295.355C294.992 25.2031 294.682 25.1071 294.426 24.915C294.17 24.7015 294.042 24.4454 294.042 24.1465C294.042 23.7196 294.181 23.4315 294.458 23.282C294.736 23.1113 295.035 22.9298 295.355 22.7377C295.696 22.5456 296.006 22.2681 296.283 21.9053C296.561 21.521 296.7 20.902 296.7 20.0482V16.4301C296.7 12.8441 295.696 11.0511 293.69 11.0511C292.601 11.0511 291.726 11.5207 291.064 12.4599C290.424 13.3991 290.104 14.6265 290.104 16.142V20.0482C290.104 20.902 290.253 21.521 290.552 21.9053C290.872 22.2681 291.214 22.5456 291.577 22.7377C291.961 22.9298 292.302 23.1113 292.601 23.282C292.921 23.4315 293.081 23.7196 293.081 24.1465C293.081 24.4454 292.953 24.7015 292.697 24.915C292.441 25.1071 292.132 25.2031 291.769 25.2031H282.644C282.281 25.2031 281.971 25.1071 281.715 24.915C281.459 24.7015 281.331 24.4454 281.331 24.1465C281.331 23.7196 281.48 23.4315 281.779 23.282C282.099 23.1113 282.441 22.9298 282.804 22.7377C283.188 22.5456 283.529 22.2681 283.828 21.9053C284.148 21.521 284.308 20.902 284.308 20.0482V14.349C284.308 13.4098 284.17 12.7587 283.892 12.3959C283.615 12.0116 283.305 11.7342 282.964 11.5634C282.644 11.3713 282.345 11.2112 282.067 11.0831C281.79 10.955 281.651 10.6776 281.651 10.2506C281.651 9.95181 281.779 9.70634 282.035 9.51423C282.291 9.30077 282.601 9.19405 282.964 9.19405ZM329.171 25.8435C327.613 25.8435 326.183 25.63 324.88 25.2031C323.578 24.7762 322.468 24.1785 321.551 23.4101C320.633 22.6417 319.918 21.7345 319.405 20.6886C318.893 19.6213 318.637 18.458 318.637 17.1986C318.637 15.9392 318.893 14.7866 319.405 13.7406C319.918 12.6734 320.633 11.7555 321.551 10.9871C322.468 10.2186 323.578 9.62095 324.88 9.19405C326.183 8.76714 327.613 8.55368 329.171 8.55368C330.75 8.55368 332.181 8.76714 333.461 9.19405C334.763 9.62095 335.873 10.2186 336.791 10.9871C337.709 11.7555 338.424 12.6734 338.936 13.7406C339.449 14.7866 339.705 15.9392 339.705 17.1986C339.705 18.458 339.449 19.6213 338.936 20.6886C338.424 21.7345 337.709 22.6417 336.791 23.4101C335.873 24.1785 334.763 24.7762 333.461 25.2031C332.181 25.63 330.75 25.8435 329.171 25.8435ZM329.171 10.3147C328.531 10.3147 327.933 10.4961 327.378 10.859C326.844 11.2005 326.375 11.6808 325.969 12.2998C325.585 12.8975 325.275 13.6232 325.041 14.477C324.827 15.3095 324.72 16.2167 324.72 17.1986C324.72 18.1805 324.827 19.0983 325.041 19.9521C325.275 20.7846 325.585 21.5104 325.969 22.1294C326.375 22.7271 326.844 23.2073 327.378 23.5702C327.933 23.9117 328.531 24.0825 329.171 24.0825C329.811 24.0825 330.398 23.9117 330.932 23.5702C331.487 23.2073 331.956 22.7271 332.341 22.1294C332.746 21.5104 333.056 20.7846 333.269 19.9521C333.504 19.0983 333.621 18.1805 333.621 17.1986C333.621 16.2167 333.504 15.3095 333.269 14.477C333.056 13.6232 332.746 12.8975 332.341 12.2998C331.956 11.6808 331.487 11.2005 330.932 10.859C330.398 10.4961 329.811 10.3147 329.171 10.3147ZM355.33 8.55368C356.077 8.55368 356.771 8.67108 357.411 8.90588C358.073 9.11934 358.639 9.42885 359.108 9.83441C359.599 10.2186 359.983 10.6776 360.261 11.2112C360.56 11.7235 360.709 12.2891 360.709 12.9082C360.709 13.3351 360.634 13.7086 360.485 14.0288C360.336 14.349 360.133 14.6265 359.877 14.8613C359.62 15.0747 359.332 15.2455 359.012 15.3736C358.692 15.4803 358.361 15.5336 358.02 15.5336C357.55 15.5336 357.102 15.4269 356.675 15.2135C356.269 14.9787 355.949 14.6265 355.714 14.1569C355.565 13.8367 355.447 13.4952 355.362 13.1323C355.277 12.7694 355.17 12.4279 355.042 12.1077C354.914 11.7875 354.732 11.5207 354.498 11.3072C354.284 11.0938 353.943 10.9871 353.473 10.9871C352.897 10.9871 352.384 11.1578 351.936 11.4994C351.509 11.8195 351.136 12.2251 350.815 12.716C350.517 13.207 350.292 13.7513 350.143 14.349C349.994 14.9466 349.919 15.523 349.919 16.0779V20.0482C349.919 20.902 350.068 21.521 350.367 21.9053C350.687 22.2681 351.029 22.5456 351.392 22.7377C351.776 22.9298 352.118 23.1113 352.416 23.282C352.737 23.4315 352.897 23.7196 352.897 24.1465C352.897 24.4454 352.769 24.7015 352.512 24.915C352.256 25.1071 351.947 25.2031 351.584 25.2031H342.459C342.096 25.2031 341.786 25.1071 341.53 24.915C341.274 24.7015 341.146 24.4454 341.146 24.1465C341.146 23.7196 341.295 23.4315 341.594 23.282C341.914 23.1113 342.256 22.9298 342.619 22.7377C343.003 22.5456 343.345 22.2681 343.643 21.9053C343.964 21.521 344.124 20.902 344.124 20.0482V14.349C344.124 13.4098 343.985 12.7587 343.707 12.3959C343.43 12.0116 343.12 11.7342 342.779 11.5634C342.459 11.3713 342.16 11.2112 341.882 11.0831C341.605 10.955 341.466 10.6776 341.466 10.2506C341.466 9.95181 341.594 9.70634 341.85 9.51423C342.107 9.30077 342.416 9.19405 342.779 9.19405H348.254C349.364 9.19405 349.919 9.77037 349.919 10.923C349.94 10.923 350.079 10.8056 350.335 10.5708C350.591 10.3147 350.944 10.0372 351.392 9.73835C351.861 9.43952 352.427 9.1727 353.089 8.9379C353.75 8.68175 354.498 8.55368 355.33 8.55368ZM379.355 21.0408C379.526 20.8273 379.708 20.6672 379.9 20.5605C380.113 20.4538 380.316 20.4004 380.508 20.4004C380.743 20.4004 380.935 20.4644 381.084 20.5925C381.276 20.7633 381.373 20.9767 381.373 21.2329C381.373 21.489 381.287 21.7452 381.116 22.0013C380.263 23.2393 379.121 24.1892 377.69 24.8509C376.26 25.5126 374.638 25.8435 372.824 25.8435C371.223 25.8435 369.761 25.63 368.437 25.2031C367.135 24.7549 366.014 24.1465 365.075 23.3781C364.157 22.6097 363.442 21.7025 362.93 20.6565C362.418 19.5893 362.162 18.4259 362.162 17.1666C362.162 15.9072 362.407 14.7545 362.898 13.7086C363.41 12.6627 364.115 11.7555 365.011 10.9871C365.929 10.2186 367.028 9.62095 368.309 9.19405C369.611 8.76714 371.052 8.55368 372.632 8.55368C375.278 8.55368 377.37 9.27943 378.907 10.7309C380.444 12.1611 381.255 14.1675 381.341 16.7503H368.309C368.33 17.5615 368.459 18.3619 368.693 19.1517C368.949 19.9201 369.323 20.6139 369.814 21.2329C370.326 21.8305 370.967 22.3215 371.735 22.7057C372.525 23.0686 373.475 23.25 374.585 23.25C375.545 23.25 376.442 23.0579 377.274 22.6737C378.107 22.2895 378.8 21.7452 379.355 21.0408ZM376.025 14.9893C375.983 13.5805 375.652 12.4492 375.033 11.5954C374.414 10.7416 373.624 10.3147 372.664 10.3147C371.532 10.3147 370.593 10.7523 369.846 11.6274C369.12 12.5026 368.651 13.6232 368.437 14.9893H376.025ZM408.528 21.0408C408.699 20.8273 408.88 20.6672 409.072 20.5605C409.286 20.4538 409.489 20.4004 409.681 20.4004C409.916 20.4004 410.108 20.4644 410.257 20.5925C410.449 20.7633 410.545 20.9767 410.545 21.2329C410.545 21.489 410.46 21.7452 410.289 22.0013C409.435 23.2393 408.293 24.1892 406.863 24.8509C405.433 25.5126 403.811 25.8435 401.996 25.8435C400.417 25.8435 398.976 25.63 397.674 25.2031C396.372 24.7762 395.251 24.1785 394.312 23.4101C393.373 22.6417 392.636 21.7238 392.103 20.6565C391.591 19.5893 391.334 18.4153 391.334 17.1345C391.334 15.8538 391.591 14.6905 392.103 13.6446C392.636 12.5773 393.373 11.6701 394.312 10.923C395.273 10.1759 396.415 9.59961 397.738 9.19405C399.083 8.76714 400.566 8.55368 402.189 8.55368C403.149 8.55368 404.078 8.67108 404.974 8.90588C405.892 9.14068 406.703 9.46086 407.408 9.86643C408.133 10.272 408.731 10.7523 409.201 11.3072C409.67 11.8409 409.937 12.4172 410.001 13.0362C410.022 13.143 410.033 13.239 410.033 13.3244C410.033 13.6019 409.98 13.89 409.873 14.1889C409.766 14.4664 409.595 14.7332 409.361 14.9893C409.126 15.2241 408.838 15.4162 408.496 15.5657C408.155 15.6937 407.792 15.7578 407.408 15.7578C406.917 15.7578 406.522 15.6617 406.223 15.4696C405.924 15.2562 405.679 15.0107 405.486 14.7332C405.294 14.4344 405.145 14.1248 405.038 13.8047C404.953 13.4631 404.867 13.1643 404.782 12.9082C404.483 11.9049 404.099 11.2219 403.629 10.859C403.16 10.4961 402.68 10.3147 402.189 10.3147C401.506 10.3147 400.865 10.4748 400.267 10.795C399.691 11.0938 399.19 11.5207 398.763 12.0757C398.357 12.6307 398.037 13.2924 397.802 14.0608C397.567 14.8292 397.45 15.6617 397.45 16.5582C397.45 17.5615 397.599 18.4793 397.898 19.3118C398.197 20.1229 398.624 20.8273 399.179 21.425C399.734 22.0013 400.396 22.4496 401.164 22.7697C401.932 23.0899 402.797 23.25 403.757 23.25C404.718 23.25 405.615 23.0579 406.447 22.6737C407.279 22.2895 407.973 21.7452 408.528 21.0408ZM427.704 23.5062C426.893 24.2959 425.943 24.8936 424.854 25.2992C423.766 25.7047 422.656 25.9075 421.524 25.9075C420.244 25.9075 419.07 25.6941 418.002 25.2672C416.935 24.8403 416.017 24.2426 415.249 23.4741C414.48 22.7057 413.883 21.7879 413.456 20.7206C413.029 19.6533 412.815 18.4793 412.815 17.1986C412.815 15.9179 413.029 14.7545 413.456 13.7086C413.883 12.6413 414.48 11.7235 415.249 10.955C416.017 10.1866 416.935 9.58894 418.002 9.16203C419.07 8.73512 420.244 8.52166 421.524 8.52166C422.698 8.52166 423.819 8.73512 424.886 9.16203C425.975 9.56759 426.914 10.1439 427.704 10.891H428.344C429.198 10.891 429.806 10.7523 430.169 10.4748C430.553 10.1973 430.842 9.89844 431.034 9.57826C431.226 9.23674 431.397 8.92723 431.546 8.64974C431.717 8.37225 432.016 8.2335 432.442 8.2335C432.741 8.2335 432.987 8.36157 433.179 8.61772C433.392 8.87386 433.499 9.18337 433.499 9.54625V20.0482C433.499 20.902 433.648 21.521 433.947 21.9053C434.268 22.2681 434.609 22.5456 434.972 22.7377C435.356 22.9298 435.698 23.1113 435.996 23.282C436.317 23.4315 436.477 23.7196 436.477 24.1465C436.477 24.4454 436.349 24.7015 436.093 24.915C435.836 25.1071 435.527 25.2031 435.164 25.2031H429.369C428.259 25.2031 427.704 24.6375 427.704 23.5062ZM423.061 23.7623C424.47 23.7623 425.591 23.1753 426.423 22.0013C427.256 20.806 427.672 19.2051 427.672 17.1986C427.672 15.1921 427.256 13.6019 426.423 12.4279C425.591 11.2539 424.47 10.6669 423.061 10.6669C422.229 10.6669 421.524 10.8803 420.948 11.3072C420.393 11.7342 419.934 12.2785 419.571 12.9402C419.23 13.5805 418.984 14.2849 418.835 15.0534C418.685 15.8005 418.611 16.5155 418.611 17.1986C418.611 17.8603 418.685 18.5754 418.835 19.3438C418.984 20.1122 419.23 20.8273 419.571 21.489C419.934 22.1507 420.393 22.695 420.948 23.1219C421.524 23.5489 422.229 23.7623 423.061 23.7623ZM456.078 20.9447C456.078 21.7131 455.854 22.3962 455.405 22.9939C454.957 23.5915 454.327 24.1038 453.516 24.5307C452.705 24.9577 451.734 25.2778 450.603 25.4913C449.471 25.7261 448.223 25.8435 446.856 25.8435C445.554 25.8435 444.348 25.7368 443.238 25.5233C442.15 25.3312 441.211 25.0537 440.421 24.6908C439.631 24.3066 439.012 23.8584 438.564 23.3461C438.137 22.8124 437.923 22.2361 437.923 21.6171C437.923 20.9554 438.147 20.4111 438.596 19.9842C439.044 19.5359 439.61 19.3118 440.293 19.3118C440.848 19.3118 441.36 19.4719 441.83 19.7921C442.299 20.1122 442.651 20.6459 442.886 21.393C443.206 22.3962 443.644 23.1006 444.199 23.5062C444.775 23.8904 445.608 24.0825 446.696 24.0825C447.657 24.0825 448.383 23.9544 448.874 23.6983C449.386 23.4421 449.642 23.0686 449.642 22.5776C449.642 22.2148 449.503 21.8839 449.226 21.5851C448.948 21.2649 448.585 20.9767 448.137 20.7206C447.71 20.4431 447.209 20.1869 446.632 19.9521C446.077 19.696 445.512 19.4399 444.935 19.1837C444.188 18.8635 443.43 18.522 442.662 18.1591C441.894 17.7963 441.2 17.4014 440.581 16.9745C439.983 16.5262 439.492 16.0246 439.108 15.4696C438.724 14.9146 438.532 14.2849 438.532 13.5805C438.532 12.8334 438.745 12.1611 439.172 11.5634C439.62 10.9444 440.239 10.4107 441.029 9.96248C441.819 9.51423 442.758 9.1727 443.847 8.9379C444.935 8.68175 446.131 8.55368 447.433 8.55368C448.5 8.55368 449.482 8.63906 450.378 8.80983C451.296 8.95925 452.107 9.19405 452.812 9.51423C453.516 9.81306 454.103 10.1759 454.573 10.6028C455.042 11.0298 455.373 11.51 455.565 12.0437C455.672 12.3212 455.725 12.588 455.725 12.8441C455.725 13.271 455.555 13.7086 455.213 14.1569C454.872 14.5838 454.285 14.7972 453.452 14.7972C452.876 14.7972 452.374 14.6478 451.947 14.349C451.542 14.0288 451.275 13.6019 451.147 13.0682C450.912 12.1077 450.517 11.414 449.962 10.9871C449.407 10.5388 448.617 10.3147 447.593 10.3147C446.718 10.3147 446.035 10.4641 445.544 10.7629C445.053 11.0404 444.807 11.4353 444.807 11.9476C444.807 12.2464 444.935 12.5239 445.191 12.7801C445.448 13.0362 445.778 13.2817 446.184 13.5165C446.611 13.7513 447.091 13.9861 447.625 14.2209C448.18 14.4557 448.735 14.7012 449.29 14.9573C450.058 15.2988 450.848 15.6617 451.659 16.0459C452.47 16.4301 453.196 16.8571 453.836 17.3267C454.498 17.7963 455.032 18.3299 455.437 18.9276C455.864 19.5252 456.078 20.1976 456.078 20.9447ZM475.191 21.0408C475.362 20.8273 475.543 20.6672 475.735 20.5605C475.949 20.4538 476.152 20.4004 476.344 20.4004C476.578 20.4004 476.771 20.4644 476.92 20.5925C477.112 20.7633 477.208 20.9767 477.208 21.2329C477.208 21.489 477.123 21.7452 476.952 22.0013C476.098 23.2393 474.956 24.1892 473.526 24.8509C472.096 25.5126 470.474 25.8435 468.659 25.8435C467.058 25.8435 465.596 25.63 464.273 25.2031C462.971 24.7549 461.85 24.1465 460.911 23.3781C459.993 22.6097 459.278 21.7025 458.766 20.6565C458.253 19.5893 457.997 18.4259 457.997 17.1666C457.997 15.9072 458.243 14.7545 458.734 13.7086C459.246 12.6627 459.95 11.7555 460.847 10.9871C461.765 10.2186 462.864 9.62095 464.145 9.19405C465.447 8.76714 466.888 8.55368 468.467 8.55368C471.114 8.55368 473.206 9.27943 474.743 10.7309C476.28 12.1611 477.091 14.1675 477.176 16.7503H464.145C464.166 17.5615 464.294 18.3619 464.529 19.1517C464.785 19.9201 465.159 20.6139 465.65 21.2329C466.162 21.8305 466.802 22.3215 467.571 22.7057C468.36 23.0686 469.31 23.25 470.42 23.25C471.381 23.25 472.277 23.0579 473.11 22.6737C473.942 22.2895 474.636 21.7452 475.191 21.0408ZM471.861 14.9893C471.818 13.5805 471.488 12.4492 470.869 11.5954C470.25 10.7416 469.46 10.3147 468.499 10.3147C467.368 10.3147 466.429 10.7523 465.682 11.6274C464.956 12.5026 464.486 13.6232 464.273 14.9893H471.861ZM505.324 20.9447C505.324 21.7131 505.1 22.3962 504.652 22.9939C504.204 23.5915 503.574 24.1038 502.763 24.5307C501.952 24.9577 500.981 25.2778 499.849 25.4913C498.718 25.7261 497.469 25.8435 496.103 25.8435C494.801 25.8435 493.595 25.7368 492.485 25.5233C491.396 25.3312 490.457 25.0537 489.667 24.6908C488.878 24.3066 488.259 23.8584 487.81 23.3461C487.383 22.8124 487.17 22.2361 487.17 21.6171C487.17 20.9554 487.394 20.4111 487.842 19.9842C488.291 19.5359 488.856 19.3118 489.539 19.3118C490.094 19.3118 490.607 19.4719 491.076 19.7921C491.546 20.1122 491.898 20.6459 492.133 21.393C492.453 22.3962 492.891 23.1006 493.446 23.5062C494.022 23.8904 494.854 24.0825 495.943 24.0825C496.904 24.0825 497.629 23.9544 498.12 23.6983C498.633 23.4421 498.889 23.0686 498.889 22.5776C498.889 22.2148 498.75 21.8839 498.472 21.5851C498.195 21.2649 497.832 20.9767 497.384 20.7206C496.957 20.4431 496.455 20.1869 495.879 19.9521C495.324 19.696 494.758 19.4399 494.182 19.1837C493.435 18.8635 492.677 18.522 491.909 18.1591C491.14 17.7963 490.447 17.4014 489.828 16.9745C489.23 16.5262 488.739 16.0246 488.355 15.4696C487.97 14.9146 487.778 14.2849 487.778 13.5805C487.778 12.8334 487.992 12.1611 488.419 11.5634C488.867 10.9444 489.486 10.4107 490.276 9.96248C491.066 9.51423 492.005 9.1727 493.093 8.9379C494.182 8.68175 495.377 8.55368 496.679 8.55368C497.747 8.55368 498.729 8.63906 499.625 8.80983C500.543 8.95925 501.354 9.19405 502.058 9.51423C502.763 9.81306 503.35 10.1759 503.819 10.6028C504.289 11.0298 504.62 11.51 504.812 12.0437C504.919 12.3212 504.972 12.588 504.972 12.8441C504.972 13.271 504.801 13.7086 504.46 14.1569C504.118 14.5838 503.531 14.7972 502.699 14.7972C502.123 14.7972 501.621 14.6478 501.194 14.349C500.788 14.0288 500.522 13.6019 500.394 13.0682C500.159 12.1077 499.764 11.414 499.209 10.9871C498.654 10.5388 497.864 10.3147 496.84 10.3147C495.964 10.3147 495.281 10.4641 494.79 10.7629C494.299 11.0404 494.054 11.4353 494.054 11.9476C494.054 12.2464 494.182 12.5239 494.438 12.7801C494.694 13.0362 495.025 13.2817 495.431 13.5165C495.858 13.7513 496.338 13.9861 496.872 14.2209C497.427 14.4557 497.981 14.7012 498.536 14.9573C499.305 15.2988 500.095 15.6617 500.906 16.0459C501.717 16.4301 502.443 16.8571 503.083 17.3267C503.745 17.7963 504.278 18.3299 504.684 18.9276C505.111 19.5252 505.324 20.1976 505.324 20.9447ZM516.825 25.2031C515.928 25.63 514.968 25.8435 513.943 25.8435C512.47 25.8435 511.296 25.4166 510.421 24.5628C509.567 23.6876 509.14 22.5136 509.14 21.0408V11.4353H507.636C507.294 11.4353 507.038 11.3179 506.867 11.0831C506.718 10.8483 506.643 10.5922 506.643 10.3147C506.643 10.0372 506.718 9.78105 506.867 9.54625C507.038 9.31145 507.294 9.19405 507.636 9.19405C508.276 9.19405 508.884 9.08732 509.461 8.87386C510.037 8.63906 510.549 8.32955 510.998 7.94534C511.446 7.53977 511.809 7.07017 512.086 6.53654C512.385 6.0029 512.566 5.43725 512.63 4.83958C512.673 4.45536 512.812 4.16719 513.047 3.97508C513.281 3.76163 513.538 3.6549 513.815 3.6549C514.093 3.6549 514.349 3.7723 514.584 4.0071C514.818 4.22056 514.936 4.54074 514.936 4.96765V9.19405H517.369C517.775 9.19405 518.074 9.31145 518.266 9.54625C518.479 9.78105 518.586 10.0372 518.586 10.3147C518.586 10.5922 518.479 10.8483 518.266 11.0831C518.074 11.3179 517.775 11.4353 517.369 11.4353H514.936V20.2723C514.936 21.3396 515.139 22.0653 515.544 22.4496C515.971 22.8338 516.377 23.0259 516.761 23.0259C516.91 23.0259 517.049 23.0045 517.177 22.9619C517.326 22.9192 517.465 22.8978 517.593 22.8978C517.743 22.8978 517.892 22.9405 518.042 23.0259C518.212 23.1113 518.298 23.218 518.298 23.3461C518.319 23.4741 518.33 23.5489 518.33 23.5702C518.33 23.805 518.212 24.0718 517.977 24.3707C517.764 24.6481 517.38 24.9256 516.825 25.2031ZM540.716 20.0482C540.716 20.902 540.866 21.521 541.164 21.9053C541.485 22.2681 541.826 22.5456 542.189 22.7377C542.573 22.9298 542.915 23.1113 543.214 23.282C543.534 23.4315 543.694 23.7196 543.694 24.1465C543.694 24.4454 543.566 24.7015 543.31 24.915C543.053 25.1071 542.744 25.2031 542.381 25.2031H536.586C535.476 25.2031 534.921 24.6268 534.921 23.4741C534.899 23.4741 534.75 23.6022 534.473 23.8584C534.195 24.0932 533.79 24.36 533.256 24.6588C532.744 24.9577 532.103 25.2245 531.335 25.4593C530.588 25.7154 529.723 25.8435 528.741 25.8435C526.628 25.8435 525.006 25.1925 523.875 23.8904C522.765 22.567 522.21 20.6672 522.21 18.1911V14.349C522.21 13.4098 522.071 12.7587 521.793 12.3959C521.516 12.0116 521.206 11.7342 520.865 11.5634C520.545 11.3713 520.246 11.2112 519.968 11.0831C519.691 10.955 519.552 10.6776 519.552 10.2506C519.552 9.95181 519.68 9.70634 519.936 9.51423C520.192 9.30077 520.502 9.19405 520.865 9.19405H526.34C527.45 9.19405 528.005 9.77037 528.005 10.923V17.967C528.005 21.5531 529.008 23.3461 531.015 23.3461C531.57 23.3461 532.082 23.218 532.551 22.9619C533.021 22.7057 533.427 22.3535 533.768 21.9053C534.131 21.4357 534.409 20.8913 534.601 20.2723C534.814 19.6533 534.921 18.9809 534.921 18.2552V14.349C534.921 13.4098 534.782 12.7587 534.505 12.3959C534.227 12.0116 533.918 11.7342 533.576 11.5634C533.256 11.3713 532.957 11.2112 532.68 11.0831C532.402 10.955 532.263 10.6776 532.263 10.2506C532.263 9.95181 532.391 9.70634 532.648 9.51423C532.904 9.30077 533.213 9.19405 533.576 9.19405H539.051C540.161 9.19405 540.716 9.77037 540.716 10.923V20.0482ZM560.029 23.5062C559.218 24.2959 558.268 24.8829 557.179 25.2672C556.091 25.6514 554.981 25.8435 553.849 25.8435C552.569 25.8435 551.395 25.63 550.327 25.2031C549.26 24.7762 548.342 24.1892 547.574 23.4421C546.805 22.6737 546.208 21.7665 545.781 20.7206C545.354 19.6533 545.14 18.4793 545.14 17.1986C545.14 15.9179 545.354 14.7545 545.781 13.7086C546.208 12.6413 546.805 11.7342 547.574 10.9871C548.342 10.2186 549.26 9.62095 550.327 9.19405C551.395 8.76714 552.569 8.55368 553.849 8.55368C554.981 8.55368 556.091 8.74579 557.179 9.13001C558.268 9.51423 559.218 10.1012 560.029 10.891V6.34443C560.029 5.40523 559.89 4.75419 559.613 4.39132C559.335 4.0071 559.026 3.72961 558.684 3.55885C558.364 3.36674 558.065 3.20665 557.788 3.07858C557.51 2.9505 557.371 2.67301 557.371 2.24611C557.371 1.94727 557.499 1.7018 557.756 1.50969C558.012 1.29623 558.321 1.1895 558.684 1.1895H564.159C565.269 1.1895 565.824 1.76583 565.824 2.91849V20.0482C565.824 20.902 565.974 21.521 566.272 21.9053C566.593 22.2681 566.934 22.5456 567.297 22.7377C567.681 22.9298 568.023 23.1113 568.322 23.282C568.642 23.4315 568.802 23.7196 568.802 24.1465C568.802 24.4454 568.674 24.7015 568.418 24.915C568.161 25.1071 567.852 25.2031 567.489 25.2031H561.694C560.584 25.2031 560.029 24.6375 560.029 23.5062ZM555.386 23.7303C556.795 23.7303 557.916 23.1433 558.748 21.9693C559.581 20.7953 559.997 19.2051 559.997 17.1986C559.997 15.1921 559.581 13.6019 558.748 12.4279C557.916 11.2539 556.795 10.6669 555.386 10.6669C554.554 10.6669 553.849 10.8803 553.273 11.3072C552.718 11.7342 552.259 12.2785 551.896 12.9402C551.555 13.5805 551.309 14.2849 551.16 15.0534C551.01 15.8005 550.936 16.5155 550.936 17.1986C550.936 17.8603 551.01 18.5754 551.16 19.3438C551.309 20.1122 551.555 20.8273 551.896 21.489C552.259 22.1294 552.718 22.663 553.273 23.0899C553.849 23.5168 554.554 23.7303 555.386 23.7303ZM575.467 7.65717C575.019 7.65717 574.592 7.57179 574.187 7.40103C573.802 7.23026 573.461 7.00614 573.162 6.72865C572.885 6.42981 572.66 6.08828 572.49 5.70407C572.319 5.2985 572.234 4.87159 572.234 4.42334C572.234 3.97509 572.319 3.55885 572.49 3.17463C572.66 2.76907 572.885 2.42754 573.162 2.15005C573.461 1.85121 573.802 1.61641 574.187 1.44565C574.592 1.27489 575.019 1.1895 575.467 1.1895C575.916 1.1895 576.332 1.27489 576.716 1.44565C577.122 1.61641 577.463 1.85121 577.741 2.15005C578.039 2.42754 578.274 2.76907 578.445 3.17463C578.616 3.55885 578.701 3.97509 578.701 4.42334C578.701 4.87159 578.616 5.2985 578.445 5.70407C578.274 6.08828 578.039 6.42981 577.741 6.72865C577.463 7.00614 577.122 7.23026 576.716 7.40103C576.332 7.57179 575.916 7.65717 575.467 7.65717ZM571.721 9.19405H577.196C578.306 9.19405 578.861 9.77037 578.861 10.923V20.0482C578.861 20.902 579.011 21.521 579.31 21.9053C579.63 22.2681 579.971 22.5456 580.334 22.7377C580.718 22.9298 581.06 23.1113 581.359 23.282C581.679 23.4315 581.839 23.7196 581.839 24.1465C581.839 24.4454 581.711 24.7015 581.455 24.915C581.199 25.1071 580.889 25.2031 580.526 25.2031H571.401C571.038 25.2031 570.729 25.1071 570.473 24.915C570.216 24.7015 570.088 24.4454 570.088 24.1465C570.088 23.7196 570.238 23.4315 570.537 23.282C570.857 23.1113 571.198 22.9298 571.561 22.7377C571.945 22.5456 572.287 22.2681 572.586 21.9053C572.906 21.521 573.066 20.902 573.066 20.0482V14.349C573.066 13.4098 572.927 12.7587 572.65 12.3959C572.372 12.0116 572.063 11.7342 571.721 11.5634C571.401 11.3713 571.102 11.2112 570.825 11.0831C570.547 10.955 570.408 10.6776 570.408 10.2506C570.408 9.95181 570.537 9.70634 570.793 9.51423C571.049 9.30077 571.358 9.19405 571.721 9.19405ZM600.481 21.0408C600.652 20.8273 600.833 20.6672 601.025 20.5605C601.239 20.4538 601.441 20.4004 601.633 20.4004C601.868 20.4004 602.06 20.4644 602.21 20.5925C602.402 20.7633 602.498 20.9767 602.498 21.2329C602.498 21.489 602.413 21.7452 602.242 22.0013C601.388 23.2393 600.246 24.1892 598.816 24.8509C597.386 25.5126 595.763 25.8435 593.949 25.8435C592.348 25.8435 590.886 25.63 589.563 25.2031C588.261 24.7549 587.14 24.1465 586.201 23.3781C585.283 22.6097 584.568 21.7025 584.055 20.6565C583.543 19.5893 583.287 18.4259 583.287 17.1666C583.287 15.9072 583.532 14.7545 584.023 13.7086C584.536 12.6627 585.24 11.7555 586.137 10.9871C587.054 10.2186 588.154 9.62095 589.435 9.19405C590.737 8.76714 592.177 8.55368 593.757 8.55368C596.404 8.55368 598.496 9.27943 600.033 10.7309C601.569 12.1611 602.381 14.1675 602.466 16.7503H589.435C589.456 17.5615 589.584 18.3619 589.819 19.1517C590.075 19.9201 590.448 20.6139 590.939 21.2329C591.452 21.8305 592.092 22.3215 592.86 22.7057C593.65 23.0686 594.6 23.25 595.71 23.25C596.671 23.25 597.567 23.0579 598.4 22.6737C599.232 22.2895 599.926 21.7452 600.481 21.0408ZM597.151 14.9893C597.108 13.5805 596.777 12.4492 596.158 11.5954C595.539 10.7416 594.75 10.3147 593.789 10.3147C592.658 10.3147 591.718 10.7523 590.971 11.6274C590.246 12.5026 589.776 13.6232 589.563 14.9893H597.151ZM622.297 20.9447C622.297 21.7131 622.073 22.3962 621.625 22.9939C621.176 23.5915 620.547 24.1038 619.735 24.5307C618.924 24.9577 617.953 25.2778 616.822 25.4913C615.691 25.7261 614.442 25.8435 613.076 25.8435C611.774 25.8435 610.568 25.7368 609.458 25.5233C608.369 25.3312 607.43 25.0537 606.64 24.6908C605.85 24.3066 605.231 23.8584 604.783 23.3461C604.356 22.8124 604.143 22.2361 604.143 21.6171C604.143 20.9554 604.367 20.4111 604.815 19.9842C605.263 19.5359 605.829 19.3118 606.512 19.3118C607.067 19.3118 607.579 19.4719 608.049 19.7921C608.518 20.1122 608.871 20.6459 609.105 21.393C609.426 22.3962 609.863 23.1006 610.418 23.5062C610.995 23.8904 611.827 24.0825 612.916 24.0825C613.876 24.0825 614.602 23.9544 615.093 23.6983C615.605 23.4421 615.861 23.0686 615.861 22.5776C615.861 22.2148 615.723 21.8839 615.445 21.5851C615.168 21.2649 614.805 20.9767 614.356 20.7206C613.93 20.4431 613.428 20.1869 612.852 19.9521C612.297 19.696 611.731 19.4399 611.155 19.1837C610.408 18.8635 609.65 18.522 608.881 18.1591C608.113 17.7963 607.419 17.4014 606.8 16.9745C606.202 16.5262 605.712 16.0246 605.327 15.4696C604.943 14.9146 604.751 14.2849 604.751 13.5805C604.751 12.8334 604.964 12.1611 605.391 11.5634C605.84 10.9444 606.459 10.4107 607.248 9.96248C608.038 9.51423 608.977 9.1727 610.066 8.9379C611.155 8.68175 612.35 8.55368 613.652 8.55368C614.719 8.55368 615.701 8.63906 616.598 8.80983C617.516 8.95925 618.327 9.19405 619.031 9.51423C619.735 9.81306 620.322 10.1759 620.792 10.6028C621.262 11.0298 621.593 11.51 621.785 12.0437C621.891 12.3212 621.945 12.588 621.945 12.8441C621.945 13.271 621.774 13.7086 621.432 14.1569C621.091 14.5838 620.504 14.7972 619.671 14.7972C619.095 14.7972 618.593 14.6478 618.167 14.349C617.761 14.0288 617.494 13.6019 617.366 13.0682C617.131 12.1077 616.736 11.414 616.181 10.9871C615.626 10.5388 614.837 10.3147 613.812 10.3147C612.937 10.3147 612.254 10.4641 611.763 10.7629C611.272 11.0404 611.027 11.4353 611.027 11.9476C611.027 12.2464 611.155 12.5239 611.411 12.7801C611.667 13.0362 611.998 13.2817 612.403 13.5165C612.83 13.7513 613.31 13.9861 613.844 14.2209C614.399 14.4557 614.954 14.7012 615.509 14.9573C616.277 15.2988 617.067 15.6617 617.878 16.0459C618.69 16.4301 619.415 16.8571 620.056 17.3267C620.717 17.7963 621.251 18.3299 621.657 18.9276C622.083 19.5252 622.297 20.1976 622.297 20.9447ZM628.258 25.2031C627.81 25.2031 627.383 25.1177 626.978 24.947C626.593 24.7762 626.252 24.5521 625.953 24.2746C625.676 23.9758 625.451 23.6342 625.281 23.25C625.11 22.8445 625.024 22.4175 625.024 21.9693C625.024 21.521 625.11 21.1048 625.281 20.7206C625.451 20.315 625.676 19.9735 625.953 19.696C626.252 19.3972 626.593 19.1624 626.978 18.9916C627.383 18.8208 627.81 18.7355 628.258 18.7355C628.707 18.7355 629.123 18.8208 629.507 18.9916C629.913 19.1624 630.254 19.3972 630.532 19.696C630.83 19.9735 631.065 20.315 631.236 20.7206C631.407 21.1048 631.492 21.521 631.492 21.9693C631.492 22.4175 631.407 22.8445 631.236 23.25C631.065 23.6342 630.83 23.9758 630.532 24.2746C630.254 24.5521 629.913 24.7762 629.507 24.947C629.123 25.1177 628.707 25.2031 628.258 25.2031ZM638.577 25.2031C638.128 25.2031 637.701 25.1177 637.296 24.947C636.912 24.7762 636.57 24.5521 636.271 24.2746C635.994 23.9758 635.77 23.6342 635.599 23.25C635.428 22.8445 635.343 22.4175 635.343 21.9693C635.343 21.521 635.428 21.1048 635.599 20.7206C635.77 20.315 635.994 19.9735 636.271 19.696C636.57 19.3972 636.912 19.1624 637.296 18.9916C637.701 18.8208 638.128 18.7355 638.577 18.7355C639.025 18.7355 639.441 18.8208 639.825 18.9916C640.231 19.1624 640.572 19.3972 640.85 19.696C641.149 19.9735 641.384 20.315 641.554 20.7206C641.725 21.1048 641.81 21.521 641.81 21.9693C641.81 22.4175 641.725 22.8445 641.554 23.25C641.384 23.6342 641.149 23.9758 640.85 24.2746C640.572 24.5521 640.231 24.7762 639.825 24.947C639.441 25.1177 639.025 25.2031 638.577 25.2031ZM648.895 25.2031C648.447 25.2031 648.02 25.1177 647.614 24.947C647.23 24.7762 646.889 24.5521 646.59 24.2746C646.312 23.9758 646.088 23.6342 645.917 23.25C645.747 22.8445 645.661 22.4175 645.661 21.9693C645.661 21.521 645.747 21.1048 645.917 20.7206C646.088 20.315 646.312 19.9735 646.59 19.696C646.889 19.3972 647.23 19.1624 647.614 18.9916C648.02 18.8208 648.447 18.7355 648.895 18.7355C649.343 18.7355 649.759 18.8208 650.144 18.9916C650.549 19.1624 650.891 19.3972 651.168 19.696C651.467 19.9735 651.702 20.315 651.873 20.7206C652.043 21.1048 652.129 21.521 652.129 21.9693C652.129 22.4175 652.043 22.8445 651.873 23.25C651.702 23.6342 651.467 23.9758 651.168 24.2746C650.891 24.5521 650.549 24.7762 650.144 24.947C649.759 25.1177 649.343 25.2031 648.895 25.2031Z" fill="#3B3F64"/>
</svg>
